NotoSerifTamilSlanted-SemiCondensedExtraLight.ufo
<glyph name="exclam" format="2">
  <advance width="252.47979797979798"/>
  <unicode hex="0021"/>
  <outline>
    <contour>
      <point x="86.84444444444443" y="174.6010101010101" type="line"/>
      <point x="116.5858585858586" y="174.6010101010101" type="line"/>
      <point x="241.3272727272727" y="714.0" type="line"/>
      <point x="193.86262626262626" y="714.0" type="line"/>
    </contour>
    <contour>
      <point x="68.02929292929292" y="-7.921212121212121" type="curve" smooth="yes"/>
      <point x="88.85959595959595" y="-7.921212121212121"/>
      <point x="108.07979797979797" y="10.674747474747475"/>
      <point x="108.07979797979797" y="48.53434343434344" type="curve" smooth="yes"/>
      <point x="108.07979797979797" y="71.81616161616162"/>
      <point x="94.68989898989899" y="82.43838383838383"/>
      <point x="77.3919191919192" y="82.43838383838383" type="curve" smooth="yes"/>
      <point x="54.689898989898985" y="82.43838383838383"/>
      <point x="35.68787878787879" y="61.41111111111112"/>
      <point x="35.68787878787879" y="27.538383838383837" type="curve" smooth="yes"/>
      <point x="35.68787878787879" y="3.6232323232323242"/>
      <point x="48.289898989899" y="-7.921212121212121"/>
    </contour>
  </outline>
</glyph>
<glyph name="quotedbl" format="2">
  <advance width="288.99595959595956"/>
  <unicode hex="0022"/>
  <outline>
    <contour>
      <point x="102.98787878787877" y="495.0686868686868" type="line"/>
      <point x="128.11414141414141" y="495.0686868686868" type="line"/>
      <point x="185.34343434343432" y="714.0" type="line"/>
      <point x="140.0" y="714.0" type="line"/>
    </contour>
    <contour>
      <point x="239.04646464646464" y="495.0686868686868" type="line"/>
      <point x="264.1727272727273" y="495.0686868686868" type="line"/>
      <point x="321.4020202020202" y="714.0" type="line"/>
      <point x="276.1363636363636" y="714.0" type="line"/>
    </contour>
  </outline>
</glyph>
<glyph name="numbersign" format="2">
  <advance width="515.9111111111112"/>
  <unicode hex="0023"/>
  <outline>
    <contour>
      <point x="59.927272727272715" y="0.0" type="line"/>
      <point x="94.01515151515152" y="0.0" type="line"/>
      <point x="155.56565656565658" y="215.6060606060606" type="line"/>
      <point x="316.8121212121212" y="215.6060606060606" type="line"/>
      <point x="255.33939393939397" y="0.0" type="line"/>
      <point x="289.34949494949495" y="0.0" type="line"/>
      <point x="350.82222222222225" y="215.6060606060606" type="line"/>
      <point x="457.2717171717172" y="215.6060606060606" type="line"/>
      <point x="462.7737373737374" y="247.8181818181818" type="line"/>
      <point x="360.36767676767676" y="247.8181818181818" type="line"/>
      <point x="426.1434343434343" y="477.77474747474747" type="line"/>
      <point x="529.0080808080809" y="477.77474747474747" type="line"/>
      <point x="534.0868686868687" y="509.90909090909093" type="line"/>
      <point x="435.76363636363635" y="509.90909090909093" type="line"/>
      <point x="494.1616161616162" y="714.0" type="line"/>
      <point x="460.07373737373734" y="714.0" type="line"/>
      <point x="401.6757575757576" y="509.90909090909093" type="line"/>
      <point x="240.42929292929293" y="509.90909090909093" type="line"/>
      <point x="298.8272727272727" y="714.0" type="line"/>
      <point x="264.6050505050505" y="714.0" type="line"/>
      <point x="206.41919191919195" y="509.90909090909093" type="line"/>
      <point x="97.89595959595958" y="509.90909090909093" type="line"/>
      <point x="92.8949494949495" y="477.77474747474747" type="line"/>
      <point x="196.7989898989899" y="477.77474747474747" type="line"/>
      <point x="130.8111111111111" y="247.8181818181818" type="line"/>
      <point x="26.448484848484846" y="247.8181818181818" type="line"/>
      <point x="20.946464646464648" y="215.6060606060606" type="line"/>
      <point x="121.55555555555557" y="215.6060606060606" type="line"/>
    </contour>
    <contour>
      <point x="164.95555555555552" y="247.8181818181818" type="line"/>
      <point x="230.8090909090909" y="477.77474747474747" type="line"/>
      <point x="392.0555555555556" y="477.77474747474747" type="line"/>
      <point x="326.279797979798" y="247.8181818181818" type="line"/>
    </contour>
  </outline>
</glyph>
<glyph name="percent" format="2">
  <advance width="796.2676767676768"/>
  <unicode hex="0025"/>
  <outline>
    <contour>
      <point x="155.7080808080808" y="0.0" type="line"/>
      <point x="193.03232323232325" y="0.0" type="line"/>
      <point x="662.3979797979798" y="714.0" type="line"/>
      <point x="625.9222222222222" y="714.0" type="line"/>
    </contour>
    <contour>
      <point x="177.69090909090906" y="282.57575757575756" type="curve" smooth="yes"/>
      <point x="299.08484848484846" y="282.57575757575756"/>
      <point x="353.530303030303" y="456.2070707070707"/>
      <point x="353.530303030303" y="566.4818181818182" type="curve" smooth="yes"/>
      <point x="353.530303030303" y="659.7030303030303"/>
      <point x="319.32525252525255" y="721.4242424242424"/>
      <point x="247.47171717171716" y="721.4242424242424" type="curve" smooth="yes"/>
      <point x="126.00606060606061" y="721.4242424242424"/>
      <point x="69.48686868686869" y="549.2777777777778"/>
      <point x="69.48686868686869" y="438.4373737373737" type="curve"/>
      <point x="69.48686868686869" y="335.4707070707071"/>
      <point x="110.14949494949495" y="282.57575757575756"/>
    </contour>
    <contour>
      <point x="179.35050505050506" y="310.3929292929293" type="curve" smooth="yes"/>
      <point x="131.22222222222223" y="310.3929292929293"/>
      <point x="107.02828282828283" y="351.34040404040405"/>
      <point x="107.02828282828283" y="434.8666666666666" type="curve" smooth="yes"/>
      <point x="107.02828282828283" y="525.8808080808082"/>
      <point x="152.44545454545454" y="693.8191919191919"/>
      <point x="245.96767676767675" y="693.8191919191919" type="curve" smooth="yes"/>
      <point x="290.1040404040404" y="693.8191919191919"/>
      <point x="315.2959595959596" y="651.4262626262625"/>
      <point x="315.2959595959596" y="570.2646464646465" type="curve" smooth="yes"/>
      <point x="315.2959595959596" y="478.3313131313131"/>
      <point x="270.7979797979798" y="310.3929292929293"/>
    </contour>
    <contour>
      <point x="576.2444444444444" y="-6.424242424242424" type="curve" smooth="yes"/>
      <point x="697.2181818181818" y="-6.424242424242424"/>
      <point x="751.0080808080809" y="167.2848484848485"/>
      <point x="751.0080808080809" y="277.4818181818182" type="curve" smooth="yes"/>
      <point x="751.0080808080809" y="370.7030303030303"/>
      <point x="716.8030303030303" y="432.42424242424244"/>
      <point x="644.9494949494949" y="432.42424242424244" type="curve" smooth="yes"/>
      <point x="523.4838383838384" y="432.42424242424244"/>
      <point x="467.04242424242426" y="260.27777777777777"/>
      <point x="467.04242424242426" y="149.43737373737372" type="curve"/>
      <point x="467.04242424242426" y="47.38989898989898"/>
      <point x="507.57373737373746" y="-6.424242424242424"/>
    </contour>
    <contour>
      <point x="577.9040404040404" y="21.392929292929292" type="curve" smooth="yes"/>
      <point x="528.7" y="21.392929292929292"/>
      <point x="504.5060606060607" y="62.340404040404046"/>
      <point x="504.5060606060607" y="146.0222222222222" type="curve" smooth="yes"/>
      <point x="504.5060606060607" y="236.88080808080807"/>
      <point x="547.5060606060607" y="404.8191919191919"/>
      <point x="643.4454545454546" y="404.8191919191919" type="curve" smooth="yes"/>
      <point x="687.659595959596" y="404.8191919191919"/>
      <point x="712.8515151515152" y="362.3484848484848"/>
      <point x="712.8515151515152" y="281.2646464646465" type="curve" smooth="yes"/>
      <point x="712.8515151515152" y="189.33131313131315"/>
      <point x="668.9313131313131" y="21.392929292929292"/>
    </contour>
  </outline>
</glyph>
<glyph name="quotesingle" format="2">
  <advance width="143.76767676767676"/>
  <unicode hex="0027"/>
  <outline>
    <contour>
      <point x="101.55656565656567" y="519.4929292929293" type="line"/>
      <point x="126.68282828282827" y="519.4929292929293" type="line"/>
      <point x="178.24141414141414" y="714.0" type="line"/>
      <point x="132.97575757575757" y="714.0" type="line"/>
    </contour>
  </outline>
</glyph>
<glyph name="parenleft" format="2">
  <advance width="270.94747474747476"/>
  <unicode hex="0028"/>
  <outline>
    <contour>
      <point x="153.19898989898988" y="-118.33636363636364" type="curve"/>
      <point x="159.83636363636361" y="-89.61515151515151" type="line"/>
      <point x="105.93939393939394" y="-42.107070707070704"/>
      <point x="78.67777777777778" y="64.97272727272727"/>
      <point x="78.67777777777778" y="172.32727272727274" type="curve" smooth="yes"/>
      <point x="78.67777777777778" y="340.9050505050505"/>
      <point x="145.62020202020202" y="598.090909090909"/>
      <point x="332.6969696969697" y="716.4959595959596" type="curve"/>
      <point x="339.17878787878783" y="745.5050505050505" type="line"/>
      <point x="123.61212121212122" y="642.1727272727272"/>
      <point x="37.22222222222222" y="390.2929292929293"/>
      <point x="37.22222222222222" y="180.58686868686868" type="curve" smooth="yes"/>
      <point x="37.22222222222222" y="44.72727272727273"/>
      <point x="74.26262626262626" y="-63.07171717171717"/>
    </contour>
  </outline>
</glyph>
<glyph name="parenright" format="2">
  <advance width="270.94747474747476"/>
  <unicode hex="0029"/>
  <outline>
    <contour>
      <point x="-58.59090909090909" y="-120.11111111111111" type="line"/>
      <point x="157.05353535353535" y="-16.701010101010105"/>
      <point x="243.2878787878788" y="235.1787878787879"/>
      <point x="243.2878787878788" y="444.8848484848485" type="curve" smooth="yes"/>
      <point x="243.2878787878788" y="580.7444444444444"/>
      <point x="206.40303030303033" y="688.4656565656566"/>
      <point x="127.38888888888891" y="743.730303030303" type="curve"/>
      <point x="120.82929292929292" y="715.0868686868687" type="line"/>
      <point x="174.64848484848486" y="667.5787878787879"/>
      <point x="201.91010101010102" y="560.4989898989899"/>
      <point x="201.91010101010102" y="453.14444444444445" type="curve" smooth="yes"/>
      <point x="201.91010101010102" y="284.6444444444445"/>
      <point x="135.04545454545456" y="27.458585858585856"/>
      <point x="-52.03131313131313" y="-91.02424242424242" type="curve"/>
    </contour>
  </outline>
</glyph>
<glyph name="asterisk" format="2">
  <advance width="383.6929292929293"/>
  <unicode hex="002A"/>
  <outline>
    <contour>
      <point x="248.05858585858587" y="393.3515151515151" type="line"/>
      <point x="266.2414141414141" y="557.0030303030303" type="line"/>
      <point x="375.2151515151515" y="447.6575757575758" type="line"/>
      <point x="403.76363636363635" y="485.53737373737374" type="line"/>
      <point x="273.779797979798" y="574.6818181818181" type="line"/>
      <point x="429.2020202020202" y="601.810101010101" type="line"/>
      <point x="418.1818181818182" y="650.1737373737375" type="line"/>
      <point x="274.0161616161616" y="593.560606060606" type="line"/>
      <point x="322.80606060606056" y="750.7292929292929" type="line"/>
      <point x="274.71818181818185" y="761.060606060606" type="line"/>
      <point x="255.95454545454547" y="597.6181818181818" type="line"/>
      <point x="147.90404040404042" y="710.2525252525253" type="line"/>
      <point x="117.64646464646465" y="670.0848484848485" type="line"/>
      <point x="247.07474747474745" y="580.1515151515151" type="line"/>
      <point x="92.28585858585859" y="552.3121212121212" type="line"/>
      <point x="104.3040404040404" y="505.02424242424246" type="line"/>
      <point x="247.25959595959594" y="561.350505050505" type="line"/>
      <point x="198.89494949494951" y="404.10404040404046" type="line"/>
    </contour>
  </outline>
</glyph>
<glyph name="plus" format="2">
  <advance width="509.8666666666667"/>
  <unicode hex="002B"/>
  <outline>
    <contour>
      <point x="242.90606060606063" y="143.0" type="line"/>
      <point x="278.1161616161616" y="143.0" type="line"/>
      <point x="278.1161616161616" y="340.1848484848485" type="line"/>
      <point x="456.7" y="340.1848484848485" type="line"/>
      <point x="456.7" y="374.6050505050505" type="line"/>
      <point x="278.1161616161616" y="374.6050505050505" type="line"/>
      <point x="278.1161616161616" y="572.0" type="line"/>
      <point x="242.90606060606063" y="572.0" type="line"/>
      <point x="242.90606060606063" y="374.6050505050505" type="line"/>
      <point x="64.74444444444445" y="374.6050505050505" type="line"/>
      <point x="64.74444444444445" y="340.1848484848485" type="line"/>
      <point x="242.90606060606063" y="340.1848484848485" type="line"/>
    </contour>
  </outline>
</glyph>
<glyph name="comma" format="2">
  <advance width="182.49191919191918"/>
  <unicode hex="002C"/>
  <outline>
    <contour>
      <point x="-42.81414141414141" y="-140.6949494949495" type="line"/>
      <point x="54.15050505050505" y="-116.1939393939394"/>
      <point x="81.32121212121213" y="-51.091919191919196"/>
      <point x="81.32121212121213" y="21.264646464646468" type="curve" smooth="yes"/>
      <point x="81.32121212121213" y="60.736363636363635"/>
      <point x="63.276767676767676" y="84.43333333333334"/>
      <point x="39.310101010101015" y="84.43333333333334" type="curve" smooth="yes"/>
      <point x="16.651515151515156" y="84.43333333333334"/>
      <point x="3.1444444444444453" y="69.08282828282829"/>
      <point x="3.1444444444444453" y="47.41616161616162" type="curve" smooth="yes"/>
      <point x="3.1444444444444453" y="12.06060606060606"/>
      <point x="42.95252525252525" y="12.692929292929293"/>
      <point x="42.95252525252525" y="-21.497979797979795" type="curve" smooth="yes"/>
      <point x="42.95252525252525" y="-60.9979797979798"/>
      <point x="16.953535353535358" y="-98.0868686868687"/>
      <point x="-43.59595959595959" y="-115.81717171717172" type="curve"/>
    </contour>
  </outline>
</glyph>
<glyph name="hyphen" format="2">
  <advance width="286.1111111111111"/>
  <unicode hex="002D"/>
  <outline>
    <contour>
      <point x="19.9020202020202" y="256.40202020202025" type="line"/>
      <point x="259.67979797979797" y="256.40202020202025" type="line"/>
      <point x="267.379797979798" y="292.48484848484844" type="line"/>
      <point x="27.602020202020203" y="292.48484848484844" type="line"/>
    </contour>
  </outline>
</glyph>
<glyph name="period" format="2">
  <advance width="182.49191919191918"/>
  <unicode hex="002E"/>
  <outline>
    <contour>
      <point x="40.852525252525254" y="-5.925252525252525" type="curve" smooth="yes"/>
      <point x="60.68484848484849" y="-5.925252525252525"/>
      <point x="80.98080808080809" y="10.674747474747475"/>
      <point x="80.98080808080809" y="51.06767676767678" type="curve" smooth="yes"/>
      <point x="80.98080808080809" y="73.81212121212121"/>
      <point x="67.51313131313131" y="84.43434343434343"/>
      <point x="50.21515151515152" y="84.43434343434343" type="curve" smooth="yes"/>
      <point x="28.01212121212121" y="84.43434343434343"/>
      <point x="8.511111111111113" y="64.40505050505053"/>
      <point x="8.511111111111113" y="28.996969696969696" type="curve" smooth="yes"/>
      <point x="8.511111111111113" y="5.61919191919192"/>
      <point x="21.113131313131316" y="-5.925252525252525"/>
    </contour>
  </outline>
</glyph>
<glyph name="slash" format="2">
  <advance width="265.94444444444446"/>
  <unicode hex="002F"/>
  <outline>
    <contour>
      <point x="-80.24747474747475" y="-121.0" type="line"/>
      <point x="-45.31212121212121" y="-121.0" type="line"/>
      <point x="345.1909090909091" y="760.0" type="line"/>
      <point x="309.1020202020202" y="760.0" type="line"/>
    </contour>
  </outline>
</glyph>
<glyph name="zero" format="2">
  <advance width="488.4262626262627"/>
  <unicode hex="0030"/>
  <outline>
    <contour>
      <point x="193.12121212121212" y="-11.0" type="curve" smooth="yes"/>
      <point x="396.6494949494949" y="-11.0"/>
      <point x="472.00505050505046" y="298.06666666666666"/>
      <point x="472.00505050505046" y="497.6616161616161" type="curve" smooth="yes"/>
      <point x="472.00505050505046" y="656.2818181818182"/>
      <point x="408.469696969697" y="723.6353535353535"/>
      <point x="319.25454545454545" y="723.6353535353535" type="curve" smooth="yes"/>
      <point x="126.46868686868686" y="723.6353535353535"/>
      <point x="41.25454545454546" y="423.82020202020203"/>
      <point x="41.25454545454546" y="217.31212121212124" type="curve" smooth="yes"/>
      <point x="41.25454545454546" y="67.5959595959596"/>
      <point x="98.60606060606061" y="-11.0"/>
    </contour>
    <contour>
      <point x="197.6020202020202" y="20.285858585858584" type="curve" smooth="yes"/>
      <point x="124.75757575757576" y="20.285858585858584"/>
      <point x="83.03535353535355" y="84.85454545454546"/>
      <point x="83.03535353535355" y="212.78080808080807" type="curve" smooth="yes"/>
      <point x="83.03535353535355" y="395.8555555555555"/>
      <point x="154.07474747474748" y="692.850505050505"/>
      <point x="315.3454545454545" y="692.850505050505" type="curve" smooth="yes"/>
      <point x="385.56767676767674" y="692.850505050505"/>
      <point x="430.30202020202023" y="634.7686868686868"/>
      <point x="430.30202020202023" y="498.73030303030305" type="curve" smooth="yes"/>
      <point x="430.30202020202023" y="322.059595959596"/>
      <point x="364.8606060606061" y="20.285858585858584"/>
    </contour>
  </outline>
</glyph>
<glyph name="one" format="2">
  <advance width="488.4262626262627"/>
  <unicode hex="0031"/>
  <outline>
    <contour>
      <point x="40.86464646464647" y="0.0" type="line"/>
      <point x="341.0262626262626" y="0.0" type="line"/>
      <point x="346.8747474747475" y="24.58888888888889" type="line"/>
      <point x="272.6666666666667" y="24.58888888888889" type="line" smooth="yes"/>
      <point x="236.32929292929293" y="24.58888888888889"/>
      <point x="225.78383838383837" y="28.724242424242426"/>
      <point x="225.78383838383837" y="51.196969696969695" type="curve" smooth="yes"/>
      <point x="225.78383838383837" y="60.846464646464646"/>
      <point x="228.07272727272726" y="76.37070707070707"/>
      <point x="231.67171717171715" y="93.36363636363636" type="curve" smooth="yes"/>
      <point x="364.01010101010104" y="718.0" type="line"/>
      <point x="344.44242424242424" y="718.0" type="line"/>
      <point x="283.7808080808081" y="674.7454545454545" type="line" smooth="yes"/>
      <point x="214.2808080808081" y="624.379797979798"/>
      <point x="175.0060606060606" y="604.6242424242424"/>
      <point x="132.5949494949495" y="594.4888888888888" type="curve"/>
      <point x="132.51717171717172" y="580.2686868686868"/>
      <point x="137.05959595959595" y="567.720202020202"/>
      <point x="159.57676767676767" y="567.720202020202" type="curve" smooth="yes"/>
      <point x="192.63232323232322" y="567.720202020202"/>
      <point x="236.63232323232324" y="600.7595959595959"/>
      <point x="312.12525252525256" y="666.9929292929293" type="curve"/>
      <point x="313.8949494949495" y="666.9929292929293" type="line"/>
      <point x="305.85555555555555" y="636.4020202020201"/>
      <point x="292.6434343434343" y="581.0101010101009"/>
      <point x="271.74646464646463" y="481.2333333333333" type="curve" smooth="yes"/>
      <point x="189.09898989898988" y="93.20101010101011" type="line" smooth="yes"/>
      <point x="175.65353535353535" y="29.65050505050505"/>
      <point x="163.66464646464644" y="24.58888888888889"/>
      <point x="113.24545454545455" y="24.58888888888889" type="curve" smooth="yes"/>
      <point x="46.501010101010095" y="24.58888888888889" type="line"/>
    </contour>
  </outline>
</glyph>
<glyph name="two" format="2">
  <advance width="488.4262626262627"/>
  <unicode hex="0032"/>
  <outline>
    <contour>
      <point x="-4.116161616161616" y="0.0" type="line"/>
      <point x="362.6242424242424" y="0.0" type="line"/>
      <point x="392.169696969697" y="130.5080808080808" type="line"/>
      <point x="367.81414141414143" y="130.5080808080808" type="line"/>
      <point x="359.0535353535353" y="99.77373737373738" type="line" smooth="yes"/>
      <point x="343.9171717171717" y="47.48686868686869"/>
      <point x="336.1242424242424" y="36.35555555555556"/>
      <point x="279.4191919191919" y="36.35555555555556" type="curve" smooth="yes"/>
      <point x="41.6989898989899" y="36.35555555555556" type="line"/>
      <point x="265.5959595959596" y="258.4878787878788" type="line" smooth="yes"/>
      <point x="393.6272727272728" y="384.14747474747475"/>
      <point x="448.02525252525254" y="469.5353535353536"/>
      <point x="448.02525252525254" y="575.1303030303031" type="curve" smooth="yes"/>
      <point x="448.02525252525254" y="665.2929292929293"/>
      <point x="390.52525252525254" y="724.0"/>
      <point x="289.4242424242425" y="724.0" type="curve" smooth="yes"/>
      <point x="175.90303030303028" y="724.0"/>
      <point x="114.04040404040403" y="648.9909090909091"/>
      <point x="114.04040404040403" y="588.6565656565657" type="curve" smooth="yes"/>
      <point x="114.04040404040403" y="564.5050505050505"/>
      <point x="127.99595959595959" y="554.6161616161617"/>
      <point x="148.48686868686866" y="554.6161616161617" type="curve"/>
      <point x="151.0888888888889" y="632.9898989898991"/>
      <point x="200.34646464646465" y="693.8525252525253"/>
      <point x="287.630303030303" y="693.8525252525253" type="curve" smooth="yes"/>
      <point x="361.17171717171715" y="693.8525252525253"/>
      <point x="405.02828282828284" y="646.7828282828283"/>
      <point x="405.02828282828284" y="573.6474747474747" type="curve" smooth="yes"/>
      <point x="405.02828282828284" y="477.32525252525255"/>
      <point x="361.5656565656566" y="398.17575757575753"/>
      <point x="237.74040404040403" y="274.03636363636366" type="curve" smooth="yes"/>
      <point x="7.195959595959596" y="43.94646464646465" type="line"/>
    </contour>
  </outline>
</glyph>
<glyph name="three" format="2">
  <advance width="488.4262626262627"/>
  <unicode hex="0033"/>
  <outline>
    <contour>
      <point x="168.6040404040404" y="-10.0" type="curve" smooth="yes"/>
      <point x="295.5646464646465" y="-10.0"/>
      <point x="395.18888888888887" y="64.1222222222222"/>
      <point x="395.18888888888887" y="226.20000000000002" type="curve" smooth="yes"/>
      <point x="395.18888888888887" y="310.420202020202"/>
      <point x="337.67373737373737" y="365.97474747474746"/>
      <point x="273.93636363636364" y="375.0565656565656" type="curve"/>
      <point x="391.5707070707071" y="394.2232323232323"/>
      <point x="448.02222222222224" y="478.54141414141407"/>
      <point x="448.02222222222224" y="577.3434343434344" type="curve" smooth="yes"/>
      <point x="448.02222222222224" y="666.2989898989899"/>
      <point x="384.38282828282826" y="724.0"/>
      <point x="295.05555555555554" y="724.0" type="curve" smooth="yes"/>
      <point x="189.7131313131313" y="724.0"/>
      <point x="117.24949494949493" y="656.8020202020202"/>
      <point x="117.24949494949493" y="575.6161616161617" type="curve" smooth="yes"/>
      <point x="117.24949494949493" y="548.089898989899"/>
      <point x="133.67979797979797" y="536.3969696969697"/>
      <point x="152.15353535353535" y="536.3969696969697" type="curve"/>
      <point x="155.75959595959594" y="619.5717171717172"/>
      <point x="190.97777777777782" y="693.8525252525253"/>
      <point x="292.81919191919195" y="693.8525252525253" type="curve" smooth="yes"/>
      <point x="362.68181818181824" y="693.8525252525253"/>
      <point x="404.96868686868686" y="645.5040404040404"/>
      <point x="404.96868686868686" y="577.0353535353536" type="curve" smooth="yes"/>
      <point x="404.96868686868686" y="457.91818181818184"/>
      <point x="320.35555555555555" y="390.27272727272725"/>
      <point x="215.03434343434344" y="390.27272727272725" type="curve" smooth="yes"/>
      <point x="185.23434343434343" y="390.27272727272725" type="line"/>
      <point x="176.88787878787878" y="359.83535353535353" type="line"/>
      <point x="214.72323232323234" y="359.83535353535353" type="line" smooth="yes"/>
      <point x="299.67171717171715" y="359.83535353535353"/>
      <point x="351.7111111111111" y="300.8040404040404"/>
      <point x="351.7111111111111" y="223.75656565656567" type="curve" smooth="yes"/>
      <point x="351.7111111111111" y="87.76464646464646"/>
      <point x="274.6808080808081" y="21.20808080808081"/>
      <point x="171.82020202020203" y="21.20808080808081" type="curve" smooth="yes"/>
      <point x="76.9151515151515" y="21.20808080808081"/>
      <point x="40.53939393939394" y="71.54848484848486"/>
      <point x="40.77272727272727" y="141.11212121212122" type="curve"/>
      <point x="20.569696969696967" y="141.11212121212122"/>
      <point x="5.054545454545454" y="126.82020202020203"/>
      <point x="5.054545454545454" y="103.50909090909092" type="curve" smooth="yes"/>
      <point x="5.054545454545454" y="47.03636363636364"/>
      <point x="50.41919191919192" y="-10.0"/>
    </contour>
  </outline>
</glyph>
<glyph name="four" format="2">
  <advance width="488.4262626262627"/>
  <unicode hex="0034"/>
  <outline>
    <contour>
      <point x="115.91313131313132" y="0.0" type="line"/>
      <point x="393.54848484848486" y="0.0" type="line"/>
      <point x="399.47474747474746" y="24.58888888888889" type="line"/>
      <point x="351.25757575757575" y="24.58888888888889" type="line" smooth="yes"/>
      <point x="312.00404040404044" y="24.58888888888889"/>
      <point x="301.4575757575758" y="29.38080808080808"/>
      <point x="301.4575757575758" y="55.32121212121212" type="curve" smooth="yes"/>
      <point x="301.4575757575758" y="63.71010101010101"/>
      <point x="303.7464646464647" y="77.78787878787878"/>
      <point x="306.53434343434344" y="91.0929292929293" type="curve" smooth="yes"/>
      <point x="438.1848484848485" y="714.0" type="line"/>
      <point x="393.04848484848486" y="714.0" type="line"/>
      <point x="11.653535353535352" y="231.9060606060606" type="line"/>
      <point x="6.592929292929293" y="210.4929292929293" type="line"/>
      <point x="453.05252525252524" y="210.4929292929293" type="line"/>
      <point x="460.69292929292925" y="241.6020202020202" type="line"/>
      <point x="47.58383838383839" y="241.6020202020202" type="line"/>
      <point x="52.11010101010101" y="235.31818181818184" type="line"/>
      <point x="316.6969696969697" y="571.760606060606" type="line" smooth="yes"/>
      <point x="342.0060606060606" y="603.6636363636363"/>
      <point x="377.7979797979798" y="649.5040404040404"/>
      <point x="391.73939393939395" y="671.8404040404041" type="curve"/>
      <point x="376.7040404040404" y="618.7959595959596"/>
      <point x="364.0080808080808" y="561.8656565656566"/>
      <point x="349.93333333333334" y="495.9878787878788" type="curve" smooth="yes"/>
      <point x="264.9444444444445" y="92.01919191919193" type="line" smooth="yes"/>
      <point x="252.44343434343435" y="31.514141414141417"/>
      <point x="240.85252525252523" y="24.58888888888889"/>
      <point x="191.77171717171717" y="24.58888888888889" type="curve" smooth="yes"/>
      <point x="121.54949494949496" y="24.58888888888889" type="line"/>
    </contour>
  </outline>
</glyph>
<glyph name="five" format="2">
  <advance width="488.4262626262627"/>
  <unicode hex="0035"/>
  <outline>
    <contour>
      <point x="174.17373737373737" y="-10.0" type="curve" smooth="yes"/>
      <point x="319.5040404040404" y="-10.0"/>
      <point x="406.27272727272725" y="99.99090909090908"/>
      <point x="406.27272727272725" y="242.51717171717172" type="curve" smooth="yes"/>
      <point x="406.27272727272725" y="357.0858585858586"/>
      <point x="337.7" y="420.330303030303"/>
      <point x="235.12121212121212" y="420.330303030303" type="curve" smooth="yes"/>
      <point x="198.14848484848486" y="420.330303030303"/>
      <point x="168.04040404040407" y="411.4080808080808"/>
      <point x="149.73838383838384" y="404.4080808080808" type="curve"/>
      <point x="230.8717171717172" y="677.5666666666667" type="line"/>
      <point x="393.3949494949495" y="677.5666666666667" type="line" smooth="yes"/>
      <point x="427.3808080808081" y="677.5666666666667"/>
      <point x="432.5767676767677" y="671.4262626262627"/>
      <point x="432.5767676767677" y="655.5868686868687" type="curve" smooth="yes"/>
      <point x="432.5767676767677" y="648.320202020202"/>
      <point x="430.210101010101" y="627.529292929293"/>
      <point x="426.479797979798" y="596.1919191919192" type="curve"/>
      <point x="450.8353535353536" y="596.1919191919192" type="line"/>
      <point x="476.41515151515154" y="714.0" type="line"/>
      <point x="210.64040404040406" y="714.0" type="line"/>
      <point x="109.43535353535353" y="375.42929292929296" type="line"/>
      <point x="125.7151515151515" y="367.1222222222222" type="line"/>
      <point x="155.24444444444444" y="378.9888888888889"/>
      <point x="178.60505050505049" y="389.1222222222222"/>
      <point x="228.7232323232323" y="389.1222222222222" type="curve" smooth="yes"/>
      <point x="310.9858585858586" y="389.1222222222222"/>
      <point x="363.0070707070707" y="334.6656565656566"/>
      <point x="363.0070707070707" y="240.95454545454547" type="curve" smooth="yes"/>
      <point x="363.0070707070707" y="101.74747474747475"/>
      <point x="281.28282828282823" y="21.20808080808081"/>
      <point x="177.3171717171717" y="21.20808080808081" type="curve" smooth="yes"/>
      <point x="92.45858585858586" y="21.20808080808081"/>
      <point x="57.16262626262627" y="77.11515151515152"/>
      <point x="56.8959595959596" y="145.37070707070706" type="curve"/>
      <point x="31.782828282828284" y="145.37070707070706"/>
      <point x="21.41212121212121" y="130.79999999999998"/>
      <point x="21.41212121212121" y="108.74646464646464" type="curve" smooth="yes"/>
      <point x="21.41212121212121" y="57.210101010101006"/>
      <point x="63.87373737373737" y="-10.0"/>
    </contour>
  </outline>
</glyph>
<glyph name="six" format="2">
  <advance width="488.4262626262627"/>
  <unicode hex="0036"/>
  <outline>
    <contour>
      <point x="221.25353535353534" y="-10.0" type="curve" smooth="yes"/>
      <point x="356.4686868686869" y="-10.0"/>
      <point x="426.889898989899" y="119.4909090909091"/>
      <point x="426.889898989899" y="261.4575757575758" type="curve" smooth="yes"/>
      <point x="426.889898989899" y="352.9707070707071"/>
      <point x="377.2383838383838" y="429.19494949494947"/>
      <point x="275.44141414141416" y="429.19494949494947" type="curve" smooth="yes"/>
      <point x="211.22323232323234" y="429.19494949494947"/>
      <point x="157.8969696969697" y="400.3222222222222"/>
      <point x="123.82121212121211" y="370.05151515151516" type="curve"/>
      <point x="160.29494949494952" y="560.6868686868687"/>
      <point x="260.3646464646465" y="694.1989898989899"/>
      <point x="367.0323232323232" y="694.1989898989899" type="curve" smooth="yes"/>
      <point x="432.98383838383836" y="694.1989898989899"/>
      <point x="451.6212121212121" y="645.5202020202021"/>
      <point x="451.3878787878788" y="584.9444444444445" type="curve"/>
      <point x="478.1343434343434" y="584.9444444444445"/>
      <point x="490.359595959596" y="602.4121212121212"/>
      <point x="490.359595959596" y="623.3363636363637" type="curve" smooth="yes"/>
      <point x="490.359595959596" y="671.9121212121212"/>
      <point x="450.1393939393939" y="724.0"/>
      <point x="371.439393939394" y="724.0" type="curve" smooth="yes"/>
      <point x="201.27474747474747" y="724.0"/>
      <point x="65.56767676767676" y="493.1040404040404"/>
      <point x="65.56767676767676" y="216.60808080808079" type="curve" smooth="yes"/>
      <point x="65.56767676767676" y="58.56868686868687"/>
      <point x="130.44141414141413" y="-10.0"/>
    </contour>
    <contour>
      <point x="223.46969696969697" y="21.052525252525253" type="curve" smooth="yes"/>
      <point x="151.78383838383837" y="21.052525252525253"/>
      <point x="106.46464646464646" y="85.61515151515151"/>
      <point x="106.46464646464646" y="208.92626262626263" type="curve" smooth="yes"/>
      <point x="106.46464646464646" y="242.9010101010101"/>
      <point x="108.52424242424243" y="282.04040404040404"/>
      <point x="117.46969696969698" y="331.3818181818182" type="curve"/>
      <point x="160.8252525252525" y="372.17171717171715"/>
      <point x="215.0181818181818" y="398.83535353535353"/>
      <point x="270.6545454545454" y="398.83535353535353" type="curve" smooth="yes"/>
      <point x="340.46666666666664" y="398.83535353535353"/>
      <point x="384.6848484848485" y="343.76969696969695"/>
      <point x="384.6848484848485" y="259.2868686868687" type="curve" smooth="yes"/>
      <point x="384.6848484848485" y="133.3909090909091"/>
      <point x="322.1383838383838" y="21.052525252525253"/>
    </contour>
  </outline>
</glyph>
<glyph name="seven" format="2">
  <advance width="488.4262626262627"/>
  <unicode hex="0037"/>
  <outline>
    <contour>
      <point x="118.36363636363637" y="0.0" type="line"/>
      <point x="156.55454545454546" y="0.0" type="line"/>
      <point x="508.47070707070714" y="694.5818181818182" type="line"/>
      <point x="512.7383838383838" y="714.0" type="line"/>
      <point x="137.05858585858587" y="714.0" type="line"/>
      <point x="98.65454545454546" y="566.7969696969698" type="line"/>
      <point x="123.01010101010101" y="566.7969696969698" type="line"/>
      <point x="141.37070707070706" y="629.3242424242425" type="line" smooth="yes"/>
      <point x="153.65353535353535" y="670.8070707070707"/>
      <point x="162.0070707070707" y="677.6444444444445"/>
      <point x="201.45454545454547" y="677.6444444444445" type="curve" smooth="yes"/>
      <point x="466.3454545454546" y="677.6444444444445" type="line"/>
    </contour>
  </outline>
</glyph>
<glyph name="eight" format="2">
  <advance width="488.4262626262627"/>
  <unicode hex="0038"/>
  <outline>
    <contour>
      <point x="212.4686868686869" y="-10.0" type="curve" smooth="yes"/>
      <point x="327.5171717171717" y="-10.0"/>
      <point x="425.8040404040404" y="56.28484848484849"/>
      <point x="425.8040404040404" y="192.93030303030304" type="curve" smooth="yes"/>
      <point x="425.8040404040404" y="276.22121212121215"/>
      <point x="382.01010101010104" y="330.56363636363636"/>
      <point x="291.8636363636364" y="377.4030303030303" type="curve"/>
      <point x="403.92020202020205" y="419.43030303030304"/>
      <point x="477.65555555555557" y="478.1"/>
      <point x="477.65555555555557" y="580.7777777777778" type="curve" smooth="yes"/>
      <point x="477.65555555555557" y="660.7363636363636"/>
      <point x="420.1515151515152" y="724.0"/>
      <point x="313.81515151515146" y="724.0" type="curve" smooth="yes"/>
      <point x="180.92323232323233" y="724.0"/>
      <point x="113.88080808080808" y="635.9343434343434"/>
      <point x="113.88080808080808" y="541.8030303030304" type="curve" smooth="yes"/>
      <point x="113.88080808080808" y="473.1787878787879"/>
      <point x="146.71414141414144" y="422.57676767676764"/>
      <point x="219.52323232323232" y="377.15959595959595" type="curve"/>
      <point x="106.34040404040405" y="333.5040404040404"/>
      <point x="18.786868686868686" y="266.4434343434344"/>
      <point x="18.786868686868686" y="152.97676767676768" type="curve" smooth="yes"/>
      <point x="18.786868686868686" y="59.24747474747475"/>
      <point x="86.83030303030303" y="-10.0"/>
    </contour>
    <contour>
      <point x="212.94949494949498" y="20.013131313131314" type="curve" smooth="yes"/>
      <point x="113.17676767676768" y="20.013131313131314"/>
      <point x="60.277777777777786" y="74.73737373737374"/>
      <point x="60.277777777777786" y="153.28484848484848" type="curve" smooth="yes"/>
      <point x="60.277777777777786" y="255.57272727272726"/>
      <point x="144.1282828282828" y="323.67272727272723"/>
      <point x="247.9878787878788" y="359.9818181818182" type="curve"/>
      <point x="344.3454545454545" y="311.5636363636363"/>
      <point x="384.369696969697" y="268.87777777777774"/>
      <point x="384.369696969697" y="186.26363636363638" type="curve" smooth="yes"/>
      <point x="384.369696969697" y="78.24747474747474"/>
      <point x="310.8878787878788" y="20.013131313131314"/>
    </contour>
    <contour>
      <point x="263.05252525252524" y="394.3121212121212" type="curve"/>
      <point x="183.1282828282828" y="439.0363636363636"/>
      <point x="155.6050505050505" y="481.879797979798"/>
      <point x="155.6050505050505" y="544.2919191919191" type="curve" smooth="yes"/>
      <point x="155.6050505050505" y="625.7343434343434"/>
      <point x="216.0767676767677" y="693.7747474747475"/>
      <point x="311.8525252525252" y="693.7747474747475" type="curve" smooth="yes"/>
      <point x="398.26060606060605" y="693.7747474747475"/>
      <point x="437.4939393939394" y="641.709090909091"/>
      <point x="437.4939393939394" y="579.3707070707071" type="curve" smooth="yes"/>
      <point x="437.4939393939394" y="494.3242424242424"/>
      <point x="384.7111111111111" y="440.06666666666666"/>
    </contour>
  </outline>
</glyph>
<glyph name="nine" format="2">
  <advance width="488.4262626262627"/>
  <unicode hex="0039"/>
  <outline>
    <contour>
      <point x="174.84444444444443" y="-10.0" type="curve" smooth="yes"/>
      <point x="353.9070707070707" y="-10.0"/>
      <point x="457.7737373737374" y="280.29999999999995"/>
      <point x="457.7737373737374" y="519.1262626262626" type="curve" smooth="yes"/>
      <point x="457.7737373737374" y="655.9858585858586"/>
      <point x="390.9080808080808" y="724.0"/>
      <point x="299.0535353535353" y="724.0" type="curve" smooth="yes"/>
      <point x="172.9959595959596" y="724.0"/>
      <point x="81.23636363636363" y="613.7575757575758"/>
      <point x="81.23636363636363" y="451.5686868686868" type="curve" smooth="yes"/>
      <point x="81.23636363636363" y="357.63535353535354"/>
      <point x="134.55656565656565" y="283.9292929292929"/>
      <point x="236.0434343434343" y="283.9292929292929" type="curve" smooth="yes"/>
      <point x="302.0656565656565" y="283.9292929292929"/>
      <point x="365.43939393939394" y="322.57575757575756"/>
      <point x="398.289898989899" y="358.67878787878783" type="curve"/>
      <point x="363.16767676767677" y="159.77676767676766"/>
      <point x="276.1151515151515" y="20.013131313131314"/>
      <point x="177.06363636363636" y="20.013131313131314" type="curve" smooth="yes"/>
      <point x="102.38787878787879" y="20.013131313131314"/>
      <point x="82.34242424242424" y="63.52929292929293"/>
      <point x="82.36363636363637" y="125.57272727272728" type="curve"/>
      <point x="59.46767676767676" y="125.57272727272728"/>
      <point x="48.709090909090904" y="110.34848484848484"/>
      <point x="48.709090909090904" y="88.35656565656566" type="curve" smooth="yes"/>
      <point x="48.709090909090904" y="43.435353535353535"/>
      <point x="76.45757575757575" y="-10.0"/>
    </contour>
    <contour>
      <point x="241.5020202020202" y="315.0595959595959" type="curve" smooth="yes"/>
      <point x="165.54949494949494" y="315.0595959595959"/>
      <point x="123.65353535353536" y="374.67373737373737"/>
      <point x="123.65353535353536" y="451.2212121212121" type="curve" smooth="yes"/>
      <point x="123.65353535353536" y="589.3282828282828"/>
      <point x="195.23838383838384" y="692.9474747474748"/>
      <point x="297.89494949494946" y="692.9474747474748" type="curve" smooth="yes"/>
      <point x="363.9909090909091" y="692.9474747474748"/>
      <point x="416.76363636363635" y="639.0272727272728"/>
      <point x="416.76363636363635" y="519.7989898989899" type="curve" smooth="yes"/>
      <point x="416.76363636363635" y="492.5676767676768"/>
      <point x="413.83535353535353" y="448.3959595959596"/>
      <point x="406.83232323232323" y="404.52222222222224" type="curve"/>
      <point x="372.440404040404" y="362.8929292929293"/>
      <point x="310.640404040404" y="315.0595959595959"/>
    </contour>
  </outline>
</glyph>
<glyph name="colon" format="2">
  <advance width="200.42525252525255"/>
  <unicode hex="003A"/>
  <outline>
    <contour>
      <point x="143.1040404040404" y="450.7949494949495" type="curve" smooth="yes"/>
      <point x="162.93636363636364" y="450.7949494949495"/>
      <point x="183.15454545454546" y="467.3949494949495"/>
      <point x="183.15454545454546" y="507.250505050505" type="curve" smooth="yes"/>
      <point x="183.15454545454546" y="530.5323232323233"/>
      <point x="169.76464646464646" y="541.1545454545454"/>
      <point x="152.4666666666667" y="541.1545454545454" type="curve" smooth="yes"/>
      <point x="130.26363636363638" y="541.1545454545454"/>
      <point x="110.84040404040404" y="521.0474747474747"/>
      <point x="110.84040404040404" y="486.1767676767677" type="curve" smooth="yes"/>
      <point x="110.84040404040404" y="462.339393939394"/>
      <point x="123.36464646464648" y="450.7949494949495"/>
    </contour>
    <contour>
      <point x="46.35454545454546" y="-5.925252525252525" type="curve" smooth="yes"/>
      <point x="66.18686868686869" y="-5.925252525252525"/>
      <point x="86.48282828282828" y="10.674747474747475"/>
      <point x="86.48282828282828" y="50.530303030303024" type="curve" smooth="yes"/>
      <point x="86.48282828282828" y="73.81212121212121"/>
      <point x="73.01515151515152" y="84.43434343434343"/>
      <point x="55.7949494949495" y="84.43434343434343" type="curve" smooth="yes"/>
      <point x="33.51414141414142" y="84.43434343434343"/>
      <point x="14.09090909090909" y="64.40505050505053"/>
      <point x="14.09090909090909" y="29.534343434343434" type="curve" smooth="yes"/>
      <point x="14.09090909090909" y="5.61919191919192"/>
      <point x="26.692929292929293" y="-5.925252525252525"/>
    </contour>
  </outline>
</glyph>
<glyph name="semicolon" format="2">
  <advance width="200.34747474747476"/>
  <unicode hex="003B"/>
  <outline>
    <contour>
      <point x="-38.82727272727273" y="-140.6949494949495" type="line"/>
      <point x="58.05959595959597" y="-116.1939393939394"/>
      <point x="85.3080808080808" y="-51.091919191919196"/>
      <point x="85.3080808080808" y="21.264646464646468" type="curve" smooth="yes"/>
      <point x="85.3080808080808" y="60.736363636363635"/>
      <point x="67.26363636363637" y="84.43333333333334"/>
      <point x="43.296969696969704" y="84.43333333333334" type="curve" smooth="yes"/>
      <point x="20.716161616161617" y="84.43333333333334"/>
      <point x="7.053535353535356" y="69.16060606060607"/>
      <point x="7.053535353535356" y="47.41616161616162" type="curve" smooth="yes"/>
      <point x="7.053535353535356" y="12.06060606060606"/>
      <point x="46.939393939393945" y="12.692929292929293"/>
      <point x="46.939393939393945" y="-21.497979797979795" type="curve" smooth="yes"/>
      <point x="46.939393939393945" y="-60.9979797979798"/>
      <point x="20.940404040404044" y="-98.0868686868687"/>
      <point x="-39.60909090909091" y="-115.81717171717172" type="curve"/>
    </contour>
    <contour>
      <point x="143.1040404040404" y="450.7949494949495" type="curve" smooth="yes"/>
      <point x="162.85858585858585" y="450.7949494949495"/>
      <point x="183.15454545454546" y="467.3949494949495"/>
      <point x="183.15454545454546" y="507.250505050505" type="curve" smooth="yes"/>
      <point x="183.15454545454546" y="530.5323232323233"/>
      <point x="169.68686868686868" y="541.1545454545454"/>
      <point x="152.4666666666667" y="541.1545454545454" type="curve" smooth="yes"/>
      <point x="130.26363636363638" y="541.1545454545454"/>
      <point x="110.84040404040404" y="521.0474747474747"/>
      <point x="110.84040404040404" y="486.1767676767677" type="curve" smooth="yes"/>
      <point x="110.84040404040404" y="462.339393939394"/>
      <point x="123.36464646464648" y="450.7949494949495"/>
    </contour>
  </outline>
</glyph>
<glyph name="equal" format="2">
  <advance width="509.8666666666667"/>
  <unicode hex="003D"/>
  <outline>
    <contour>
      <point x="66.03131313131314" y="443.1525252525252" type="line"/>
      <point x="454.2040404040404" y="443.1525252525252" type="line"/>
      <point x="454.2040404040404" y="477.65050505050505" type="line"/>
      <point x="66.03131313131314" y="477.65050505050505" type="line"/>
    </contour>
    <contour>
      <point x="66.03131313131314" y="236.63838383838385" type="line"/>
      <point x="454.2040404040404" y="236.63838383838385" type="line"/>
      <point x="454.2040404040404" y="271.1363636363637" type="line"/>
      <point x="66.03131313131314" y="271.1363636363637" type="line"/>
    </contour>
  </outline>
</glyph>
<glyph name="greater" format="2">
  <advance width="509.8666666666667"/>
  <unicode hex="003E"/>
  <outline>
    <contour>
      <point x="64.74444444444445" y="116.09191919191917" type="line"/>
      <point x="456.7" y="343.1515151515151" type="line"/>
      <point x="456.7" y="371.8484848484849" type="line"/>
      <point x="64.74444444444445" y="599.9080808080809" type="line"/>
      <point x="64.74444444444445" y="559.9828282828282" type="line"/>
      <point x="412.3737373737374" y="357.0" type="line"/>
      <point x="64.74444444444445" y="156.0949494949495" type="line"/>
    </contour>
  </outline>
</glyph>
<glyph name="question" format="2">
  <advance width="419.2858585858586"/>
  <unicode hex="003F"/>
  <outline>
    <contour>
      <point x="143.289898989899" y="174.1020202020202" type="line"/>
      <point x="173.16565656565658" y="174.1020202020202" type="line"/>
      <point x="204.97272727272727" y="319.7838383838384" type="line"/>
      <point x="339.16565656565655" y="377.47575757575754"/>
      <point x="431.1040404040404" y="448.9787878787879"/>
      <point x="431.1040404040404" y="575.8373737373737" type="curve" smooth="yes"/>
      <point x="431.1040404040404" y="667.0636363636364"/>
      <point x="372.06060606060606" y="724.0"/>
      <point x="281.59090909090907" y="724.0" type="curve" smooth="yes"/>
      <point x="171.6949494949495" y="724.0"/>
      <point x="114.72929292929292" y="653.6777777777778"/>
      <point x="114.72929292929292" y="584.2020202020202" type="curve" smooth="yes"/>
      <point x="114.72929292929292" y="562.9020202020203"/>
      <point x="125.47070707070708" y="548.4121212121212"/>
      <point x="144.8717171717172" y="548.4121212121212" type="curve"/>
      <point x="151.77575757575755" y="626.4080808080809"/>
      <point x="184.9010101010101" y="693.7747474747475"/>
      <point x="279.5848484848485" y="693.7747474747475" type="curve" smooth="yes"/>
      <point x="343.40202020202025" y="693.7747474747475"/>
      <point x="388.7222222222222" y="648.2060606060606"/>
      <point x="388.7222222222222" y="576.10101010101" type="curve" smooth="yes"/>
      <point x="388.7222222222222" y="463.7242424242424"/>
      <point x="307.3424242424243" y="393.55151515151516"/>
      <point x="173.95353535353536" y="340.25454545454545" type="curve"/>
    </contour>
    <contour>
      <point x="132.94545454545457" y="-5.925252525252525" type="curve" smooth="yes"/>
      <point x="152.85555555555555" y="-5.925252525252525"/>
      <point x="173.0737373737374" y="10.674747474747475"/>
      <point x="173.0737373737374" y="50.530303030303024" type="curve" smooth="yes"/>
      <point x="173.0737373737374" y="73.81212121212121"/>
      <point x="159.6838383838384" y="84.43434343434343"/>
      <point x="142.38585858585859" y="84.43434343434343" type="curve" smooth="yes"/>
      <point x="120.1828282828283" y="84.43434343434343"/>
      <point x="100.75959595959596" y="64.40505050505053"/>
      <point x="100.75959595959596" y="29.534343434343434" type="curve" smooth="yes"/>
      <point x="100.75959595959596" y="5.61919191919192"/>
      <point x="113.2838383838384" y="-5.925252525252525"/>
    </contour>
  </outline>
</glyph>
<glyph name="bracketleft" format="2">
  <advance width="283.3484848484849"/>
  <unicode hex="005B"/>
  <outline>
    <contour>
      <point x="-12.645454545454543" y="-128.0" type="line"/>
      <point x="146.7010101010101" y="-128.0" type="line"/>
      <point x="152.26060606060608" y="-103.4111111111111" type="line"/>
      <point x="94.33535353535353" y="-103.4111111111111" type="line" smooth="yes"/>
      <point x="53.71717171717171" y="-103.4111111111111"/>
      <point x="42.224242424242426" y="-98.69797979797978"/>
      <point x="42.224242424242426" y="-76.72323232323232" type="curve" smooth="yes"/>
      <point x="42.224242424242426" y="-66.7050505050505"/>
      <point x="44.93434343434344" y="-50.395959595959596"/>
      <point x="49.0878787878788" y="-31.70707070707071" type="curve"/>
      <point x="196.4989898989899" y="661.7828282828283" type="line"/>
      <point x="210.36565656565654" y="728.8272727272727"/>
      <point x="222.68989898989898" y="735.4111111111112"/>
      <point x="274.4222222222223" y="735.4111111111112" type="curve" smooth="yes"/>
      <point x="329.2757575757576" y="735.4111111111112" type="line"/>
      <point x="334.9131313131314" y="760.0" type="line"/>
      <point x="175.56666666666666" y="760.0" type="line"/>
    </contour>
  </outline>
</glyph>
<glyph name="bracketright" format="2">
  <advance width="283.3484848484849"/>
  <unicode hex="005D"/>
  <outline>
    <contour>
      <point x="-45.63636363636363" y="-128.0" type="line"/>
      <point x="113.57575757575758" y="-128.0" type="line"/>
      <point x="301.71010101010097" y="760.0" type="line"/>
      <point x="142.44141414141413" y="760.0" type="line"/>
      <point x="136.8040404040404" y="735.4111111111112" type="line"/>
      <point x="194.72929292929294" y="735.4111111111112" type="line" smooth="yes"/>
      <point x="235.269696969697" y="735.4111111111112"/>
      <point x="246.91818181818184" y="730.6979797979798"/>
      <point x="246.91818181818184" y="708.7232323232323" type="curve" smooth="yes"/>
      <point x="246.91818181818184" y="699.4939393939394"/>
      <point x="243.84141414141413" y="682.4737373737373"/>
      <point x="239.97676767676768" y="663.7070707070708" type="curve" smooth="yes"/>
      <point x="92.56565656565657" y="-29.782828282828284" type="line"/>
      <point x="78.69898989898991" y="-96.82727272727273"/>
      <point x="66.37474747474748" y="-103.4111111111111"/>
      <point x="14.854545454545454" y="-103.4111111111111" type="curve" smooth="yes"/>
      <point x="-39.9989898989899" y="-103.4111111111111" type="line"/>
    </contour>
  </outline>
</glyph>
<glyph name="asciicircum" format="2">
  <advance width="509.8666666666667"/>
  <unicode hex="005E"/>
  <outline>
    <contour>
      <point x="55.04949494949495" y="270.51616161616164" type="line"/>
      <point x="93.04141414141414" y="270.51616161616164" type="line"/>
      <point x="259.3" y="663.020202020202" type="line"/>
      <point x="427.4808080808081" y="270.51616161616164" type="line"/>
      <point x="465.47272727272724" y="270.51616161616164" type="line"/>
      <point x="272.3393939393939" y="714.0" type="line"/>
      <point x="245.89595959595957" y="714.0" type="line"/>
    </contour>
  </outline>
</glyph>
<glyph name="underscore" format="2">
  <advance width="423.8222222222222"/>
  <unicode hex="005F"/>
  <outline>
    <contour>
      <point x="-83.02828282828283" y="-120.70101010101011" type="line"/>
      <point x="350.4262626262626" y="-120.70101010101011" type="line"/>
      <point x="357.1232323232323" y="-88.4888888888889" type="line"/>
      <point x="-76.33131313131312" y="-88.4888888888889" type="line"/>
    </contour>
  </outline>
</glyph>
<glyph name="braceleft" format="2">
  <advance width="382.5959595959596"/>
  <unicode hex="007B"/>
  <outline>
    <contour>
      <point x="200.8969696969697" y="-131.15151515151516" type="curve" smooth="yes"/>
      <point x="240.17474747474748" y="-131.15151515151516" type="line"/>
      <point x="246.3121212121212" y="-102.98888888888888" type="line"/>
      <point x="213.1828282828283" y="-102.98888888888888" type="line" smooth="yes"/>
      <point x="172.1888888888889" y="-102.98888888888888"/>
      <point x="153.6020202020202" y="-84.71616161616161"/>
      <point x="153.6020202020202" y="-41.1919191919192" type="curve" smooth="yes"/>
      <point x="153.6020202020202" y="-22.653535353535354"/>
      <point x="156.67878787878792" y="-3.5606060606060597"/>
      <point x="160.83333333333334" y="16.403030303030302" type="curve" smooth="yes"/>
      <point x="194.9717171717172" y="173.9939393939394" type="line" smooth="yes"/>
      <point x="198.83535353535353" y="192.65959595959598"/>
      <point x="201.70101010101013" y="211.58282828282827"/>
      <point x="201.70101010101013" y="229.27070707070703" type="curve" smooth="yes"/>
      <point x="201.70101010101013" y="271.73232323232327"/>
      <point x="181.06969696969696" y="303.4737373737374"/>
      <point x="133.74242424242422" y="312.13535353535354" type="curve"/>
      <point x="133.74242424242422" y="314.98080808080806" type="line"/>
      <point x="200.83333333333331" y="324.90909090909093"/>
      <point x="235.04545454545456" y="364.2838383838384"/>
      <point x="250.33232323232326" y="435.7979797979798" type="curve" smooth="yes"/>
      <point x="288.910101010101" y="616.6292929292929" type="line" smooth="yes"/>
      <point x="308.1363636363636" y="706.439393939394"/>
      <point x="329.5292929292929" y="731.2595959595959"/>
      <point x="392.9030303030303" y="731.2595959595959" type="curve" smooth="yes"/>
      <point x="416.05252525252524" y="731.2595959595959" type="line"/>
      <point x="422.2676767676768" y="760.0" type="line"/>
      <point x="388.95050505050506" y="760.0" type="line" smooth="yes"/>
      <point x="301.7030303030303" y="760.0"/>
      <point x="270.72222222222223" y="725.1595959595959"/>
      <point x="248.4161616161616" y="620.5959595959596" type="curve" smooth="yes"/>
      <point x="209.52727272727276" y="438.5090909090909" type="line" smooth="yes"/>
      <point x="192.39494949494951" y="358.7949494949495"/>
      <point x="148.25252525252526" y="332.9646464646465"/>
      <point x="74.91212121212122" y="329.25555555555553" type="curve"/>
      <point x="69.06363636363636" y="301.0939393939394" type="line"/>
      <point x="134.66262626262625" y="297.8070707070707"/>
      <point x="160.47171717171716" y="276.9989898989899"/>
      <point x="160.47171717171716" y="229.05959595959595" type="curve" smooth="yes"/>
      <point x="160.47171717171716" y="212.75858585858583"/>
      <point x="157.18686868686868" y="193.93737373737375"/>
      <point x="153.1888888888889" y="176.0030303030303" type="curve" smooth="yes"/>
      <point x="119.07272727272729" y="16.975757575757573" type="line" smooth="yes"/>
      <point x="114.55151515151516" y="-4.8969696969696965"/>
      <point x="111.89696969696969" y="-22.857575757575756"/>
      <point x="111.89696969696969" y="-42.01919191919192" type="curve" smooth="yes"/>
      <point x="111.89696969696969" y="-97.80101010101009"/>
      <point x="141.3969696969697" y="-131.15151515151516"/>
    </contour>
  </outline>
</glyph>
<glyph name="bar" format="2">
  <advance width="510.61111111111114"/>
  <unicode hex="007C"/>
  <outline>
    <contour>
      <point x="240.77373737373736" y="-240.0" type="line"/>
      <point x="274.86161616161615" y="-240.0" type="line"/>
      <point x="274.86161616161615" y="760.0" type="line"/>
      <point x="240.77373737373736" y="760.0" type="line"/>
    </contour>
  </outline>
</glyph>
<glyph name="braceright" format="2">
  <advance width="382.5181818181818"/>
  <unicode hex="007D"/>
  <outline>
    <contour>
      <point x="-22.689898989898992" y="-131.22929292929294" type="line"/>
      <point x="10.627272727272727" y="-131.22929292929294" type="line" smooth="yes"/>
      <point x="98.70808080808081" y="-131.22929292929294"/>
      <point x="129.0888888888889" y="-96.02222222222223"/>
      <point x="151.23939393939395" y="8.174747474747475" type="curve" smooth="yes"/>
      <point x="189.97272727272727" y="190.47373737373738" type="line" smooth="yes"/>
      <point x="206.8929292929293" y="270.1878787878788"/>
      <point x="251.32525252525255" y="296.30808080808083"/>
      <point x="324.5878787878788" y="300.0171717171717" type="curve"/>
      <point x="330.5141414141414" y="328.1787878787879" type="line"/>
      <point x="264.9151515151515" y="331.46565656565656"/>
      <point x="239.0282828282828" y="351.98383838383836"/>
      <point x="239.0282828282828" y="400.00101010101014" type="curve" smooth="yes"/>
      <point x="239.0282828282828" y="416.45757575757574"/>
      <point x="242.3909090909091" y="435.04545454545456"/>
      <point x="246.38888888888889" y="452.979797979798" type="curve" smooth="yes"/>
      <point x="280.81616161616165" y="613.5060606060606" type="line" smooth="yes"/>
      <point x="285.259595959596" y="634.9898989898991"/>
      <point x="287.6808080808081" y="652.4838383838385"/>
      <point x="287.6808080808081" y="671.0232323232324" type="curve" smooth="yes"/>
      <point x="287.6808080808081" y="725.6383838383839"/>
      <point x="258.8808080808081" y="760.0"/>
      <point x="199.14747474747475" y="760.0" type="curve" smooth="yes"/>
      <point x="159.4030303030303" y="760.0" type="line"/>
      <point x="153.26565656565657" y="731.8373737373737" type="line"/>
      <point x="186.3949494949495" y="731.8373737373737" type="line" smooth="yes"/>
      <point x="227.38888888888889" y="731.8373737373737"/>
      <point x="245.97575757575757" y="713.720202020202"/>
      <point x="245.97575757575757" y="670.5848484848485" type="curve" smooth="yes"/>
      <point x="245.97575757575757" y="651.2686868686869"/>
      <point x="242.8989898989899" y="632.3313131313132"/>
      <point x="238.74444444444444" y="612.3676767676768" type="curve" smooth="yes"/>
      <point x="204.60606060606062" y="454.8333333333333" type="line" smooth="yes"/>
      <point x="200.74242424242422" y="436.1676767676767"/>
      <point x="197.87676767676766" y="417.4"/>
      <point x="197.87676767676766" y="399.78989898989903" type="curve" smooth="yes"/>
      <point x="197.87676767676766" y="357.3282828282828"/>
      <point x="218.43030303030304" y="325.87676767676766"/>
      <point x="265.75757575757575" y="317.13737373737376" type="curve"/>
      <point x="265.75757575757575" y="314.2141414141414" type="line"/>
      <point x="198.74444444444444" y="304.2858585858586"/>
      <point x="164.45454545454544" y="264.6989898989899"/>
      <point x="149.16767676767677" y="193.26262626262627" type="curve" smooth="yes"/>
      <point x="110.43434343434345" y="11.596969696969698" type="line" smooth="yes"/>
      <point x="91.20808080808081" y="-77.61313131313132"/>
      <point x="70.49292929292929" y="-102.48888888888888"/>
      <point x="7.252525252525251" y="-102.48888888888888" type="curve" smooth="yes"/>
      <point x="-16.55252525252525" y="-102.48888888888888" type="line"/>
    </contour>
  </outline>
</glyph>
<glyph name="asciitilde" format="2">
  <advance width="509.8666666666667"/>
  <unicode hex="007E"/>
  <outline>
    <contour>
      <point x="60.88989898989899" y="275.3808080808081" type="curve"/>
      <point x="96.07474747474748" y="275.3808080808081" type="line"/>
      <point x="108.85353535353535" y="357.31717171717173"/>
      <point x="121.52424242424242" y="403.7212121212121"/>
      <point x="164.96969696969697" y="403.7212121212121" type="curve" smooth="yes"/>
      <point x="200.2868686868687" y="403.7212121212121"/>
      <point x="223.32525252525252" y="374.36161616161615"/>
      <point x="253.3292929292929" y="339.4818181818182" type="curve" smooth="yes"/>
      <point x="287.9555555555556" y="299.16969696969693"/>
      <point x="318.189898989899" y="275.669696969697"/>
      <point x="356.82929292929293" y="275.669696969697" type="curve" smooth="yes"/>
      <point x="434.75353535353537" y="275.669696969697"/>
      <point x="450.8131313131313" y="374.9606060606061"/>
      <point x="460.1545454545454" y="437.4080808080808" type="curve"/>
      <point x="424.33636363636367" y="437.4080808080808" type="line"/>
      <point x="411.78787878787875" y="365.9888888888889"/>
      <point x="400.74949494949493" y="309.6454545454545"/>
      <point x="356.65252525252527" y="309.6454545454545" type="curve" smooth="yes"/>
      <point x="328.72424242424245" y="309.6454545454545"/>
      <point x="304.55151515151516" y="332.1525252525252"/>
      <point x="272.24545454545455" y="369.3333333333333" type="curve" smooth="yes"/>
      <point x="236.63232323232324" y="409.5525252525252"/>
      <point x="208.35454545454544" y="437.6969696969697"/>
      <point x="164.65858585858584" y="437.6969696969697" type="curve" smooth="yes"/>
      <point x="84.86969696969696" y="437.6969696969697"/>
      <point x="72.0929292929293" y="343.54949494949494"/>
    </contour>
  </outline>
</glyph>
<glyph name="twosuperior" format="2">
  <advance width="359.24242424242425"/>
  <unicode hex="00B2"/>
  <outline>
    <contour>
      <point x="63.58888888888889" y="386.4989898989899" type="line"/>
      <point x="325.230303030303" y="386.4989898989899" type="line"/>
      <point x="348.58282828282825" y="483.9141414141414" type="line"/>
      <point x="325.0818181818182" y="483.9141414141414" type="line"/>
      <point x="319.9434343434343" y="467.90404040404036" type="line" smooth="yes"/>
      <point x="307.29393939393935" y="425.44545454545454"/>
      <point x="300.9080808080808" y="417.76464646464643"/>
      <point x="257.90000000000003" y="417.76464646464643" type="curve" smooth="yes"/>
      <point x="121.05858585858587" y="417.76464646464643" type="line"/>
      <point x="224.4838383838384" y="508.9060606060606" type="line" smooth="yes"/>
      <point x="337.6424242424242" y="608.1878787878788"/>
      <point x="372.71111111111117" y="655.368686868687"/>
      <point x="372.71111111111117" y="724.2161616161616" type="curve" smooth="yes"/>
      <point x="372.71111111111117" y="784.0020202020202"/>
      <point x="333.1757575757576" y="823.3434343434343"/>
      <point x="262.84949494949495" y="823.3434343434343" type="curve" smooth="yes"/>
      <point x="176.96969696969697" y="823.3434343434343"/>
      <point x="132.56565656565655" y="758.4929292929294"/>
      <point x="132.56565656565655" y="717.338383838384" type="curve" smooth="yes"/>
      <point x="132.56565656565655" y="696.0080808080809"/>
      <point x="142.62626262626262" y="685.3292929292929"/>
      <point x="165.09292929292928" y="685.3292929292929" type="curve"/>
      <point x="166.57777777777778" y="742.9424242424243"/>
      <point x="197.84242424242424" y="795.4505050505051"/>
      <point x="260.9979797979798" y="795.4505050505051" type="curve" smooth="yes"/>
      <point x="306.64646464646466" y="795.4505050505051"/>
      <point x="333.75050505050507" y="770.070707070707"/>
      <point x="333.75050505050507" y="723.5575757575757" type="curve" smooth="yes"/>
      <point x="333.75050505050507" y="660.5444444444444"/>
      <point x="305.31414141414143" y="617.6404040404041"/>
      <point x="197.54141414141415" y="521.4151515151515" type="curve" smooth="yes"/>
      <point x="68.11212121212121" y="405.48989898989896" type="line"/>
    </contour>
  </outline>
</glyph>
<glyph name="threesuperior" format="2">
  <advance width="359.24242424242425"/>
  <unicode hex="00B3"/>
  <outline>
    <contour>
      <point x="195.26767676767676" y="379.4222222222222" type="curve" smooth="yes"/>
      <point x="291.5646464646465" y="379.4222222222222"/>
      <point x="360.1525252525252" y="437.55757575757576"/>
      <point x="360.1525252525252" y="517.6848484848484" type="curve" smooth="yes"/>
      <point x="360.1525252525252" y="567.0696969696969"/>
      <point x="329.96363636363634" y="600.7141414141414"/>
      <point x="282.65858585858587" y="610.7080808080808" type="curve"/>
      <point x="282.5040404040404" y="613.3989898989898" type="line"/>
      <point x="345.01010101010104" y="625.9808080808081"/>
      <point x="388.41111111111115" y="670.5616161616161"/>
      <point x="388.41111111111115" y="730.0020202020202" type="curve" smooth="yes"/>
      <point x="388.41111111111115" y="783.4444444444445"/>
      <point x="346.5565656565657" y="822.8444444444444"/>
      <point x="273.84040404040405" y="822.8444444444444" type="curve" smooth="yes"/>
      <point x="187.5141414141414" y="822.8444444444444"/>
      <point x="137.17575757575756" y="771.3212121212122"/>
      <point x="137.17575757575756" y="726.3171717171717" type="curve" smooth="yes"/>
      <point x="137.17575757575756" y="703.560606060606"/>
      <point x="149.94545454545457" y="698.5757575757576"/>
      <point x="167.2111111111111" y="698.5757575757576" type="curve"/>
      <point x="174.68686868686868" y="759.6242424242424"/>
      <point x="211.43232323232326" y="794.8737373737374"/>
      <point x="271.81616161616165" y="794.8737373737374" type="curve" smooth="yes"/>
      <point x="317.79494949494955" y="794.8737373737374"/>
      <point x="348.1808080808081" y="771.2212121212121"/>
      <point x="348.1808080808081" y="728.6535353535353" type="curve" smooth="yes"/>
      <point x="348.1808080808081" y="670.9949494949495"/>
      <point x="301.76464646464643" y="625.4040404040404"/>
      <point x="220.17474747474748" y="625.4040404040404" type="curve" smooth="yes"/>
      <point x="186.669696969697" y="625.4040404040404" type="line"/>
      <point x="181.03333333333333" y="597.3767676767677" type="line"/>
      <point x="211.75555555555556" y="597.3767676767677" type="line" smooth="yes"/>
      <point x="288.1070707070707" y="597.3767676767677"/>
      <point x="320.4989898989899" y="565.1282828282829"/>
      <point x="320.4989898989899" y="516.4929292929293" type="curve" smooth="yes"/>
      <point x="320.4989898989899" y="452.5989898989899"/>
      <point x="271.589898989899" y="408.3757575757576"/>
      <point x="199.03737373737374" y="408.3757575757576" type="curve" smooth="yes"/>
      <point x="135.59292929292928" y="408.3757575757576"/>
      <point x="106.44141414141414" y="441.6676767676767"/>
      <point x="114.65959595959596" y="506.3252525252525" type="curve"/>
      <point x="92.58282828282829" y="506.3252525252525"/>
      <point x="79.84545454545454" y="486.9878787878788"/>
      <point x="79.84545454545454" y="463.330303030303" type="curve" smooth="yes"/>
      <point x="79.84545454545454" y="412.020202020202"/>
      <point x="122.23333333333332" y="379.4222222222222"/>
    </contour>
  </outline>
</glyph>
<glyph name="multiply" format="2">
  <advance width="509.8666666666667"/>
  <unicode hex="00D7"/>
  <outline>
    <contour>
      <point x="91.97373737373738" y="146.5848484848485" type="line"/>
      <point x="262.55555555555554" y="333.25656565656567" type="line"/>
      <point x="433.059595959596" y="146.5848484848485" type="line"/>
      <point x="458.67070707070707" y="169.63030303030305" type="line"/>
      <point x="286.1" y="358.94545454545454" type="line"/>
      <point x="458.67070707070707" y="549.259595959596" type="line"/>
      <point x="433.84747474747473" y="572.649494949495" type="line"/>
      <point x="262.55555555555554" y="385.00101010101014" type="line"/>
      <point x="91.68484848484849" y="572.0939393939394" type="line"/>
      <point x="66.86161616161617" y="548.8383838383838" type="line"/>
      <point x="239.510101010101" y="359.079797979798" type="line"/>
      <point x="67.36060606060606" y="170.1858585858586" type="line"/>
    </contour>
  </outline>
</glyph>
<glyph name="divide" format="2">
  <advance width="509.8666666666667"/>
  <unicode hex="00F7"/>
  <outline>
    <contour>
      <point x="64.74444444444445" y="340.1848484848485" type="line"/>
      <point x="456.7" y="340.1848484848485" type="line"/>
      <point x="456.7" y="374.6050505050505" type="line"/>
      <point x="64.74444444444445" y="374.6050505050505" type="line"/>
    </contour>
    <contour>
      <point x="261.3" y="134.03535353535355" type="curve" smooth="yes"/>
      <point x="282.73939393939395" y="134.03535353535355"/>
      <point x="300.33232323232323" y="144.8050505050505"/>
      <point x="300.33232323232323" y="176.9818181818182" type="curve" smooth="yes"/>
      <point x="300.33232323232323" y="210.94646464646465"/>
      <point x="282.73939393939395" y="221.0050505050505"/>
      <point x="261.3" y="221.0050505050505" type="curve" smooth="yes"/>
      <point x="238.7050505050505" y="221.0050505050505"/>
      <point x="222.47878787878787" y="210.94646464646465"/>
      <point x="222.47878787878787" y="176.9818181818182" type="curve" smooth="yes"/>
      <point x="222.47878787878787" y="144.8050505050505"/>
      <point x="238.7050505050505" y="134.03535353535355"/>
    </contour>
    <contour>
      <point x="261.3" y="495.15050505050505" type="curve" smooth="yes"/>
      <point x="282.73939393939395" y="495.15050505050505"/>
      <point x="300.33232323232323" y="505.92020202020205"/>
      <point x="300.33232323232323" y="538.5959595959597" type="curve" smooth="yes"/>
      <point x="300.33232323232323" y="572.0616161616163"/>
      <point x="282.73939393939395" y="582.1202020202021"/>
      <point x="261.3" y="582.1202020202021" type="curve" smooth="yes"/>
      <point x="238.7050505050505" y="582.1202020202021"/>
      <point x="222.47878787878787" y="572.0616161616163"/>
      <point x="222.47878787878787" y="538.5959595959597" type="curve" smooth="yes"/>
      <point x="222.47878787878787" y="505.92020202020205"/>
      <point x="238.7050505050505" y="495.15050505050505"/>
    </contour>
  </outline>
</glyph>
<glyph name="udatta-deva" format="2">
  <unicode hex="0951"/>
  <anchor x="56.63636363636364" y="544.5454545454545" name="_vedic"/>
  <outline>
    <contour>
      <point x="118.3989898989899" y="907.0050505050505" type="line"/>
      <point x="149.8151515151515" y="907.0050505050505" type="line"/>
      <point x="189.23939393939392" y="1093.3383838383838" type="line"/>
      <point x="157.8232323232323" y="1093.3383838383838" type="line"/>
    </contour>
  </outline>
</glyph>
<glyph name="anudatta-deva" format="2">
  <unicode hex="0952"/>
  <anchor x="-59.0" y="0.0" name="_bottom"/>
  <outline>
    <contour>
      <point x="-342.7060606060606" y="-478.71515151515155" type="line"/>
      <point x="21.243434343434345" y="-478.71515151515155" type="line"/>
      <point x="28.441414141414143" y="-445.5939393939394" type="line"/>
      <point x="-335.79696969696965" y="-445.5939393939394" type="line"/>
    </contour>
  </outline>
</glyph>
<glyph name="danda-deva" format="2">
  <advance width="268.75151515151515"/>
  <unicode hex="0964"/>
  <outline>
    <contour>
      <point x="55.8969696969697" y="0.0" type="line"/>
      <point x="97.2959595959596" y="0.0" type="line"/>
      <point x="213.22121212121212" y="544.5454545454545" type="line"/>
      <point x="171.45555555555555" y="544.5454545454545" type="line"/>
    </contour>
  </outline>
</glyph>
<glyph name="dbldanda-deva" format="2">
  <advance width="480.86868686868684"/>
  <unicode hex="0965"/>
  <outline>
    <contour>
      <point x="267.5151515151515" y="0.0" type="line"/>
      <point x="309.4131313131314" y="0.0" type="line"/>
      <point x="425.049494949495" y="544.5454545454545" type="line"/>
      <point x="383.07373737373734" y="544.5454545454545" type="line"/>
    </contour>
    <contour>
      <point x="55.8969696969697" y="0.0" type="line"/>
      <point x="97.2959595959596" y="0.0" type="line"/>
      <point x="213.22121212121212" y="544.5454545454545" type="line"/>
      <point x="171.45555555555555" y="544.5454545454545" type="line"/>
    </contour>
  </outline>
</glyph>
<glyph name="visarga-tamil" format="2">
  <advance width="774.0161616161615"/>
  <unicode hex="0B83"/>
  <note>
uni0B83
</note>
  <outline>
    <contour>
      <point x="145.64848484848486" y="0.0" type="curve" smooth="yes"/>
      <point x="249.52121212121213" y="0.0"/>
      <point x="320.15353535353535" y="107.14848484848484"/>
      <point x="320.23131313131313" y="227.76969696969698" type="curve" smooth="yes"/>
      <point x="320.3090909090909" y="311.4929292929293"/>
      <point x="276.020202020202" y="363.4848484848485"/>
      <point x="203.18383838383838" y="363.4848484848485" type="curve" smooth="yes"/>
      <point x="99.04242424242425" y="363.4848484848485"/>
      <point x="34.13737373737374" y="246.35353535353536"/>
      <point x="34.13737373737374" y="133.8747474747475" type="curve" smooth="yes"/>
      <point x="34.13737373737374" y="55.1020202020202"/>
      <point x="72.98787878787878" y="0.0"/>
    </contour>
    <contour>
      <point x="145.36161616161618" y="31.267676767676768" type="curve" smooth="yes"/>
      <point x="92.4858585858586" y="31.267676767676768"/>
      <point x="64.35858585858585" y="72.36969696969697"/>
      <point x="64.35858585858585" y="135.60808080808079" type="curve" smooth="yes"/>
      <point x="64.35858585858585" y="226.11111111111111"/>
      <point x="114.91414141414141" y="333.139393939394"/>
      <point x="198.38585858585859" y="333.139393939394" type="curve" smooth="yes"/>
      <point x="253.71818181818182" y="333.139393939394"/>
      <point x="284.1727272727273" y="291.8131313131313"/>
      <point x="284.1727272727273" y="229.46666666666667" type="curve" smooth="yes"/>
      <point x="284.1727272727273" y="129.9929292929293"/>
      <point x="231.04747474747475" y="31.267676767676768"/>
    </contour>
    <contour>
      <point x="524.8737373737373" y="0.0" type="curve" smooth="yes"/>
      <point x="628.7464646464647" y="0.0"/>
      <point x="699.3787878787879" y="107.14848484848484"/>
      <point x="699.4565656565657" y="227.76969696969698" type="curve" smooth="yes"/>
      <point x="699.5343434343434" y="311.4929292929293"/>
      <point x="655.2454545454545" y="363.4848484848485"/>
      <point x="582.4090909090909" y="363.4848484848485" type="curve" smooth="yes"/>
      <point x="478.26767676767673" y="363.4848484848485"/>
      <point x="413.36262626262624" y="246.35353535353536"/>
      <point x="413.36262626262624" y="133.8747474747475" type="curve" smooth="yes"/>
      <point x="413.36262626262624" y="55.1020202020202"/>
      <point x="452.2131313131313" y="0.0"/>
    </contour>
    <contour>
      <point x="524.5868686868687" y="31.267676767676768" type="curve" smooth="yes"/>
      <point x="471.71111111111105" y="31.267676767676768"/>
      <point x="443.5838383838384" y="72.36969696969697"/>
      <point x="443.5838383838384" y="135.60808080808079" type="curve" smooth="yes"/>
      <point x="443.5838383838384" y="226.11111111111111"/>
      <point x="494.139393939394" y="333.139393939394"/>
      <point x="577.6111111111111" y="333.139393939394" type="curve" smooth="yes"/>
      <point x="632.9434343434343" y="333.139393939394"/>
      <point x="663.3979797979798" y="291.8131313131313"/>
      <point x="663.3979797979798" y="229.46666666666667" type="curve" smooth="yes"/>
      <point x="663.3979797979798" y="129.9929292929293"/>
      <point x="610.2727272727273" y="31.267676767676768"/>
    </contour>
    <contour>
      <point x="414.03333333333336" y="405.6969696969697" type="curve" smooth="yes"/>
      <point x="517.9060606060607" y="405.6969696969697"/>
      <point x="588.5383838383839" y="512.8454545454546"/>
      <point x="588.6161616161617" y="633.4666666666667" type="curve" smooth="yes"/>
      <point x="588.6939393939394" y="717.189898989899"/>
      <point x="544.4050505050506" y="769.1818181818181"/>
      <point x="471.5686868686869" y="769.1818181818181" type="curve" smooth="yes"/>
      <point x="367.42727272727274" y="769.1818181818181"/>
      <point x="302.5222222222222" y="652.0505050505051"/>
      <point x="302.5222222222222" y="539.5717171717172" type="curve" smooth="yes"/>
      <point x="302.5222222222222" y="460.79898989898993"/>
      <point x="341.3727272727273" y="405.6969696969697"/>
    </contour>
    <contour>
      <point x="413.7464646464647" y="436.9646464646464" type="curve" smooth="yes"/>
      <point x="360.87070707070706" y="436.9646464646464"/>
      <point x="332.7434343434344" y="478.06666666666666"/>
      <point x="332.7434343434344" y="541.3050505050505" type="curve" smooth="yes"/>
      <point x="332.7434343434344" y="631.8080808080808"/>
      <point x="383.2989898989899" y="738.8363636363636"/>
      <point x="466.7707070707071" y="738.8363636363636" type="curve" smooth="yes"/>
      <point x="522.1030303030303" y="738.8363636363636"/>
      <point x="552.5575757575757" y="697.510101010101"/>
      <point x="552.5575757575757" y="635.1636363636364" type="curve" smooth="yes"/>
      <point x="552.5575757575757" y="535.6898989898989"/>
      <point x="499.43232323232326" y="436.9646464646464"/>
    </contour>
  </outline>
</glyph>
<glyph name="a-tamil" format="2">
  <advance width="1144.9626262626264"/>
  <unicode hex="0B85"/>
  <note>
uni0B85
</note>
  <anchor x="495.5282828282828" y="0.0" name="bottom"/>
  <anchor x="321.3767676767677" y="-94.94949494949495" name="nukta"/>
  <anchor x="614.9373737373737" y="544.5454545454545" name="top"/>
  <anchor x="615.3818181818182" y="544.5454545454545" name="vedic"/>
  <outline>
    <contour>
      <point x="901.4636363636363" y="-161.66969696969696" type="line"/>
      <point x="943.3616161616161" y="-161.66969696969696" type="line"/>
      <point x="1093.8050505050505" y="545.5434343434343" type="line"/>
      <point x="1051.618181818182" y="545.5434343434343" type="line"/>
      <point x="970.829292929293" y="163.9878787878788" type="line"/>
      <point x="74.83737373737374" y="163.9878787878788" type="line" smooth="yes"/>
      <point x="27.32020202020202" y="163.9878787878788"/>
      <point x="2.2333333333333334" y="136.1888888888889"/>
      <point x="2.2333333333333334" y="93.41717171717171" type="curve" smooth="yes"/>
      <point x="2.2333333333333334" y="13.338383838383837"/>
      <point x="131.84949494949495" y="-93.95151515151515"/>
      <point x="335.7131313131313" y="-93.95151515151515" type="curve" smooth="yes"/>
      <point x="610.5909090909091" y="-93.95151515151515"/>
      <point x="824.0505050505051" y="48.39090909090908"/>
      <point x="824.0505050505051" y="312.0949494949495" type="curve" smooth="yes"/>
      <point x="824.0505050505051" y="468.42727272727274"/>
      <point x="723.9181818181819" y="553.6949494949495"/>
      <point x="583.9343434343434" y="553.6949494949495" type="curve" smooth="yes"/>
      <point x="459.54848484848486" y="553.6949494949495"/>
      <point x="367.4707070707071" y="476.2555555555556"/>
      <point x="367.4707070707071" y="369.40707070707066" type="curve" smooth="yes"/>
      <point x="367.4707070707071" y="309.5717171717172"/>
      <point x="409.0262626262626" y="262.9676767676768"/>
      <point x="475.03131313131314" y="262.9676767676768" type="curve" smooth="yes"/>
      <point x="557.349494949495" y="262.9676767676768"/>
      <point x="610.6474747474748" y="319.23333333333335"/>
      <point x="610.6474747474748" y="408.5262626262627" type="curve" smooth="yes"/>
      <point x="610.6474747474748" y="459.7393939393939"/>
      <point x="582.939393939394" y="510.24747474747477"/>
      <point x="542.1252525252526" y="532.4484848484848" type="curve"/>
      <point x="508.6454545454545" y="528.4727272727273" type="line"/>
      <point x="552.3787878787879" y="499.77272727272725"/>
      <point x="571.2989898989899" y="453.98686868686866"/>
      <point x="571.2989898989899" y="411.32929292929293" type="curve" smooth="yes"/>
      <point x="571.2989898989899" y="343.90303030303033"/>
      <point x="536.3535353535354" y="294.1191919191919"/>
      <point x="473.3343434343435" y="294.1191919191919" type="curve" smooth="yes"/>
      <point x="429.7989898989899" y="294.1191919191919"/>
      <point x="400.7666666666667" y="326.42727272727274"/>
      <point x="400.7666666666667" y="373.1" type="curve" smooth="yes"/>
      <point x="400.7666666666667" y="458.68282828282827"/>
      <point x="475.27171717171717" y="523.3313131313131"/>
      <point x="578.7717171717171" y="523.3313131313131" type="curve" smooth="yes"/>
      <point x="697.039393939394" y="523.3313131313131"/>
      <point x="780.5191919191919" y="444.8656565656566"/>
      <point x="780.5191919191919" y="308.56161616161614" type="curve" smooth="yes"/>
      <point x="780.5191919191919" y="70.94444444444444"/>
      <point x="581.1363636363636" y="-62.012121212121215"/>
      <point x="337.7161616161616" y="-62.012121212121215" type="curve" smooth="yes"/>
      <point x="162.09292929292928" y="-62.012121212121215"/>
      <point x="35.70909090909091" y="26.638383838383835"/>
      <point x="35.70909090909091" y="95.86060606060606" type="curve" smooth="yes"/>
      <point x="35.70909090909091" y="120.35555555555555"/>
      <point x="50.79696969696969" y="134.4121212121212"/>
      <point x="74.9020202020202" y="134.4121212121212" type="curve" smooth="yes"/>
      <point x="964.5565656565658" y="134.4121212121212" type="line"/>
    </contour>
  </outline>
</glyph>
<glyph name="aa-tamil" format="2">
  <advance width="1242.4434343434343"/>
  <unicode hex="0B86"/>
  <note>
uni0B86
</note>
  <anchor x="550.1929292929294" y="0.0" name="bottom"/>
  <anchor x="317.59797979797975" y="-94.94949494949495" name="nukta"/>
  <anchor x="670.9484848484849" y="544.5454545454545" name="top"/>
  <anchor x="671.3909090909092" y="544.5454545454545" name="vedic"/>
  <outline>
    <contour>
      <point x="741.9676767676767" y="-408.23636363636365" type="curve" smooth="yes"/>
      <point x="926.3121212121214" y="-408.23636363636365"/>
      <point x="1136.8151515151515" y="-271.76262626262627"/>
      <point x="1136.8151515151515" y="-87.89090909090909" type="curve" smooth="yes"/>
      <point x="1136.8151515151515" y="-21.35959595959596"/>
      <point x="1099.5797979797978" y="10.333333333333336"/>
      <point x="1051.7363636363636" y="10.333333333333336" type="curve" smooth="yes"/>
      <point x="1001.3020202020202" y="10.333333333333336"/>
      <point x="958.751515151515" y="-30.995959595959594"/>
      <point x="936.6181818181817" y="-106.589898989899" type="curve"/>
      <point x="951.1919191919192" y="-116.7030303030303" type="line"/>
      <point x="965.89898989899" y="-56.199999999999996"/>
      <point x="1000.7838383838383" y="-27.732323232323232"/>
      <point x="1039.2282828282828" y="-27.732323232323232" type="curve" smooth="yes"/>
      <point x="1070.0636363636365" y="-27.732323232323232"/>
      <point x="1093.648484848485" y="-46.92020202020202"/>
      <point x="1093.648484848485" y="-92.93838383838384" type="curve" smooth="yes"/>
      <point x="1093.648484848485" y="-251.49797979797978"/>
      <point x="902.4050505050506" y="-375.220202020202"/>
      <point x="742.6060606060606" y="-375.220202020202" type="curve" smooth="yes"/>
      <point x="661.5444444444445" y="-375.220202020202"/>
      <point x="611.6070707070708" y="-344.4777777777778"/>
      <point x="611.6070707070708" y="-284.9373737373737" type="curve" smooth="yes"/>
      <point x="611.6070707070708" y="-231.75050505050504"/>
      <point x="650.528282828283" y="-198.62222222222223"/>
      <point x="713.8040404040405" y="-177.54040404040404" type="curve"/>
      <point x="706.1040404040405" y="-147.12424242424242" type="line"/>
      <point x="626.7131313131314" y="-173.5737373737374"/>
      <point x="577.8020202020202" y="-215.57070707070707"/>
      <point x="577.8020202020202" y="-287.15353535353535" type="curve" smooth="yes"/>
      <point x="577.8020202020202" y="-360.24242424242425"/>
      <point x="637.888888888889" y="-408.23636363636365"/>
    </contour>
    <component base="a-tamil"/>
  </outline>
</glyph>
<glyph name="i-tamil" format="2">
  <advance width="871.4151515151516"/>
  <unicode hex="0B87"/>
  <note>
uni0B87
</note>
  <anchor x="363.5838383838384" y="0.0" name="bottom"/>
  <anchor x="318.0616161616162" y="-249.76565656565657" name="nukta"/>
  <anchor x="498.9222222222222" y="792.6929292929293" name="top"/>
  <anchor x="467.6131313131313" y="544.5454545454545" name="vedic"/>
  <outline>
    <contour>
      <point x="103.49595959595959" y="-282.030303030303" type="curve" smooth="yes"/>
      <point x="368.6363636363637" y="-282.030303030303"/>
      <point x="657.3676767676767" y="59.428282828282825"/>
      <point x="657.3676767676767" y="347.569696969697" type="curve" smooth="yes"/>
      <point x="657.3676767676767" y="476.9919191919192"/>
      <point x="582.3323232323232" y="552.6969696969697"/>
      <point x="459.85959595959594" y="552.6969696969697" type="curve" smooth="yes"/>
      <point x="346.13131313131316" y="552.6969696969697"/>
      <point x="259.169696969697" y="472.3424242424242"/>
      <point x="259.169696969697" y="369.1313131313131" type="curve" smooth="yes"/>
      <point x="259.169696969697" y="307.4878787878788"/>
      <point x="300.01515151515156" y="262.1818181818182"/>
      <point x="362.67575757575764" y="262.1818181818182" type="curve" smooth="yes"/>
      <point x="442.7555555555556" y="262.1818181818182"/>
      <point x="497.8989898989899" y="320.58282828282825"/>
      <point x="497.8989898989899" y="406.08585858585855" type="curve" smooth="yes"/>
      <point x="497.8989898989899" y="458.3848484848485"/>
      <point x="473.1545454545454" y="508.54545454545456"/>
      <point x="432.759595959596" y="531.1818181818181" type="curve"/>
      <point x="400.1040404040404" y="526.4505050505051" type="line"/>
      <point x="440.63434343434346" y="498.169696969697"/>
      <point x="459.7060606060606" y="456.37171717171714"/>
      <point x="459.7060606060606" y="411.02323232323226" type="curve" smooth="yes"/>
      <point x="459.7060606060606" y="345.3848484848485"/>
      <point x="420.3808080808081" y="293.17777777777775"/>
      <point x="360.34141414141413" y="293.17777777777775" type="curve" smooth="yes"/>
      <point x="320.5212121212121" y="293.17777777777775"/>
      <point x="292.5212121212121" y="326.1656565656566"/>
      <point x="292.5212121212121" y="370.68989898989895" type="curve" smooth="yes"/>
      <point x="292.5212121212121" y="454.74949494949493"/>
      <point x="360.0090909090909" y="522.3333333333334"/>
      <point x="454.98383838383836" y="522.3333333333334" type="curve" smooth="yes"/>
      <point x="556.9555555555555" y="522.3333333333334"/>
      <point x="616.3373737373737" y="455.4808080808081"/>
      <point x="616.3373737373737" y="345.6151515151515" type="curve" smooth="yes"/>
      <point x="616.3373737373737" y="83.0959595959596"/>
      <point x="351.3737373737374" y="-250.0909090909091"/>
      <point x="109.3171717171717" y="-250.0909090909091" type="curve" smooth="yes"/>
      <point x="40.74545454545454" y="-250.0909090909091"/>
      <point x="1.8858585858585877" y="-212.9979797979798"/>
      <point x="1.8858585858585877" y="-155.64141414141415" type="curve" smooth="yes"/>
      <point x="1.8858585858585877" y="-19.80909090909091"/>
      <point x="180.73434343434346" y="75.12121212121212"/>
      <point x="361.84949494949495" y="75.12121212121212" type="curve" smooth="yes"/>
      <point x="520.2050505050505" y="75.12121212121212"/>
      <point x="671.5747474747475" y="-2.248484848484848"/>
      <point x="671.5747474747475" y="-125.19191919191918" type="curve" smooth="yes"/>
      <point x="671.5747474747475" y="-207.0888888888889"/>
      <point x="618.2797979797979" y="-250.0909090909091"/>
      <point x="531.4747474747475" y="-250.0909090909091" type="curve" smooth="yes"/>
      <point x="350.1747474747475" y="-250.0909090909091"/>
      <point x="119.6171717171717" y="30.13939393939394"/>
      <point x="119.6171717171717" y="315.7979797979798" type="curve" smooth="yes"/>
      <point x="119.6171717171717" y="548.8303030303031"/>
      <point x="248.59797979797983" y="749.2555555555556"/>
      <point x="492.93232323232326" y="749.2555555555556" type="curve" smooth="yes"/>
      <point x="717.1313131313132" y="749.2555555555556"/>
      <point x="833.9232323232324" y="580.2636363636364"/>
      <point x="782.0080808080808" y="335.12424242424237" type="curve" smooth="yes"/>
      <point x="732.6808080808081" y="103.33333333333333" type="line"/>
      <point x="763.7363636363636" y="103.33333333333333" type="line"/>
      <point x="813.430303030303" y="335.59090909090907" type="line" smooth="yes"/>
      <point x="872.3636363636364" y="609.4989898989899"/>
      <point x="744.7292929292929" y="792.6929292929293"/>
      <point x="498.9222222222222" y="792.6929292929293" type="curve" smooth="yes"/>
      <point x="233.99797979797978" y="792.6929292929293"/>
      <point x="85.18080808080808" y="575.8111111111111"/>
      <point x="85.18080808080808" y="319.1747474747475" type="curve" smooth="yes"/>
      <point x="85.18080808080808" y="18.28383838383838"/>
      <point x="325.23434343434343" y="-282.030303030303"/>
      <point x="535.1919191919192" y="-282.030303030303" type="curve" smooth="yes"/>
      <point x="637.3262626262626" y="-282.030303030303"/>
      <point x="707.2232323232323" y="-227.71515151515155"/>
      <point x="707.2232323232323" y="-122.46464646464646" type="curve" smooth="yes"/>
      <point x="707.2232323232323" y="19.64747474747475"/>
      <point x="544.5747474747475" y="106.06060606060606"/>
      <point x="363.52121212121216" y="106.06060606060606" type="curve" smooth="yes"/>
      <point x="171.5131313131313" y="106.06060606060606"/>
      <point x="-34.8969696969697" y="2.565656565656566"/>
      <point x="-34.8969696969697" y="-162.2949494949495" type="curve" smooth="yes"/>
      <point x="-34.8969696969697" y="-234.27474747474747"/>
      <point x="19.989898989898986" y="-282.030303030303"/>
    </contour>
  </outline>
</glyph>
<glyph name="ii-tamil" format="2">
  <advance width="671.3292929292929"/>
  <unicode hex="0B88"/>
  <note>
uni0B88
</note>
  <anchor x="298.28989898989903" y="0.0" name="bottom"/>
  <anchor x="298.8666666666667" y="0.0" name="nukta"/>
  <anchor x="416.9252525252526" y="544.5454545454545" name="top"/>
  <anchor x="417.0030303030303" y="544.5454545454545" name="vedic"/>
  <outline>
    <contour>
      <point x="51.73434343434344" y="0.0" type="line"/>
      <point x="83.98080808080807" y="0.0" type="line"/>
      <point x="193.13232323232324" y="514.969696969697" type="line"/>
      <point x="457.23737373737373" y="514.969696969697" type="line"/>
      <point x="347.1636363636364" y="0.0" type="line"/>
      <point x="389.6393939393939" y="0.0" type="line"/>
      <point x="498.7909090909091" y="514.969696969697" type="line"/>
      <point x="676.4545454545454" y="514.969696969697" type="line"/>
      <point x="682.9393939393939" y="544.5454545454545" type="line"/>
      <point x="167.58181818181816" y="544.5454545454545" type="line"/>
    </contour>
    <contour>
      <point x="268.4404040404041" y="224.99494949494948" type="curve" smooth="yes"/>
      <point x="289.4070707070707" y="224.99494949494948"/>
      <point x="306.52424242424246" y="241.88181818181818"/>
      <point x="306.52424242424246" y="261.6363636363636" type="curve" smooth="yes"/>
      <point x="306.52424242424246" y="281.1020202020202"/>
      <point x="289.4070707070707" y="298.510101010101"/>
      <point x="268.4404040404041" y="298.510101010101" type="curve" smooth="yes"/>
      <point x="247.4737373737374" y="298.510101010101"/>
      <point x="230.85555555555555" y="281.1020202020202"/>
      <point x="230.85555555555555" y="261.6363636363636" type="curve" smooth="yes"/>
      <point x="230.85555555555555" y="241.88181818181818"/>
      <point x="247.4737373737374" y="224.99494949494948"/>
    </contour>
    <contour>
      <point x="577.4040404040404" y="224.99494949494948" type="curve" smooth="yes"/>
      <point x="598.370707070707" y="224.99494949494948"/>
      <point x="615.4878787878788" y="241.88181818181818"/>
      <point x="615.4878787878788" y="261.6363636363636" type="curve" smooth="yes"/>
      <point x="615.4878787878788" y="281.1020202020202"/>
      <point x="598.370707070707" y="298.510101010101"/>
      <point x="577.4040404040404" y="298.510101010101" type="curve" smooth="yes"/>
      <point x="556.4373737373737" y="298.510101010101"/>
      <point x="539.8191919191919" y="281.1020202020202"/>
      <point x="539.8191919191919" y="261.6363636363636" type="curve" smooth="yes"/>
      <point x="539.8191919191919" y="241.88181818181818"/>
      <point x="556.4373737373737" y="224.99494949494948"/>
    </contour>
  </outline>
</glyph>
<glyph name="u-tamil" format="2">
  <advance width="926.2363636363638"/>
  <unicode hex="0B89"/>
  <note>
uni0B89
</note>
  <anchor x="425.77272727272725" y="0.0" name="bottom"/>
  <anchor x="425.85050505050503" y="0.0" name="nukta"/>
  <anchor x="543.5646464646464" y="544.5454545454545" name="top"/>
  <anchor x="544.1202020202021" y="544.5454545454545" name="vedic"/>
  <outline>
    <contour>
      <point x="94.31818181818181" y="0.0" type="curve" smooth="yes"/>
      <point x="842.310101010101" y="0.0" type="line"/>
      <point x="848.2181818181818" y="29.575757575757578" type="line"/>
      <point x="97.13030303030303" y="29.575757575757578" type="line" smooth="yes"/>
      <point x="61.58484848484848" y="29.575757575757578"/>
      <point x="41.64545454545454" y="53.07070707070707"/>
      <point x="41.64545454545454" y="82.91111111111111" type="curve" smooth="yes"/>
      <point x="41.64545454545454" y="121.3080808080808"/>
      <point x="71.08181818181818" y="143.66666666666666"/>
      <point x="114.03535353535355" y="143.66666666666666" type="curve" smooth="yes"/>
      <point x="325.2181818181818" y="143.66666666666666" type="line" smooth="yes"/>
      <point x="477.58989898989904" y="143.66666666666666"/>
      <point x="590.4585858585858" y="223.14040404040406"/>
      <point x="590.4585858585858" y="369.7848484848485" type="curve" smooth="yes"/>
      <point x="590.4585858585858" y="493.789898989899"/>
      <point x="497.8727272727273" y="552.6969696969697"/>
      <point x="380.8949494949495" y="552.6969696969697" type="curve" smooth="yes"/>
      <point x="261.47474747474746" y="552.6969696969697"/>
      <point x="157.6919191919192" y="473.5404040404041"/>
      <point x="157.6919191919192" y="370.05454545454546" type="curve" smooth="yes"/>
      <point x="157.6919191919192" y="311.4070707070707"/>
      <point x="195.8131313131313" y="261.969696969697"/>
      <point x="264.8626262626263" y="261.969696969697" type="curve" smooth="yes"/>
      <point x="343.2555555555556" y="261.969696969697"/>
      <point x="402.5474747474747" y="314.41010101010096"/>
      <point x="402.5474747474747" y="399.7757575757576" type="curve" smooth="yes"/>
      <point x="402.5474747474747" y="457.92424242424244"/>
      <point x="376.4949494949495" y="500.2020202020202"/>
      <point x="339.23232323232327" y="531.6060606060606" type="curve"/>
      <point x="306.73131313131313" y="527.030303030303" type="line"/>
      <point x="346.5515151515151" y="488.1686868686869"/>
      <point x="364.06464646464644" y="450.810101010101"/>
      <point x="364.06464646464644" y="401.3959595959596" type="curve" smooth="yes"/>
      <point x="364.06464646464644" y="336.54545454545456"/>
      <point x="319.0040404040404" y="293.1212121212121"/>
      <point x="262.7242424242424" y="293.1212121212121" type="curve" smooth="yes"/>
      <point x="215.06565656565658" y="293.1212121212121"/>
      <point x="190.4878787878788" y="329.6848484848485"/>
      <point x="190.4878787878788" y="372.7090909090909" type="curve" smooth="yes"/>
      <point x="190.4878787878788" y="456.8212121212121"/>
      <point x="276.9101010101011" y="522.3333333333334"/>
      <point x="375.7727272727273" y="522.3333333333334" type="curve" smooth="yes"/>
      <point x="471.93939393939394" y="522.3333333333334"/>
      <point x="548.060606060606" y="474.91111111111104"/>
      <point x="548.060606060606" y="369.04040404040404" type="curve" smooth="yes"/>
      <point x="548.060606060606" y="246.1161616161616"/>
      <point x="455.48383838383836" y="173.8181818181818"/>
      <point x="323.58484848484846" y="173.8181818181818" type="curve" smooth="yes"/>
      <point x="118.57171717171717" y="173.8181818181818" type="line" smooth="yes"/>
      <point x="53.623232323232315" y="173.8181818181818"/>
      <point x="9.036363636363637" y="139.95858585858585"/>
      <point x="9.036363636363637" y="79.2949494949495" type="curve" smooth="yes"/>
      <point x="9.036363636363637" y="37.11818181818182"/>
      <point x="39.3010101010101" y="0.0"/>
    </contour>
  </outline>
</glyph>
<glyph name="uu-tamil" format="2">
  <advance width="1470.9494949494951"/>
  <unicode hex="0B8A"/>
  <note>
uni0B8A
</note>
  <anchor x="714.4030303030304" y="0.0" name="bottom"/>
  <anchor x="715.3252525252526" y="0.0" name="nukta"/>
  <anchor x="833.1737373737375" y="544.5454545454545" name="top"/>
  <anchor x="833.0393939393939" y="544.5454545454545" name="vedic"/>
  <outline>
    <contour>
      <point x="94.31818181818181" y="0.0" type="curve" smooth="yes"/>
      <point x="1394.8272727272729" y="0.0" type="line"/>
      <point x="1400.7353535353536" y="29.575757575757578" type="line"/>
      <point x="97.13030303030303" y="29.575757575757578" type="line" smooth="yes"/>
      <point x="61.58484848484848" y="29.575757575757578"/>
      <point x="41.64545454545454" y="53.07070707070707"/>
      <point x="41.64545454545454" y="82.91111111111111" type="curve" smooth="yes"/>
      <point x="41.64545454545454" y="121.3080808080808"/>
      <point x="71.08181818181818" y="143.66666666666666"/>
      <point x="114.03535353535355" y="143.66666666666666" type="curve" smooth="yes"/>
      <point x="325.2181818181818" y="143.66666666666666" type="line" smooth="yes"/>
      <point x="477.58989898989904" y="143.66666666666666"/>
      <point x="590.4585858585858" y="223.14040404040406"/>
      <point x="590.4585858585858" y="369.7848484848485" type="curve" smooth="yes"/>
      <point x="590.4585858585858" y="493.789898989899"/>
      <point x="497.8727272727273" y="552.6969696969697"/>
      <point x="380.8949494949495" y="552.6969696969697" type="curve" smooth="yes"/>
      <point x="261.47474747474746" y="552.6969696969697"/>
      <point x="157.6919191919192" y="473.5404040404041"/>
      <point x="157.6919191919192" y="370.05454545454546" type="curve" smooth="yes"/>
      <point x="157.6919191919192" y="311.4070707070707"/>
      <point x="195.8131313131313" y="261.969696969697"/>
      <point x="264.8626262626263" y="261.969696969697" type="curve" smooth="yes"/>
      <point x="343.2555555555556" y="261.969696969697"/>
      <point x="402.5474747474747" y="314.41010101010096"/>
      <point x="402.5474747474747" y="399.7757575757576" type="curve" smooth="yes"/>
      <point x="402.5474747474747" y="457.92424242424244"/>
      <point x="376.4949494949495" y="500.2020202020202"/>
      <point x="339.23232323232327" y="531.6060606060606" type="curve"/>
      <point x="306.73131313131313" y="527.030303030303" type="line"/>
      <point x="346.5515151515151" y="488.1686868686869"/>
      <point x="364.06464646464644" y="450.810101010101"/>
      <point x="364.06464646464644" y="401.3959595959596" type="curve" smooth="yes"/>
      <point x="364.06464646464644" y="336.54545454545456"/>
      <point x="319.0040404040404" y="293.1212121212121"/>
      <point x="262.7242424242424" y="293.1212121212121" type="curve" smooth="yes"/>
      <point x="215.06565656565658" y="293.1212121212121"/>
      <point x="190.4878787878788" y="329.6848484848485"/>
      <point x="190.4878787878788" y="372.7090909090909" type="curve" smooth="yes"/>
      <point x="190.4878787878788" y="456.8212121212121"/>
      <point x="276.9101010101011" y="522.3333333333334"/>
      <point x="375.7727272727273" y="522.3333333333334" type="curve" smooth="yes"/>
      <point x="471.93939393939394" y="522.3333333333334"/>
      <point x="548.060606060606" y="474.91111111111104"/>
      <point x="548.060606060606" y="369.04040404040404" type="curve" smooth="yes"/>
      <point x="548.060606060606" y="246.1161616161616"/>
      <point x="455.48383838383836" y="173.8181818181818"/>
      <point x="323.58484848484846" y="173.8181818181818" type="curve" smooth="yes"/>
      <point x="118.57171717171717" y="173.8181818181818" type="line" smooth="yes"/>
      <point x="53.623232323232315" y="173.8181818181818"/>
      <point x="9.036363636363637" y="139.95858585858585"/>
      <point x="9.036363636363637" y="79.2949494949495" type="curve" smooth="yes"/>
      <point x="9.036363636363637" y="37.11818181818182"/>
      <point x="39.3010101010101" y="0.0"/>
    </contour>
    <contour>
      <point x="794.2272727272727" y="103.78787878787878" type="curve" smooth="yes"/>
      <point x="874.759595959596" y="103.78787878787878"/>
      <point x="940.4212121212122" y="162.7050505050505"/>
      <point x="940.4212121212122" y="258.67979797979797" type="curve" smooth="yes"/>
      <point x="940.4212121212122" y="330.25252525252523"/>
      <point x="895.3969696969697" y="375.5292929292929"/>
      <point x="831.3222222222223" y="375.5292929292929" type="curve" smooth="yes"/>
      <point x="761.9505050505051" y="375.5292929292929"/>
      <point x="708.6484848484849" y="318.7383838383838"/>
      <point x="679.5787878787879" y="246.21919191919193" type="curve"/>
      <point x="687.8626262626263" y="219.07575757575756" type="line"/>
      <point x="718.3454545454546" y="290.08383838383844"/>
      <point x="762.1696969696969" y="342.75757575757575"/>
      <point x="820.0595959595959" y="342.75757575757575" type="curve" smooth="yes"/>
      <point x="869.7252525252525" y="342.75757575757575"/>
      <point x="900.3575757575758" y="310.32929292929293"/>
      <point x="900.3575757575758" y="254.66969696969696" type="curve" smooth="yes"/>
      <point x="900.3575757575758" y="183.0181818181818"/>
      <point x="851.7717171717172" y="134.72727272727272"/>
      <point x="792.760606060606" y="134.72727272727272" type="curve" smooth="yes"/>
      <point x="730.3171717171717" y="134.72727272727272"/>
      <point x="688.9787878787879" y="189.92020202020203"/>
      <point x="689.4777777777779" y="268.6727272727273" type="curve" smooth="yes"/>
      <point x="689.9767676767677" y="387.8828282828283"/>
      <point x="775.5020202020202" y="522.3333333333334"/>
      <point x="914.4414141414142" y="522.3333333333334" type="curve" smooth="yes"/>
      <point x="1017.4030303030303" y="522.3333333333334"/>
      <point x="1096.8353535353535" y="451.77474747474747"/>
      <point x="1069.0393939393937" y="321.050505050505" type="curve"/>
      <point x="1095.380808080808" y="321.83838383838383" type="line"/>
      <point x="1126.9111111111113" y="473.58787878787876"/>
      <point x="1037.741414141414" y="553.1959595959596"/>
      <point x="914.8535353535353" y="552.6969696969697" type="curve" smooth="yes"/>
      <point x="756.9717171717172" y="552.1979797979798"/>
      <point x="656.6595959595959" y="403.05555555555554"/>
      <point x="656.6595959595959" y="267.15252525252527" type="curve" smooth="yes"/>
      <point x="656.6595959595959" y="174.7616161616162"/>
      <point x="711.9373737373737" y="103.78787878787878"/>
    </contour>
    <contour>
      <point x="1023.478787878788" y="107.0" type="line"/>
      <point x="1064.2232323232324" y="107.0" type="line"/>
      <point x="1151.2969696969697" y="515.3939393939394" type="line"/>
      <point x="1343.558585858586" y="515.3939393939394" type="line"/>
      <point x="1257.1949494949495" y="107.0" type="line"/>
      <point x="1298.0717171717174" y="107.0" type="line"/>
      <point x="1384.7242424242424" y="515.3939393939394" type="line"/>
      <point x="1504.6909090909091" y="515.3939393939394" type="line"/>
      <point x="1510.9636363636364" y="544.5454545454545" type="line"/>
      <point x="1117.952525252525" y="544.5454545454545" type="line"/>
      <point x="1088.3323232323232" y="406.6545454545455" type="line"/>
      <point x="1083.1313131313132" y="389.26060606060605" type="line"/>
    </contour>
  </outline>
</glyph>
<glyph name="e-tamil" format="2">
  <advance width="765.080808080808"/>
  <unicode hex="0B8E"/>
  <note>
uni0B8E
</note>
  <anchor x="346.0909090909091" y="0.0" name="bottom"/>
  <anchor x="347.0909090909091" y="0.0" name="nukta"/>
  <anchor x="464.169696969697" y="544.5454545454545" name="top"/>
  <anchor x="464.72727272727275" y="544.5454545454545" name="vedic"/>
  <outline>
    <contour>
      <point x="201.42525252525252" y="-4.212121212121212" type="curve" smooth="yes"/>
      <point x="285.84949494949495" y="-4.212121212121212"/>
      <point x="352.9878787878788" y="60.031313131313134"/>
      <point x="352.9878787878788" y="160.84444444444446" type="curve" smooth="yes"/>
      <point x="352.9878787878788" y="236.85454545454544"/>
      <point x="306.759595959596" y="287.24242424242425"/>
      <point x="235.9767676767677" y="287.24242424242425" type="curve" smooth="yes"/>
      <point x="152.56464646464647" y="287.24242424242425"/>
      <point x="96.43838383838383" y="220.5878787878788"/>
      <point x="67.9" y="145.2232323232323" type="curve"/>
      <point x="80.4040404040404" y="118.56565656565655" type="line"/>
      <point x="112.87676767676768" y="195.36262626262626"/>
      <point x="156.15151515151516" y="253.33333333333334"/>
      <point x="224.73131313131313" y="253.33333333333334" type="curve" smooth="yes"/>
      <point x="282.559595959596" y="253.33333333333334"/>
      <point x="311.11111111111114" y="215.7191919191919"/>
      <point x="311.11111111111114" y="156.04545454545453" type="curve" smooth="yes"/>
      <point x="311.11111111111114" y="79.30909090909091"/>
      <point x="262.62929292929294" y="26.93939393939394"/>
      <point x="200.589898989899" y="26.93939393939394" type="curve" smooth="yes"/>
      <point x="127.38282828282829" y="26.93939393939394"/>
      <point x="77.75050505050505" y="86.13232323232323"/>
      <point x="77.75050505050505" y="194.46161616161618" type="curve" smooth="yes"/>
      <point x="77.75050505050505" y="359.2020202020202"/>
      <point x="183.13333333333333" y="514.969696969697"/>
      <point x="387.220202020202" y="514.969696969697" type="curve" smooth="yes"/>
      <point x="603.4676767676768" y="514.969696969697" type="line"/>
      <point x="494.31616161616165" y="0.0" type="line"/>
      <point x="535.7151515151515" y="0.0" type="line"/>
      <point x="645.1555555555556" y="514.969696969697" type="line"/>
      <point x="792.1939393939393" y="514.969696969697" type="line"/>
      <point x="798.4666666666666" y="544.5454545454545" type="line"/>
      <point x="388.91515151515154" y="544.5454545454545" type="line" smooth="yes"/>
      <point x="159.63939393939395" y="544.5454545454545"/>
      <point x="45.008080808080805" y="373.6939393939394"/>
      <point x="45.008080808080805" y="192.42525252525252" type="curve" smooth="yes"/>
      <point x="45.008080808080805" y="68.11919191919192"/>
      <point x="109.12323232323234" y="-4.212121212121212"/>
    </contour>
  </outline>
</glyph>
<glyph name="ee-tamil" format="2">
  <advance width="771.3020202020202"/>
  <unicode hex="0B8F"/>
  <note>
uni0B8F
</note>
  <anchor x="346.2676767676768" y="0.0" name="bottom"/>
  <anchor x="307.8121212121212" y="-186.2" name="nukta"/>
  <anchor x="464.77171717171717" y="544.5454545454545" name="top"/>
  <anchor x="464.9040404040404" y="544.5454545454545" name="vedic"/>
  <outline>
    <contour>
      <point x="313.05454545454546" y="-208.23232323232324" type="line"/>
      <point x="536.3727272727274" y="2.039393939393941" type="line"/>
      <point x="645.6545454545455" y="514.969696969697" type="line"/>
      <point x="798.4151515151515" y="514.969696969697" type="line"/>
      <point x="804.8222222222222" y="544.5454545454545" type="line"/>
      <point x="388.91515151515154" y="544.5454545454545" type="line" smooth="yes"/>
      <point x="159.63939393939395" y="544.5454545454545"/>
      <point x="45.008080808080805" y="373.6939393939394"/>
      <point x="45.008080808080805" y="192.42525252525252" type="curve" smooth="yes"/>
      <point x="45.008080808080805" y="68.11919191919192"/>
      <point x="108.62424242424241" y="-4.212121212121212"/>
      <point x="200.9262626262626" y="-4.212121212121212" type="curve" smooth="yes"/>
      <point x="285.35050505050503" y="-4.212121212121212"/>
      <point x="352.9878787878788" y="60.031313131313134"/>
      <point x="352.9878787878788" y="160.84444444444446" type="curve" smooth="yes"/>
      <point x="352.9878787878788" y="236.35555555555555"/>
      <point x="306.759595959596" y="287.24242424242425"/>
      <point x="235.9767676767677" y="287.24242424242425" type="curve" smooth="yes"/>
      <point x="152.56464646464647" y="287.24242424242425"/>
      <point x="96.43838383838383" y="220.5878787878788"/>
      <point x="67.9" y="145.2232323232323" type="curve"/>
      <point x="80.4040404040404" y="118.56565656565655" type="line"/>
      <point x="112.87676767676768" y="195.36262626262626"/>
      <point x="156.15151515151516" y="253.33333333333334"/>
      <point x="224.73131313131313" y="253.33333333333334" type="curve" smooth="yes"/>
      <point x="282.559595959596" y="253.33333333333334"/>
      <point x="311.11111111111114" y="215.7191919191919"/>
      <point x="311.11111111111114" y="156.04545454545453" type="curve" smooth="yes"/>
      <point x="311.11111111111114" y="79.30909090909091"/>
      <point x="262.130303030303" y="26.93939393939394"/>
      <point x="200.0909090909091" y="26.93939393939394" type="curve" smooth="yes"/>
      <point x="126.88383838383838" y="26.93939393939394"/>
      <point x="77.75050505050505" y="86.13232323232323"/>
      <point x="77.75050505050505" y="194.46161616161618" type="curve" smooth="yes"/>
      <point x="77.75050505050505" y="359.2020202020202"/>
      <point x="183.13333333333333" y="514.969696969697"/>
      <point x="387.220202020202" y="514.969696969697" type="curve" smooth="yes"/>
      <point x="603.7565656565657" y="514.969696969697" type="line"/>
      <point x="496.23838383838387" y="8.531313131313132" type="line"/>
      <point x="291.4676767676767" y="-184.70808080808078" type="line"/>
    </contour>
  </outline>
</glyph>
<glyph name="ai-tamil" format="2">
  <advance width="854.4080808080807"/>
  <unicode hex="0B90"/>
  <note>
uni0B90
</note>
  <anchor x="378.979797979798" y="0.0" name="bottom"/>
  <anchor x="317.3222222222222" y="-281.8181818181818" name="nukta"/>
  <anchor x="498.7767676767677" y="544.5454545454545" name="top"/>
  <anchor x="498.9636363636364" y="544.5454545454545" name="vedic"/>
  <outline>
    <contour>
      <point x="142.9979797979798" y="-281.8181818181818" type="curve" smooth="yes"/>
      <point x="246.62828282828283" y="-281.8181818181818"/>
      <point x="315.3919191919192" y="-223.33535353535353"/>
      <point x="355.2818181818182" y="-155.35353535353534" type="curve"/>
      <point x="363.3535353535354" y="-222.4848484848485"/>
      <point x="413.2919191919192" y="-281.8181818181818"/>
      <point x="507.6474747474747" y="-281.8181818181818" type="curve" smooth="yes"/>
      <point x="636.5646464646464" y="-281.8181818181818"/>
      <point x="722.029292929293" y="-189.39191919191921"/>
      <point x="722.029292929293" y="-57.82424242424243" type="curve" smooth="yes"/>
      <point x="722.029292929293" y="-8.761616161616164"/>
      <point x="708.2848484848485" y="37.32828282828283"/>
      <point x="688.6818181818182" y="77.66262626262626" type="curve"/>
      <point x="656.9939393939394" y="60.97070707070707" type="line"/>
      <point x="673.2757575757576" y="28.646464646464644"/>
      <point x="686.9020202020201" y="-15.150505050505053"/>
      <point x="686.9020202020201" y="-59.51111111111111" type="curve" smooth="yes"/>
      <point x="686.9020202020201" y="-168.63030303030303"/>
      <point x="614.489898989899" y="-249.96969696969697"/>
      <point x="509.63232323232324" y="-249.96969696969697" type="curve" smooth="yes"/>
      <point x="408.25757575757575" y="-249.96969696969697"/>
      <point x="372.3838383838384" y="-176.58686868686868"/>
      <point x="393.24747474747477" y="-75.06464646464647" type="curve" smooth="yes"/>
      <point x="405.7111111111111" y="-15.0" type="line"/>
      <point x="366.3646464646464" y="-15.0" type="line"/>
      <point x="351.6383838383838" y="-81.94545454545455" type="line" smooth="yes"/>
      <point x="334.0212121212121" y="-161.0161616161616"/>
      <point x="255.72828282828286" y="-251.24242424242425"/>
      <point x="149.12424242424242" y="-251.24242424242425" type="curve" smooth="yes"/>
      <point x="69.13434343434344" y="-251.24242424242425"/>
      <point x="25.634343434343435" y="-203.75353535353534"/>
      <point x="25.634343434343435" y="-121.44949494949495" type="curve" smooth="yes"/>
      <point x="25.634343434343435" y="44.08888888888889"/>
      <point x="176.45151515151517" y="69.36464646464647"/>
      <point x="404.53131313131314" y="92.04242424242425" type="curve" smooth="yes"/>
      <point x="638.5777777777778" y="115.63030303030303"/>
      <point x="811.0878787878787" y="180.4090909090909"/>
      <point x="811.0878787878787" y="389.68686868686865" type="curve" smooth="yes"/>
      <point x="811.0878787878787" y="497.17676767676767"/>
      <point x="742.6505050505051" y="552.6969696969697"/>
      <point x="654.960606060606" y="552.6969696969697" type="curve" smooth="yes"/>
      <point x="563.4282828282828" y="552.6969696969697"/>
      <point x="506.140404040404" y="494.72121212121215"/>
      <point x="471.8767676767677" y="425.77878787878785" type="curve"/>
      <point x="457.1919191919192" y="497.6767676767677"/>
      <point x="400.04848484848486" y="552.6969696969697"/>
      <point x="299.25252525252523" y="552.6969696969697" type="curve" smooth="yes"/>
      <point x="162.35050505050506" y="552.6969696969697"/>
      <point x="66.05151515151515" y="441.0979797979798"/>
      <point x="66.05151515151515" y="307.40808080808085" type="curve" smooth="yes"/>
      <point x="66.05151515151515" y="228.38888888888889"/>
      <point x="108.63939393939394" y="162.3030303030303"/>
      <point x="184.09797979797978" y="162.3030303030303" type="curve" smooth="yes"/>
      <point x="255.26565656565657" y="162.3030303030303"/>
      <point x="315.23535353535357" y="215.88181818181818"/>
      <point x="315.23535353535357" y="299.5909090909091" type="curve" smooth="yes"/>
      <point x="315.23535353535357" y="359.65959595959595"/>
      <point x="278.8777777777778" y="400.969696969697"/>
      <point x="219.97777777777776" y="400.969696969697" type="curve" smooth="yes"/>
      <point x="156.04747474747475" y="400.969696969697"/>
      <point x="110.01616161616161" y="349.9646464646465"/>
      <point x="82.5969696969697" y="275.6040404040404" type="curve"/>
      <point x="94.22424242424242" y="252.25353535353537" type="line"/>
      <point x="125.35656565656568" y="326.7474747474747"/>
      <point x="161.01515151515153" y="369.02222222222224"/>
      <point x="208.579797979798" y="369.02222222222224" type="curve" smooth="yes"/>
      <point x="251.8191919191919" y="369.02222222222224"/>
      <point x="275.3484848484849" y="340.7323232323232"/>
      <point x="275.3484848484849" y="295.33030303030307" type="curve" smooth="yes"/>
      <point x="275.3484848484849" y="238.84545454545454"/>
      <point x="238.23232323232324" y="194.24242424242425"/>
      <point x="183.5212121212121" y="194.24242424242425" type="curve" smooth="yes"/>
      <point x="126.73030303030303" y="194.24242424242425"/>
      <point x="98.23636363636365" y="242.97171717171716"/>
      <point x="98.23636363636365" y="307.40404040404036" type="curve" smooth="yes"/>
      <point x="98.23636363636365" y="418.50101010101014"/>
      <point x="177.39999999999998" y="521.5454545454545"/>
      <point x="293.9959595959596" y="521.5454545454545" type="curve" smooth="yes"/>
      <point x="399.050505050505" y="521.5454545454545"/>
      <point x="460.43131313131306" y="450.82020202020203"/>
      <point x="437.66565656565655" y="344.32222222222225" type="curve" smooth="yes"/>
      <point x="409.36868686868684" y="209.4848484848485" type="line"/>
      <point x="448.71515151515155" y="209.4848484848485" type="line"/>
      <point x="479.5818181818183" y="358.06767676767674" type="line" smooth="yes"/>
      <point x="495.23636363636365" y="432.30202020202023"/>
      <point x="552.3858585858586" y="522.3333333333334"/>
      <point x="648.3363636363636" y="522.3333333333334" type="curve" smooth="yes"/>
      <point x="721.9686868686869" y="522.3333333333334"/>
      <point x="767.959595959596" y="473.08585858585855"/>
      <point x="767.959595959596" y="387.7141414141414" type="curve" smooth="yes"/>
      <point x="767.959595959596" y="193.31616161616162"/>
      <point x="616.8666666666667" y="139.96060606060607"/>
      <point x="387.26161616161613" y="117.45151515151514" type="curve" smooth="yes"/>
      <point x="147.20909090909092" y="94.17373737373737"/>
      <point x="-16.361616161616162" y="57.506060606060615"/>
      <point x="-16.361616161616162" y="-122.63636363636364" type="curve" smooth="yes"/>
      <point x="-16.361616161616162" y="-221.2858585858586"/>
      <point x="47.04747474747475" y="-281.8181818181818"/>
    </contour>
  </outline>
</glyph>
<glyph name="o-tamil" format="2">
  <advance width="867.5868686868687"/>
  <unicode hex="0B92"/>
  <note>
uni0B92
</note>
  <anchor x="376.6484848484849" y="0.0" name="bottom"/>
  <anchor x="303.6484848484849" y="-335.0" name="nukta"/>
  <anchor x="476.610101010101" y="544.5454545454545" name="top"/>
  <anchor x="476.9171717171717" y="544.5454545454545" name="vedic"/>
  <outline>
    <contour>
      <point x="212.25252525252523" y="-294.81616161616165" type="curve" smooth="yes"/>
      <point x="362.38181818181823" y="-294.81616161616165"/>
      <point x="421.2585858585859" y="-128.04747474747475"/>
      <point x="582.2262626262627" y="-128.04747474747475" type="curve" smooth="yes"/>
      <point x="606.5838383838384" y="-128.04747474747475" type="line"/>
      <point x="612.9343434343434" y="-97.81818181818181" type="line"/>
      <point x="579.710101010101" y="-97.81818181818181" type="line" smooth="yes"/>
      <point x="404.36161616161615" y="-97.81818181818181"/>
      <point x="394.54545454545456" y="94.08585858585859"/>
      <point x="522.0070707070707" y="222.93838383838386" type="curve"/>
      <point x="526.2949494949495" y="219.5939393939394" type="line"/>
      <point x="462.98080808080806" y="114.46666666666665"/>
      <point x="479.0656565656566" y="-5.0"/>
      <point x="593.7353535353535" y="-5.0" type="curve" smooth="yes"/>
      <point x="712.9232323232324" y="-5.0"/>
      <point x="798.3666666666667" y="103.83535353535355"/>
      <point x="798.3666666666667" y="248.26060606060608" type="curve" smooth="yes"/>
      <point x="798.3666666666667" y="444.6545454545455"/>
      <point x="647.3212121212122" y="552.6969696969697"/>
      <point x="448.36767676767676" y="552.6969696969697" type="curve" smooth="yes"/>
      <point x="212.7040404040404" y="552.6969696969697"/>
      <point x="42.743434343434345" y="378.30505050505053"/>
      <point x="42.743434343434345" y="195.0727272727273" type="curve" smooth="yes"/>
      <point x="42.743434343434345" y="66.72222222222221"/>
      <point x="102.36767676767676" y="-4.212121212121212"/>
      <point x="194.5141414141414" y="-4.212121212121212" type="curve" smooth="yes"/>
      <point x="279.0161616161616" y="-4.212121212121212"/>
      <point x="350.25656565656567" y="59.03333333333333"/>
      <point x="350.25656565656567" y="160.84444444444446" type="curve" smooth="yes"/>
      <point x="350.25656565656567" y="236.85454545454544"/>
      <point x="304.2616161616162" y="287.24242424242425"/>
      <point x="233.47878787878784" y="287.24242424242425" type="curve" smooth="yes"/>
      <point x="150.06666666666666" y="287.24242424242425"/>
      <point x="94.17373737373737" y="220.5878787878788"/>
      <point x="65.63535353535353" y="145.2232323232323" type="curve"/>
      <point x="78.13939393939395" y="118.56565656565655" type="line"/>
      <point x="110.61212121212121" y="195.36262626262626"/>
      <point x="153.65353535353532" y="253.33333333333334"/>
      <point x="222.23333333333335" y="253.33333333333334" type="curve" smooth="yes"/>
      <point x="280.0616161616162" y="253.33333333333334"/>
      <point x="308.379797979798" y="215.7191919191919"/>
      <point x="308.379797979798" y="156.04545454545453" type="curve" smooth="yes"/>
      <point x="308.379797979798" y="79.30909090909091"/>
      <point x="255.64040404040404" y="26.93939393939394"/>
      <point x="193.6787878787879" y="26.93939393939394" type="curve" smooth="yes"/>
      <point x="120.62727272727274" y="26.93939393939394"/>
      <point x="75.48585858585858" y="84.73535353535354"/>
      <point x="75.48585858585858" y="197.10909090909092" type="curve" smooth="yes"/>
      <point x="75.48585858585858" y="360.8090909090909"/>
      <point x="234.16262626262628" y="522.3333333333334"/>
      <point x="444.91616161616156" y="522.3333333333334" type="curve" smooth="yes"/>
      <point x="624.0080808080808" y="522.3333333333334"/>
      <point x="756.3929292929292" y="421.9515151515151"/>
      <point x="756.3929292929292" y="246.31919191919192" type="curve" smooth="yes"/>
      <point x="756.3929292929292" y="129.73636363636365"/>
      <point x="692.7919191919192" y="26.93939393939394"/>
      <point x="594.9989898989899" y="26.93939393939394" type="curve" smooth="yes"/>
      <point x="493.8424242424242" y="26.93939393939394"/>
      <point x="502.65252525252527" y="155.58080808080808"/>
      <point x="575.5535353535355" y="252.52626262626265" type="curve"/>
      <point x="541.279797979798" y="278.36767676767676" type="line"/>
      <point x="380.4232323232323" y="140.44747474747473"/>
      <point x="351.3808080808081" y="-56.789898989898994"/>
      <point x="503.34444444444443" y="-110.38383838383838" type="curve"/>
      <point x="502.6333333333333" y="-114.5959595959596" type="line"/>
      <point x="373.50303030303036" y="-139.7010101010101"/>
      <point x="325.4313131313132" y="-259.12222222222226"/>
      <point x="210.23131313131313" y="-259.12222222222226" type="curve" smooth="yes"/>
      <point x="154.79494949494946" y="-259.12222222222226"/>
      <point x="127.63030303030303" y="-223.1010101010101"/>
      <point x="127.63030303030303" y="-181.0191919191919" type="curve" smooth="yes"/>
      <point x="127.63030303030303" y="-137.22828282828283"/>
      <point x="152.69393939393942" y="-110.73636363636363"/>
      <point x="196.44545454545457" y="-77.72727272727272" type="curve"/>
      <point x="178.41818181818184" y="-53.64242424242425" type="line"/>
      <point x="126.93535353535354" y="-92.6909090909091"/>
      <point x="93.73232323232322" y="-125.0969696969697"/>
      <point x="93.73232323232322" y="-185.13939393939393" type="curve" smooth="yes"/>
      <point x="93.73232323232322" y="-244.30505050505053"/>
      <point x="135.0787878787879" y="-294.81616161616165"/>
    </contour>
  </outline>
</glyph>
<glyph name="oo-tamil" format="2">
  <advance width="867.5868686868687"/>
  <unicode hex="0B93"/>
  <note>
uni0B93
</note>
  <anchor x="371.2272727272727" y="0.0" name="bottom"/>
  <anchor x="310.41212121212124" y="-276.67474747474745" name="nukta"/>
  <anchor x="474.5656565656566" y="544.5454545454545" name="top"/>
  <anchor x="474.8727272727272" y="544.5454545454545" name="vedic"/>
  <outline>
    <contour>
      <point x="204.30404040404042" y="-299.66565656565655" type="curve" smooth="yes"/>
      <point x="350.6525252525252" y="-299.66565656565655"/>
      <point x="421.1242424242424" y="-128.04747474747475"/>
      <point x="582.0919191919193" y="-128.04747474747475" type="curve" smooth="yes"/>
      <point x="599.310101010101" y="-128.04747474747475" type="line"/>
      <point x="605.660606060606" y="-97.81818181818181" type="line"/>
      <point x="579.5757575757575" y="-97.81818181818181" type="line" smooth="yes"/>
      <point x="404.2272727272727" y="-97.81818181818181"/>
      <point x="394.2767676767677" y="94.08585858585859"/>
      <point x="521.8727272727273" y="222.8040404040404" type="curve"/>
      <point x="526.2949494949495" y="219.5939393939394" type="line"/>
      <point x="462.98080808080806" y="114.46666666666665"/>
      <point x="479.0656565656566" y="-5.0"/>
      <point x="593.7353535353535" y="-5.0" type="curve" smooth="yes"/>
      <point x="712.9232323232324" y="-5.0"/>
      <point x="798.3666666666667" y="103.83535353535355"/>
      <point x="798.3666666666667" y="248.26060606060608" type="curve" smooth="yes"/>
      <point x="798.3666666666667" y="444.6545454545455"/>
      <point x="647.3212121212122" y="552.6969696969697"/>
      <point x="448.36767676767676" y="552.6969696969697" type="curve" smooth="yes"/>
      <point x="212.7040404040404" y="552.6969696969697"/>
      <point x="42.743434343434345" y="378.30505050505053"/>
      <point x="42.743434343434345" y="195.0727272727273" type="curve" smooth="yes"/>
      <point x="42.743434343434345" y="66.72222222222221"/>
      <point x="102.36767676767676" y="-4.212121212121212"/>
      <point x="194.5141414141414" y="-4.212121212121212" type="curve" smooth="yes"/>
      <point x="279.0161616161616" y="-4.212121212121212"/>
      <point x="350.25656565656567" y="59.03333333333333"/>
      <point x="350.25656565656567" y="160.84444444444446" type="curve" smooth="yes"/>
      <point x="350.25656565656567" y="236.85454545454544"/>
      <point x="304.2616161616162" y="287.24242424242425"/>
      <point x="233.47878787878784" y="287.24242424242425" type="curve" smooth="yes"/>
      <point x="150.06666666666666" y="287.24242424242425"/>
      <point x="94.17373737373737" y="220.5878787878788"/>
      <point x="65.63535353535353" y="145.2232323232323" type="curve"/>
      <point x="78.13939393939395" y="118.56565656565655" type="line"/>
      <point x="110.61212121212121" y="195.36262626262626"/>
      <point x="153.65353535353532" y="253.33333333333334"/>
      <point x="222.23333333333335" y="253.33333333333334" type="curve" smooth="yes"/>
      <point x="280.0616161616162" y="253.33333333333334"/>
      <point x="308.379797979798" y="215.7191919191919"/>
      <point x="308.379797979798" y="156.04545454545453" type="curve" smooth="yes"/>
      <point x="308.379797979798" y="79.30909090909091"/>
      <point x="255.64040404040404" y="26.93939393939394"/>
      <point x="193.6787878787879" y="26.93939393939394" type="curve" smooth="yes"/>
      <point x="120.62727272727274" y="26.93939393939394"/>
      <point x="75.48585858585858" y="84.73535353535354"/>
      <point x="75.48585858585858" y="197.10909090909092" type="curve" smooth="yes"/>
      <point x="75.48585858585858" y="360.8090909090909"/>
      <point x="234.16262626262628" y="522.3333333333334"/>
      <point x="444.91616161616156" y="522.3333333333334" type="curve" smooth="yes"/>
      <point x="624.0080808080808" y="522.3333333333334"/>
      <point x="756.3929292929292" y="421.9515151515151"/>
      <point x="756.3929292929292" y="246.31919191919192" type="curve" smooth="yes"/>
      <point x="756.3929292929292" y="129.73636363636365"/>
      <point x="692.7919191919192" y="26.93939393939394"/>
      <point x="594.9989898989899" y="26.93939393939394" type="curve" smooth="yes"/>
      <point x="493.8424242424242" y="26.93939393939394"/>
      <point x="502.65252525252527" y="155.58080808080808"/>
      <point x="575.5535353535355" y="252.52626262626265" type="curve"/>
      <point x="541.279797979798" y="278.36767676767676" type="line"/>
      <point x="380.020202020202" y="140.44747474747473"/>
      <point x="351.24646464646463" y="-56.789898989898994"/>
      <point x="503.21010101010097" y="-110.38383838383838" type="curve"/>
      <point x="502.49898989898986" y="-114.5959595959596" type="line"/>
      <point x="373.3686868686869" y="-139.7010101010101"/>
      <point x="312.22424242424245" y="-264.2828282828283"/>
      <point x="202.01414141414142" y="-264.2828282828283" type="curve" smooth="yes"/>
      <point x="148.0121212121212" y="-264.2828282828283"/>
      <point x="116.8040404040404" y="-231.13333333333335"/>
      <point x="116.8040404040404" y="-185.4828282828283" type="curve" smooth="yes"/>
      <point x="116.8040404040404" y="-138.06868686868688"/>
      <point x="149.80101010101012" y="-104.71515151515152"/>
      <point x="195.06565656565655" y="-104.71515151515152" type="curve" smooth="yes"/>
      <point x="229.05656565656565" y="-104.71515151515152"/>
      <point x="250.9484848484849" y="-124.13535353535356"/>
      <point x="256.1555555555555" y="-148.25757575757575" type="curve"/>
      <point x="275.05454545454546" y="-139.70000000000002"/>
      <point x="290.68888888888887" y="-125.05454545454545"/>
      <point x="290.68888888888887" y="-102.5939393939394" type="curve" smooth="yes"/>
      <point x="290.68888888888887" y="-75.0080808080808"/>
      <point x="257.710101010101" y="-57.871717171717165"/>
      <point x="217.469696969697" y="-57.871717171717165" type="curve" smooth="yes"/>
      <point x="139.5979797979798" y="-57.871717171717165"/>
      <point x="84.3949494949495" y="-119.16060606060606"/>
      <point x="84.3949494949495" y="-189.5989898989899" type="curve" smooth="yes"/>
      <point x="84.3949494949495" y="-252.44949494949498"/>
      <point x="133.14040404040404" y="-299.66565656565655"/>
    </contour>
  </outline>
</glyph>
<glyph name="nga-tamil" format="2">
  <advance width="908.2828282828283"/>
  <unicode hex="0B99"/>
  <note>
uni0B99
</note>
  <anchor x="399.94545454545454" y="0.0" name="bottom"/>
  <anchor x="559.3949494949495" y="544.5454545454545" name="imatra"/>
  <anchor x="399.94545454545454" y="0.0" name="nukta"/>
  <anchor x="516.7131313131313" y="544.5454545454545" name="top"/>
  <anchor x="513.4292929292928" y="544.5454545454545" name="vedic"/>
  <outline>
    <contour>
      <point x="51.73434343434344" y="0.0" type="line"/>
      <point x="84.29191919191919" y="0.0" type="line"/>
      <point x="193.44343434343435" y="514.969696969697" type="line"/>
      <point x="382.1313131313131" y="514.969696969697" type="line"/>
      <point x="312.6929292929293" y="189.6969696969697" type="line"/>
      <point x="354.27979797979793" y="189.6969696969697" type="line"/>
      <point x="359.1717171717172" y="213.5757575757576" type="line" smooth="yes"/>
      <point x="369.6707070707071" y="263.860606060606"/>
      <point x="412.529292929293" y="328.3727272727273"/>
      <point x="481.3020202020201" y="328.3727272727273" type="curve" smooth="yes"/>
      <point x="532.8242424242425" y="328.3727272727273"/>
      <point x="562.5333333333333" y="293.9858585858586"/>
      <point x="562.5333333333333" y="237.2141414141414" type="curve" smooth="yes"/>
      <point x="562.5333333333333" y="123.77272727272728"/>
      <point x="457.68585858585857" y="29.575757575757578"/>
      <point x="353.15353535353535" y="29.575757575757578" type="curve" smooth="yes"/>
      <point x="278.75353535353537" y="29.575757575757578" type="line"/>
      <point x="272.26868686868687" y="0.0" type="line"/>
      <point x="740.7010101010101" y="0.0" type="line"/>
      <point x="856.2030303030302" y="544.5454545454545" type="line"/>
      <point x="815.0151515151516" y="544.5454545454545" type="line"/>
      <point x="705.8636363636364" y="29.575757575757578" type="line"/>
      <point x="446.5020202020202" y="29.575757575757578" type="line"/>
      <point x="535.5808080808081" y="64.13838383838385"/>
      <point x="606.2757575757576" y="141.9141414141414"/>
      <point x="606.2757575757576" y="242.26363636363635" type="curve" smooth="yes"/>
      <point x="606.2757575757576" y="317.6373737373737"/>
      <point x="560.2777777777777" y="360.0909090909091"/>
      <point x="494.93939393939394" y="360.0909090909091" type="curve" smooth="yes"/>
      <point x="435.38282828282826" y="360.0909090909091"/>
      <point x="397.68585858585857" y="325.4555555555556"/>
      <point x="376.9616161616162" y="294.0414141414141" type="curve"/>
      <point x="423.3747474747475" y="514.969696969697" type="line"/>
      <point x="583.7808080808081" y="514.969696969697" type="line"/>
      <point x="589.89898989899" y="544.5454545454545" type="line"/>
      <point x="167.58181818181816" y="544.5454545454545" type="line"/>
    </contour>
  </outline>
</glyph>
<glyph name="ca-tamil" format="2">
  <advance width="604.8666666666667"/>
  <unicode hex="0B9A"/>
  <note>
uni0B9A
</note>
  <anchor x="262.4464646464647" y="0.0" name="bottom"/>
  <anchor x="557.5696969696969" y="544.5454545454545" name="imatra"/>
  <anchor x="262.56060606060606" y="0.0" name="nukta"/>
  <anchor x="422.19393939393944" y="544.5454545454545" name="top"/>
  <anchor x="384.6989898989899" y="544.5454545454545" name="vedic"/>
  <outline>
    <contour>
      <point x="184.1969696969697" y="-4.0" type="curve" smooth="yes"/>
      <point x="283.4646464646465" y="-4.0"/>
      <point x="346.00909090909084" y="50.95757575757576"/>
      <point x="372.6979797979798" y="174.73939393939395" type="curve" smooth="yes"/>
      <point x="393.7929292929293" y="272.45454545454544" type="line"/>
      <point x="546.889898989899" y="272.45454545454544" type="line"/>
      <point x="552.529292929293" y="302.8181818181818" type="line"/>
      <point x="400.14343434343436" y="302.8181818181818" type="line"/>
      <point x="445.4464646464647" y="514.969696969697" type="line"/>
      <point x="597.9666666666667" y="514.969696969697" type="line"/>
      <point x="604.3171717171718" y="544.5454545454545" type="line"/>
      <point x="211.42424242424244" y="544.5454545454545" type="line"/>
      <point x="156.2888888888889" y="284.42424242424244" type="line"/>
      <point x="188.24646464646466" y="284.42424242424244" type="line"/>
      <point x="237.1858585858586" y="514.969696969697" type="line"/>
      <point x="403.969696969697" y="514.969696969697" type="line"/>
      <point x="359.03333333333336" y="302.8181818181818" type="line"/>
      <point x="218.2131313131313" y="302.8181818181818" type="line" smooth="yes"/>
      <point x="105.85252525252527" y="302.8181818181818"/>
      <point x="32.57373737373737" y="231.34949494949495"/>
      <point x="32.57373737373737" y="136.97979797979798" type="curve" smooth="yes"/>
      <point x="32.57373737373737" y="55.93434343434344"/>
      <point x="91.98282828282828" y="-4.0"/>
    </contour>
    <contour>
      <point x="184.84747474747476" y="26.93939393939394" type="curve" smooth="yes"/>
      <point x="112.96565656565656" y="26.93939393939394"/>
      <point x="71.37171717171717" y="73.46464646464648"/>
      <point x="71.37171717171717" y="141.46060606060607" type="curve" smooth="yes"/>
      <point x="71.37171717171717" y="214.8141414141414"/>
      <point x="121.55353535353534" y="272.45454545454544"/>
      <point x="215.92222222222222" y="272.45454545454544" type="curve" smooth="yes"/>
      <point x="352.39393939393943" y="272.45454545454544" type="line"/>
      <point x="331.220202020202" y="171.73535353535357" type="line" smooth="yes"/>
      <point x="311.01010101010104" y="74.25858585858586"/>
      <point x="260.05454545454546" y="26.93939393939394"/>
    </contour>
  </outline>
</glyph>
<glyph name="ja-tamil" format="2">
  <advance width="856.0525252525252"/>
  <unicode hex="0B9C"/>
  <note>
uni0B9C
</note>
  <anchor x="379.4040404040404" y="0.0" name="bottom"/>
  <anchor x="317.7464646464646" y="-281.8181818181818" name="nukta"/>
  <anchor x="492.0414141414141" y="544.5454545454545" name="top"/>
  <anchor x="490.59797979797986" y="544.5454545454545" name="vedic"/>
  <outline>
    <contour>
      <point x="123.45757575757575" y="-281.8181818181818" type="curve" smooth="yes"/>
      <point x="309.69292929292925" y="-281.8181818181818"/>
      <point x="390.9090909090909" y="-2.3414141414141425"/>
      <point x="566.370707070707" y="-2.3414141414141425" type="curve" smooth="yes"/>
      <point x="634.779797979798" y="-2.3414141414141425"/>
      <point x="671.1030303030302" y="-46.78888888888889"/>
      <point x="671.1030303030302" y="-111.6080808080808" type="curve" smooth="yes"/>
      <point x="671.1030303030302" y="-194.0"/>
      <point x="614.6121212121212" y="-252.12626262626262"/>
      <point x="536.7444444444444" y="-252.12626262626262" type="curve" smooth="yes"/>
      <point x="498.10808080808084" y="-252.12626262626262"/>
      <point x="466.83232323232323" y="-239.47777777777776"/>
      <point x="439.2070707070707" y="-218.8686868686869" type="curve"/>
      <point x="420.7969696969697" y="-244.0757575757576" type="line"/>
      <point x="452.2686868686868" y="-267.66565656565655"/>
      <point x="487.35656565656564" y="-281.8181818181818"/>
      <point x="539.690909090909" y="-281.8181818181818" type="curve" smooth="yes"/>
      <point x="635.8909090909091" y="-281.8181818181818"/>
      <point x="714.1555555555556" y="-214.70909090909092"/>
      <point x="714.1555555555556" y="-110.53232323232324" type="curve" smooth="yes"/>
      <point x="714.1555555555556" y="-25.182828282828282"/>
      <point x="661.1929292929293" y="28.333333333333336"/>
      <point x="572.4636363636364" y="28.333333333333336" type="curve" smooth="yes"/>
      <point x="373.2676767676768" y="28.333333333333336"/>
      <point x="289.2313131313132" y="-251.27777777777777"/>
      <point x="129.57070707070707" y="-251.27777777777777" type="curve" smooth="yes"/>
      <point x="60.487878787878785" y="-251.27777777777777"/>
      <point x="26.185858585858586" y="-202.7151515151515"/>
      <point x="26.185858585858586" y="-129.8080808080808" type="curve" smooth="yes"/>
      <point x="26.185858585858586" y="33.06161616161616"/>
      <point x="170.4929292929293" y="65.75454545454545"/>
      <point x="401.45050505050506" y="89.11111111111111" type="curve" smooth="yes"/>
      <point x="638.8767676767677" y="113.35656565656565"/>
      <point x="811.3565656565656" y="180.67777777777775"/>
      <point x="811.3565656565656" y="389.68686868686865" type="curve" smooth="yes"/>
      <point x="811.3565656565656" y="497.17676767676767"/>
      <point x="742.9191919191919" y="552.6969696969697"/>
      <point x="655.2292929292929" y="552.6969696969697" type="curve" smooth="yes"/>
      <point x="563.6969696969697" y="552.6969696969697"/>
      <point x="506.409090909091" y="494.72121212121215"/>
      <point x="472.1454545454546" y="425.77878787878785" type="curve"/>
      <point x="457.46060606060604" y="497.6767676767677"/>
      <point x="400.31717171717173" y="552.6969696969697"/>
      <point x="299.5212121212121" y="552.6969696969697" type="curve" smooth="yes"/>
      <point x="162.61919191919193" y="552.6969696969697"/>
      <point x="66.32020202020202" y="441.0979797979798"/>
      <point x="66.32020202020202" y="307.40808080808085" type="curve" smooth="yes"/>
      <point x="66.32020202020202" y="228.38888888888889"/>
      <point x="108.90808080808081" y="162.3030303030303"/>
      <point x="184.36666666666667" y="162.3030303030303" type="curve" smooth="yes"/>
      <point x="255.53434343434344" y="162.3030303030303"/>
      <point x="315.5040404040404" y="215.88181818181818"/>
      <point x="315.5040404040404" y="299.5909090909091" type="curve" smooth="yes"/>
      <point x="315.5040404040404" y="359.65959595959595"/>
      <point x="279.1464646464647" y="400.969696969697"/>
      <point x="220.24646464646466" y="400.969696969697" type="curve" smooth="yes"/>
      <point x="156.31616161616162" y="400.969696969697"/>
      <point x="110.28484848484848" y="349.9646464646465"/>
      <point x="82.86565656565656" y="275.6040404040404" type="curve"/>
      <point x="94.4929292929293" y="252.25353535353537" type="line"/>
      <point x="125.62525252525253" y="326.7474747474747"/>
      <point x="161.28383838383837" y="369.02222222222224"/>
      <point x="208.84848484848484" y="369.02222222222224" type="curve" smooth="yes"/>
      <point x="252.0878787878788" y="369.02222222222224"/>
      <point x="275.6171717171717" y="340.7323232323232"/>
      <point x="275.6171717171717" y="295.33030303030307" type="curve" smooth="yes"/>
      <point x="275.6171717171717" y="238.84545454545454"/>
      <point x="238.50101010101008" y="194.24242424242425"/>
      <point x="183.789898989899" y="194.24242424242425" type="curve" smooth="yes"/>
      <point x="126.9989898989899" y="194.24242424242425"/>
      <point x="98.50505050505049" y="242.97171717171716"/>
      <point x="98.50505050505049" y="307.40404040404036" type="curve" smooth="yes"/>
      <point x="98.50505050505049" y="418.50101010101014"/>
      <point x="177.66868686868688" y="521.5454545454545"/>
      <point x="294.2646464646465" y="521.5454545454545" type="curve" smooth="yes"/>
      <point x="399.31919191919195" y="521.5454545454545"/>
      <point x="460.7" y="450.82020202020203"/>
      <point x="437.9343434343434" y="344.32222222222225" type="curve" smooth="yes"/>
      <point x="409.63737373737376" y="209.4848484848485" type="line"/>
      <point x="448.9838383838384" y="209.4848484848485" type="line"/>
      <point x="479.8505050505051" y="358.06767676767674" type="line" smooth="yes"/>
      <point x="495.5050505050505" y="432.30202020202023"/>
      <point x="552.6545454545454" y="522.3333333333334"/>
      <point x="648.6050505050505" y="522.3333333333334" type="curve" smooth="yes"/>
      <point x="722.2373737373738" y="522.3333333333334"/>
      <point x="768.2282828282828" y="473.08585858585855"/>
      <point x="768.2282828282828" y="387.7141414141414" type="curve" smooth="yes"/>
      <point x="768.2282828282828" y="193.5848484848485"/>
      <point x="616.6989898989898" y="137.37575757575758"/>
      <point x="384.95858585858593" y="114.52020202020202" type="curve" smooth="yes"/>
      <point x="141.25050505050504" y="90.56363636363638"/>
      <point x="-15.732323232323232" y="47.37676767676768"/>
      <point x="-15.732323232323232" y="-131.0949494949495" type="curve" smooth="yes"/>
      <point x="-15.732323232323232" y="-220.76868686868687"/>
      <point x="36.263636363636365" y="-281.8181818181818"/>
    </contour>
  </outline>
</glyph>
<glyph name="nya-tamil" format="2">
  <advance width="1091.380808080808"/>
  <unicode hex="0B9E"/>
  <note>
uni0B9E
</note>
  <anchor x="524.5616161616163" y="0.0" name="bottom"/>
  <anchor x="938.5858585858587" y="544.5454545454545" name="imatra"/>
  <anchor x="471.9323232323232" y="-299.8" name="nukta"/>
  <anchor x="661.1121212121212" y="544.5454545454545" name="top"/>
  <anchor x="610.689898989899" y="544.5454545454545" name="vedic"/>
  <outline>
    <contour>
      <point x="471.5434343434343" y="-299.8" type="curve" smooth="yes"/>
      <point x="779.9737373737373" y="-299.8"/>
      <point x="1015.850505050505" y="-98.22121212121212"/>
      <point x="1015.850505050505" y="178.66262626262628" type="curve" smooth="yes"/>
      <point x="1015.850505050505" y="275.2646464646465"/>
      <point x="967.2747474747475" y="331.6060606060606"/>
      <point x="891.0868686868687" y="331.6060606060606" type="curve" smooth="yes"/>
      <point x="813.5575757575757" y="331.6060606060606"/>
      <point x="762.9505050505051" y="272.72525252525253"/>
      <point x="743.2616161616162" y="180.14646464646464" type="curve" smooth="yes"/>
      <point x="738.7767676767677" y="159.14646464646464" type="line"/>
      <point x="756.4858585858585" y="159.14646464646464" type="line"/>
      <point x="760.970707070707" y="180.1050505050505" type="line" smooth="yes"/>
      <point x="775.8323232323232" y="246.71818181818182"/>
      <point x="814.0151515151515" y="299.8707070707071"/>
      <point x="879.3555555555555" y="299.8707070707071" type="curve" smooth="yes"/>
      <point x="937.7292929292929" y="299.8707070707071"/>
      <point x="972.528282828283" y="256.67070707070707"/>
      <point x="972.528282828283" y="177.67474747474748" type="curve" smooth="yes"/>
      <point x="972.528282828283" y="-76.36363636363635"/>
      <point x="753.6848484848485" y="-267.8606060606061"/>
      <point x="471.52727272727265" y="-267.8606060606061" type="curve" smooth="yes"/>
      <point x="232.67575757575761" y="-267.8606060606061"/>
      <point x="71.35757575757576" y="-104.82727272727273"/>
      <point x="71.35757575757576" y="135.75959595959597" type="curve" smooth="yes"/>
      <point x="71.35757575757576" y="331.8969696969697"/>
      <point x="158.92929292929293" y="485.7050505050505"/>
      <point x="319.83232323232323" y="629.1929292929293" type="curve"/>
      <point x="298.89696969696973" y="652.4626262626264" type="line"/>
      <point x="132.15151515151516" y="504.05454545454546"/>
      <point x="36.3080808080808" y="339.77777777777777"/>
      <point x="36.3080808080808" y="132.41212121212124" type="curve" smooth="yes"/>
      <point x="36.3080808080808" y="-120.110101010101"/>
      <point x="211.1727272727273" y="-299.8"/>
    </contour>
    <component base="e-tamil" xOffset="189.24545454545455"/>
  </outline>
</glyph>
<glyph name="tta-tamil" format="2">
  <advance width="781.7292929292929"/>
  <unicode hex="0B9F"/>
  <note>
uni0B9F
</note>
  <anchor x="379.4191919191919" y="0.0" name="bottom"/>
  <anchor x="379.4191919191919" y="0.0" name="nukta"/>
  <anchor x="484.8070707070707" y="544.5454545454545" name="top"/>
  <anchor x="481.2282828282829" y="544.5454545454545" name="vedic"/>
  <outline>
    <contour>
      <point x="51.73434343434344" y="0.0" type="line"/>
      <point x="703.4797979797979" y="0.0" type="line"/>
      <point x="709.8868686868686" y="29.575757575757578" type="line"/>
      <point x="99.6949494949495" y="29.575757575757578" type="line"/>
      <point x="208.92424242424244" y="544.5454545454545" type="line"/>
      <point x="167.58181818181816" y="544.5454545454545" type="line"/>
    </contour>
  </outline>
</glyph>
<glyph name="nna-tamil" format="2">
  <advance width="1465.0656565656568"/>
  <unicode hex="0BA3"/>
  <note>
uni0BA3
</note>
  <anchor x="725.9424242424243" y="0.0" name="bottom"/>
  <anchor x="1408.7707070707072" y="544.5454545454545" name="imatra"/>
  <anchor x="725.7868686868687" y="0.0" name="nukta"/>
  <anchor x="821.6252525252526" y="544.5454545454545" name="top"/>
  <anchor x="810.5181818181818" y="544.5454545454545" name="vedic"/>
  <outline>
    <contour>
      <point x="548.4878787878789" y="-5.0" type="curve" smooth="yes"/>
      <point x="642.190909090909" y="-5.0"/>
      <point x="724.1252525252526" y="77.16565656565658"/>
      <point x="724.1252525252526" y="226.93232323232323" type="curve" smooth="yes"/>
      <point x="724.1252525252526" y="423.44545454545454"/>
      <point x="589.9030303030303" y="552.9858585858586"/>
      <point x="402.63838383838385" y="552.9858585858586" type="curve" smooth="yes"/>
      <point x="188.24343434343433" y="552.9858585858586"/>
      <point x="43.2969696969697" y="374.179797979798"/>
      <point x="43.2969696969697" y="192.42525252525252" type="curve" smooth="yes"/>
      <point x="43.2969696969697" y="68.11919191919192"/>
      <point x="107.4121212121212" y="-4.212121212121212"/>
      <point x="199.7141414141414" y="-4.212121212121212" type="curve" smooth="yes"/>
      <point x="284.13838383838385" y="-4.212121212121212"/>
      <point x="351.2767676767677" y="59.03333333333333"/>
      <point x="351.2767676767677" y="160.84444444444446" type="curve" smooth="yes"/>
      <point x="351.2767676767677" y="236.85454545454544"/>
      <point x="305.04848484848486" y="287.24242424242425"/>
      <point x="234.2656565656566" y="287.24242424242425" type="curve" smooth="yes"/>
      <point x="150.85353535353534" y="287.24242424242425"/>
      <point x="94.72727272727272" y="220.5878787878788"/>
      <point x="66.1888888888889" y="145.2232323232323" type="curve"/>
      <point x="78.69292929292929" y="118.56565656565655" type="line"/>
      <point x="111.16565656565658" y="195.36262626262626"/>
      <point x="154.44040404040405" y="253.33333333333334"/>
      <point x="223.02020202020202" y="253.33333333333334" type="curve" smooth="yes"/>
      <point x="280.8484848484849" y="253.33333333333334"/>
      <point x="309.40000000000003" y="215.7191919191919"/>
      <point x="309.40000000000003" y="156.04545454545453" type="curve" smooth="yes"/>
      <point x="309.40000000000003" y="79.30909090909091"/>
      <point x="260.91818181818184" y="26.93939393939394"/>
      <point x="198.8787878787879" y="26.93939393939394" type="curve" smooth="yes"/>
      <point x="125.67171717171716" y="26.93939393939394"/>
      <point x="76.03939393939395" y="86.13232323232323"/>
      <point x="76.03939393939395" y="194.46161616161618" type="curve" smooth="yes"/>
      <point x="76.03939393939395" y="356.6838383838384"/>
      <point x="208.6020202020202" y="522.6222222222223"/>
      <point x="399.8090909090909" y="522.6222222222223" type="curve" smooth="yes"/>
      <point x="571.4767676767677" y="522.6222222222223"/>
      <point x="681.8040404040404" y="400.06060606060606"/>
      <point x="681.8040404040404" y="224.15656565656568" type="curve" smooth="yes"/>
      <point x="681.8040404040404" y="96.7070707070707"/>
      <point x="616.0343434343434" y="27.342424242424244"/>
      <point x="546.2717171717171" y="27.342424242424244" type="curve" smooth="yes"/>
      <point x="491.57676767676776" y="27.342424242424244"/>
      <point x="462.02121212121216" y="75.45555555555556"/>
      <point x="462.02121212121216" y="157.93131313131312" type="curve" smooth="yes"/>
      <point x="462.02121212121216" y="328.2535353535354"/>
      <point x="612.8868686868688" y="522.6222222222223"/>
      <point x="806.5060606060606" y="522.6222222222223" type="curve" smooth="yes"/>
      <point x="981.0636363636363" y="522.6222222222223"/>
      <point x="1062.2484848484848" y="394.7969696969697"/>
      <point x="1062.2484848484848" y="231.0909090909091" type="curve" smooth="yes"/>
      <point x="1062.2484848484848" y="102.08282828282829"/>
      <point x="994.9777777777778" y="27.342424242424244"/>
      <point x="925.2363636363635" y="27.342424242424244" type="curve" smooth="yes"/>
      <point x="868.910101010101" y="27.342424242424244"/>
      <point x="842.4656565656566" y="72.82020202020203"/>
      <point x="842.4656565656566" y="154.6979797979798" type="curve" smooth="yes"/>
      <point x="842.4656565656566" y="328.88787878787883"/>
      <point x="1008.7575757575758" y="514.969696969697"/>
      <point x="1205.5434343434342" y="514.969696969697" type="curve" smooth="yes"/>
      <point x="1492.178787878788" y="514.969696969697" type="line"/>
      <point x="1498.5858585858587" y="544.5454545454545" type="line"/>
      <point x="1209.5838383838384" y="544.5454545454545" type="line" smooth="yes"/>
      <point x="988.1757575757578" y="544.5454545454545"/>
      <point x="810.1252525252526" y="346.4969696969697"/>
      <point x="810.1252525252526" y="147.15858585858587" type="curve" smooth="yes"/>
      <point x="810.1252525252526" y="53.41919191919192"/>
      <point x="849.0979797979799" y="-5.0"/>
      <point x="927.4525252525253" y="-5.0" type="curve" smooth="yes"/>
      <point x="1021.8666666666668" y="-5.0"/>
      <point x="1104.5696969696971" y="82.46363636363637"/>
      <point x="1104.5696969696971" y="233.86666666666665" type="curve" smooth="yes"/>
      <point x="1104.5696969696971" y="417.12525252525256"/>
      <point x="1003.8969696969697" y="552.9858585858586"/>
      <point x="809.2020202020202" y="552.9858585858586" type="curve" smooth="yes"/>
      <point x="593.2353535353535" y="552.9858585858586"/>
      <point x="429.6808080808081" y="344.86464646464646"/>
      <point x="429.6808080808081" y="150.3919191919192" type="curve" smooth="yes"/>
      <point x="429.6808080808081" y="55.78585858585859"/>
      <point x="471.6303030303031" y="-5.0"/>
    </contour>
    <contour>
      <point x="1197.6626262626264" y="0.0" type="line"/>
      <point x="1238.7737373737375" y="0.0" type="line"/>
      <point x="1351.4070707070707" y="528.2121212121212" type="line"/>
      <point x="1310.0858585858587" y="528.2121212121212" type="line"/>
    </contour>
  </outline>
</glyph>
<glyph name="na-tamil" format="2">
  <advance width="696.1929292929293"/>
  <unicode hex="0BA8"/>
  <note>
uni0BA8
</note>
  <anchor x="293.0777777777778" y="0.0" name="bottom"/>
  <anchor x="533.3848484848485" y="544.5454545454545" name="imatra"/>
  <anchor x="267.1989898989899" y="-167.34343434343435" name="nukta"/>
  <anchor x="425.9676767676768" y="544.5454545454545" name="top"/>
  <anchor x="421.6545454545455" y="544.5454545454545" name="vedic"/>
  <outline>
    <contour>
      <point x="42.729292929292924" y="-206.9020202020202" type="curve"/>
      <point x="52.13636363636363" y="-160.5131313131313"/>
      <point x="78.77070707070708" y="-127.13232323232323"/>
      <point x="137.6727272727273" y="-127.13232323232323" type="curve" smooth="yes"/>
      <point x="289.1010101010101" y="-127.13232323232323" type="line" smooth="yes"/>
      <point x="481.70202020202026" y="-127.13232323232323"/>
      <point x="625.1404040404041" y="-6.1141414141414145"/>
      <point x="625.1404040404041" y="190.05757575757576" type="curve" smooth="yes"/>
      <point x="625.1404040404041" y="278.54242424242426"/>
      <point x="579.739393939394" y="331.6060606060606"/>
      <point x="504.6515151515151" y="331.6060606060606" type="curve" smooth="yes"/>
      <point x="443.67373737373737" y="331.6060606060606"/>
      <point x="407.3060606060606" y="294.169696969697"/>
      <point x="386.17373737373737" y="262.4828282828283" type="curve"/>
      <point x="440.16262626262625" y="514.969696969697" type="line"/>
      <point x="580.8616161616162" y="514.969696969697" type="line"/>
      <point x="587.3464646464646" y="544.5454545454545" type="line"/>
      <point x="168.23636363636362" y="544.5454545454545" type="line"/>
      <point x="52.81212121212122" y="0.0" type="line"/>
      <point x="85.05858585858586" y="0.0" type="line"/>
      <point x="194.210101010101" y="514.969696969697" type="line"/>
      <point x="399.18686868686865" y="514.969696969697" type="line"/>
      <point x="289.169696969697" y="0.0" type="line"/>
      <point x="330.9333333333333" y="0.0" type="line"/>
      <point x="368.74949494949493" y="179.2868686868687" type="line" smooth="yes"/>
      <point x="379.59393939393937" y="231.35353535353536"/>
      <point x="424.02828282828284" y="299.559595959596"/>
      <point x="493.0525252525253" y="299.559595959596" type="curve" smooth="yes"/>
      <point x="549.5161616161616" y="299.559595959596"/>
      <point x="580.4535353535354" y="260.4242424242424"/>
      <point x="580.4535353535354" y="188.9141414141414" type="curve" smooth="yes"/>
      <point x="580.4535353535354" y="11.698989898989899"/>
      <point x="462.00707070707074" y="-97.9060606060606"/>
      <point x="287.949494949495" y="-97.9060606060606" type="curve" smooth="yes"/>
      <point x="113.7010101010101" y="-97.9060606060606" type="line" smooth="yes"/>
      <point x="49.368686868686865" y="-97.9060606060606"/>
      <point x="1.1797979797979778" y="-122.64040404040404"/>
      <point x="1.1797979797979778" y="-166.33232323232326" type="curve" smooth="yes"/>
      <point x="1.1797979797979778" y="-192.12929292929294"/>
      <point x="16.493939393939392" y="-206.9020202020202"/>
    </contour>
  </outline>
</glyph>
<glyph name="nnna-tamil" format="2">
  <advance width="1105.3848484848484"/>
  <unicode hex="0BA9"/>
  <note>
uni0BA9
</note>
  <anchor x="511.0292929292929" y="0.0" name="bottom"/>
  <anchor x="1047.989898989899" y="544.5454545454545" name="imatra"/>
  <anchor x="512.3161616161616" y="0.0" name="nukta"/>
  <anchor x="634.2262626262626" y="544.5454545454545" name="top"/>
  <anchor x="630.0111111111111" y="544.5454545454545" name="vedic"/>
  <outline>
    <contour>
      <point x="199.7141414141414" y="-4.212121212121212" type="curve" smooth="yes"/>
      <point x="284.13838383838385" y="-4.212121212121212"/>
      <point x="351.2767676767677" y="59.03333333333333"/>
      <point x="351.2767676767677" y="160.84444444444446" type="curve" smooth="yes"/>
      <point x="351.2767676767677" y="236.85454545454544"/>
      <point x="305.04848484848486" y="287.24242424242425"/>
      <point x="234.2656565656566" y="287.24242424242425" type="curve" smooth="yes"/>
      <point x="150.85353535353534" y="287.24242424242425"/>
      <point x="94.72727272727272" y="220.5878787878788"/>
      <point x="66.1888888888889" y="145.2232323232323" type="curve"/>
      <point x="78.69292929292929" y="118.56565656565655" type="line"/>
      <point x="111.16565656565658" y="195.36262626262626"/>
      <point x="154.44040404040405" y="253.33333333333334"/>
      <point x="223.02020202020202" y="253.33333333333334" type="curve" smooth="yes"/>
      <point x="280.8484848484849" y="253.33333333333334"/>
      <point x="309.40000000000003" y="215.7191919191919"/>
      <point x="309.40000000000003" y="156.04545454545453" type="curve" smooth="yes"/>
      <point x="309.40000000000003" y="79.30909090909091"/>
      <point x="260.91818181818184" y="26.93939393939394"/>
      <point x="198.8787878787879" y="26.93939393939394" type="curve" smooth="yes"/>
      <point x="125.67171717171716" y="26.93939393939394"/>
      <point x="76.03939393939395" y="86.13232323232323"/>
      <point x="76.03939393939395" y="194.46161616161618" type="curve" smooth="yes"/>
      <point x="76.03939393939395" y="356.6838383838384"/>
      <point x="205.3969696969697" y="522.6222222222223"/>
      <point x="395.10707070707065" y="522.6222222222223" type="curve" smooth="yes"/>
      <point x="574.3939393939395" y="522.6222222222223"/>
      <point x="682.6101010101011" y="402.0565656565657"/>
      <point x="682.6101010101011" y="226.15252525252524" type="curve" smooth="yes"/>
      <point x="682.6101010101011" y="98.7030303030303"/>
      <point x="615.0747474747474" y="27.342424242424244"/>
      <point x="546.1757575757575" y="27.342424242424244" type="curve" smooth="yes"/>
      <point x="489.3505050505051" y="27.342424242424244"/>
      <point x="462.82727272727277" y="72.82020202020203"/>
      <point x="462.82727272727277" y="154.6979797979798" type="curve" smooth="yes"/>
      <point x="462.82727272727277" y="328.88787878787883"/>
      <point x="643.2666666666667" y="514.969696969697"/>
      <point x="840.0525252525252" y="514.969696969697" type="curve" smooth="yes"/>
      <point x="1132.4979797979797" y="514.969696969697" type="line"/>
      <point x="1138.9050505050507" y="544.5454545454545" type="line"/>
      <point x="844.0929292929293" y="544.5454545454545" type="line" smooth="yes"/>
      <point x="619.1919191919192" y="544.5454545454545"/>
      <point x="430.48686868686866" y="346.4969696969697"/>
      <point x="430.48686868686866" y="147.15858585858587" type="curve" smooth="yes"/>
      <point x="430.48686868686866" y="53.41919191919192"/>
      <point x="469.53838383838377" y="-5.0"/>
      <point x="548.3919191919192" y="-5.0" type="curve" smooth="yes"/>
      <point x="641.730303030303" y="-5.0"/>
      <point x="724.9313131313132" y="79.62828282828283"/>
      <point x="724.9313131313132" y="228.92828282828282" type="curve" smooth="yes"/>
      <point x="724.9313131313132" y="425.940404040404"/>
      <point x="593.8181818181819" y="552.9858585858586"/>
      <point x="397.93636363636364" y="552.9858585858586" type="curve" smooth="yes"/>
      <point x="184.53939393939396" y="552.9858585858586"/>
      <point x="43.2969696969697" y="374.179797979798"/>
      <point x="43.2969696969697" y="192.42525252525252" type="curve" smooth="yes"/>
      <point x="43.2969696969697" y="68.11919191919192"/>
      <point x="107.4121212121212" y="-4.212121212121212"/>
    </contour>
    <contour>
      <point x="837.9818181818182" y="0.0" type="line"/>
      <point x="879.0929292929294" y="0.0" type="line"/>
      <point x="991.7262626262626" y="528.2121212121212" type="line"/>
      <point x="950.4050505050504" y="528.2121212121212" type="line"/>
    </contour>
  </outline>
</glyph>
<glyph name="pa-tamil" format="2">
  <advance width="788.9151515151515"/>
  <unicode hex="0BAA"/>
  <note>
uni0BAA
</note>
  <anchor x="338.8010101010101" y="0.0" name="bottom"/>
  <anchor x="727.7262626262627" y="544.5454545454545" name="imatra"/>
  <anchor x="338.8010101010101" y="0.0" name="nukta"/>
  <anchor x="448.45151515151514" y="544.5454545454545" name="top"/>
  <anchor x="445.95454545454544" y="544.5454545454545" name="vedic"/>
  <outline>
    <contour>
      <point x="51.73434343434344" y="0.0" type="line"/>
      <point x="621.3333333333334" y="0.0" type="line"/>
      <point x="736.969696969697" y="544.5454545454545" type="line"/>
      <point x="695.6484848484848" y="544.5454545454545" type="line"/>
      <point x="585.920202020202" y="29.575757575757578" type="line"/>
      <point x="99.6949494949495" y="29.575757575757578" type="line"/>
      <point x="208.92424242424244" y="544.5454545454545" type="line"/>
      <point x="167.58181818181816" y="544.5454545454545" type="line"/>
    </contour>
  </outline>
</glyph>
<glyph name="ya-tamil" format="2">
  <advance width="839.4818181818182"/>
  <unicode hex="0BAF"/>
  <note>
uni0BAF
</note>
  <anchor x="374.8080808080808" y="0.0" name="bottom"/>
  <anchor x="780.969696969697" y="544.5454545454545" name="imatra"/>
  <anchor x="375.0414141414141" y="0.0" name="nukta"/>
  <anchor x="485.79494949494955" y="544.5454545454545" name="top"/>
  <anchor x="479.76363636363635" y="544.5454545454545" name="vedic"/>
  <outline>
    <contour>
      <point x="174.10909090909092" y="-5.0" type="curve" smooth="yes"/>
      <point x="227.55656565656562" y="-5.0"/>
      <point x="265.1606060606061" y="24.342424242424244"/>
      <point x="290.53131313131314" y="60.4979797979798" type="curve"/>
      <point x="277.63131313131316" y="0.0" type="line"/>
      <point x="671.9" y="0.0" type="line"/>
      <point x="787.690909090909" y="544.5454545454545" type="line"/>
      <point x="745.7151515151515" y="544.5454545454545" type="line"/>
      <point x="636.0646464646464" y="29.575757575757578" type="line"/>
      <point x="322.3979797979798" y="29.575757575757578" type="line"/>
      <point x="431.54949494949494" y="544.5454545454545" type="line"/>
      <point x="390.4191919191919" y="544.5454545454545" type="line"/>
      <point x="304.53131313131314" y="138.43030303030304" type="line" smooth="yes"/>
      <point x="291.8979797979798" y="78.95353535353537"/>
      <point x="244.52121212121213" y="28.424242424242426"/>
      <point x="186.2858585858586" y="28.424242424242426" type="curve" smooth="yes"/>
      <point x="131.40909090909088" y="28.424242424242426"/>
      <point x="103.79090909090908" y="71.95050505050506"/>
      <point x="118.65555555555555" y="141.9838383838384" type="curve" smooth="yes"/>
      <point x="204.25454545454545" y="544.5454545454545" type="line"/>
      <point x="163.33535353535353" y="544.5454545454545" type="line"/>
      <point x="78.66161616161617" y="148.32929292929293" type="line" smooth="yes"/>
      <point x="58.10303030303031" y="52.51717171717172"/>
      <point x="103.27878787878788" y="-5.0"/>
    </contour>
  </outline>
</glyph>
<glyph name="ra-tamil" format="2">
  <advance width="602.778787878788"/>
  <unicode hex="0BB0"/>
  <note>
uni0BB0
</note>
  <anchor x="262.95656565656566" y="0.0" name="bottom"/>
  <anchor x="581.531313131313" y="544.5454545454545" name="imatra"/>
  <anchor x="224.26262626262624" y="-172.21212121212122" name="nukta"/>
  <anchor x="395.74141414141417" y="544.5454545454545" name="top"/>
  <anchor x="400.32222222222225" y="544.5454545454545" name="vedic"/>
  <outline>
    <contour>
      <point x="126.83636363636364" y="-208.09797979797978" type="line"/>
      <point x="350.1545454545455" y="2.1737373737373735" type="line"/>
      <point x="459.03333333333336" y="514.969696969697" type="line"/>
      <point x="629.8919191919192" y="514.969696969697" type="line"/>
      <point x="636.1646464646465" y="544.5454545454545" type="line"/>
      <point x="167.58181818181816" y="544.5454545454545" type="line"/>
      <point x="51.73434343434344" y="0.0" type="line"/>
      <point x="84.13636363636365" y="0.0" type="line"/>
      <point x="193.28787878787878" y="514.969696969697" type="line"/>
      <point x="417.76868686868687" y="514.969696969697" type="line"/>
      <point x="310.1161616161616" y="8.665656565656565" type="line"/>
      <point x="105.24949494949496" y="-184.5737373737374" type="line"/>
    </contour>
  </outline>
</glyph>
<glyph name="rra-tamil" format="2">
  <advance width="759.5737373737373"/>
  <unicode hex="0BB1"/>
  <note>
uni0BB1
</note>
  <anchor x="315.88686868686875" y="0.0" name="bottom"/>
  <anchor x="294.97979797979804" y="-145.42424242424244" name="nukta"/>
  <anchor x="422.969696969697" y="544.5454545454545" name="top"/>
  <anchor x="434.579797979798" y="544.5454545454545" name="vedic"/>
  <outline>
    <contour>
      <point x="47.971717171717174" y="-205.7353535353535" type="curve"/>
      <point x="57.37878787878788" y="-159.34646464646465"/>
      <point x="84.30202020202019" y="-126.44444444444446"/>
      <point x="143.2040404040404" y="-126.44444444444446" type="curve" smooth="yes"/>
      <point x="274.68585858585857" y="-126.44444444444446" type="line" smooth="yes"/>
      <point x="540.5292929292929" y="-126.44444444444446"/>
      <point x="699.7484848484847" y="53.12828282828282"/>
      <point x="699.7484848484847" y="340.7888888888889" type="curve" smooth="yes"/>
      <point x="699.7484848484847" y="477.7101010101011"/>
      <point x="634.7404040404041" y="552.6969696969697"/>
      <point x="534.7787878787879" y="552.6969696969697" type="curve" smooth="yes"/>
      <point x="453.8747474747475" y="552.6969696969697"/>
      <point x="409.1606060606061" y="501.22121212121215"/>
      <point x="387.08181818181816" y="463.1474747474748" type="curve"/>
      <point x="379.15656565656565" y="502.2969696969697"/>
      <point x="347.76363636363635" y="552.4848484848485"/>
      <point x="276.6949494949495" y="552.4848484848485" type="curve" smooth="yes"/>
      <point x="202.72828282828283" y="552.4848484848485"/>
      <point x="151.83333333333334" y="497.87373737373736"/>
      <point x="133.9878787878788" y="412.5707070707071" type="curve" smooth="yes"/>
      <point x="46.519191919191925" y="0.0" type="line"/>
      <point x="78.76565656565657" y="0.0" type="line"/>
      <point x="166.23232323232324" y="412.81313131313135" type="line" smooth="yes"/>
      <point x="179.86464646464648" y="477.6878787878788"/>
      <point x="216.1676767676768" y="522.1212121212121"/>
      <point x="275.71212121212125" y="522.1212121212121" type="curve" smooth="yes"/>
      <point x="337.4545454545455" y="522.1212121212121"/>
      <point x="367.67474747474745" y="468.59999999999997"/>
      <point x="353.2555555555556" y="400.0242424242424" type="curve" smooth="yes"/>
      <point x="268.1353535353535" y="0.0" type="line"/>
      <point x="309.53434343434344" y="0.0" type="line"/>
      <point x="394.8878787878788" y="400.0353535353535" type="line" smooth="yes"/>
      <point x="411.07575757575756" y="474.13030303030297"/>
      <point x="463.83636363636367" y="522.3333333333334"/>
      <point x="531.2939393939394" y="522.3333333333334" type="curve" smooth="yes"/>
      <point x="600.7959595959596" y="522.3333333333334"/>
      <point x="658.0050505050505" y="470.79696969696965"/>
      <point x="658.0050505050505" y="342.5919191919192" type="curve" smooth="yes"/>
      <point x="658.0050505050505" y="72.94646464646465"/>
      <point x="513.3555555555555" y="-95.33838383838383"/>
      <point x="271.3515151515151" y="-95.33838383838383" type="curve" smooth="yes"/>
      <point x="118.94343434343433" y="-95.33838383838383" type="line" smooth="yes"/>
      <point x="54.61111111111111" y="-95.33838383838383"/>
      <point x="6.4222222222222225" y="-121.47373737373736"/>
      <point x="6.4222222222222225" y="-165.16565656565658" type="curve" smooth="yes"/>
      <point x="6.4222222222222225" y="-190.9626262626263"/>
      <point x="21.736363636363638" y="-205.7353535353535"/>
    </contour>
  </outline>
</glyph>
<glyph name="la-tamil" format="2">
  <advance width="903.7161616161616"/>
  <unicode hex="0BB2"/>
  <note>
uni0BB2
</note>
  <anchor x="398.2131313131314" y="0.0" name="bottom"/>
  <anchor x="398.2131313131314" y="0.0" name="nukta"/>
  <anchor x="525.9464646464646" y="544.5454545454545" name="top"/>
  <anchor x="511.13333333333327" y="544.5454545454545" name="vedic"/>
  <outline>
    <contour>
      <point x="200.84848484848484" y="-4.212121212121212" type="curve" smooth="yes"/>
      <point x="285.27272727272725" y="-4.212121212121212"/>
      <point x="352.41111111111115" y="59.03333333333333"/>
      <point x="352.41111111111115" y="160.84444444444446" type="curve" smooth="yes"/>
      <point x="352.41111111111115" y="236.85454545454544"/>
      <point x="306.18282828282827" y="287.24242424242425"/>
      <point x="235.39999999999998" y="287.24242424242425" type="curve" smooth="yes"/>
      <point x="151.98787878787877" y="287.24242424242425"/>
      <point x="95.86161616161617" y="220.5878787878788"/>
      <point x="67.32323232323232" y="145.2232323232323" type="curve"/>
      <point x="79.82727272727273" y="118.56565656565655" type="line"/>
      <point x="112.3" y="195.36262626262626"/>
      <point x="155.57474747474748" y="253.33333333333334"/>
      <point x="224.15454545454546" y="253.33333333333334" type="curve" smooth="yes"/>
      <point x="281.98282828282834" y="253.33333333333334"/>
      <point x="310.53434343434344" y="215.7191919191919"/>
      <point x="310.53434343434344" y="156.04545454545453" type="curve" smooth="yes"/>
      <point x="310.53434343434344" y="79.30909090909091"/>
      <point x="262.05252525252524" y="26.93939393939394"/>
      <point x="200.0131313131313" y="26.93939393939394" type="curve" smooth="yes"/>
      <point x="126.8060606060606" y="26.93939393939394"/>
      <point x="77.17373737373738" y="86.13232323232323"/>
      <point x="77.17373737373738" y="194.46161616161618" type="curve" smooth="yes"/>
      <point x="77.17373737373738" y="355.9060606060606"/>
      <point x="189.8121212121212" y="522.3333333333334"/>
      <point x="363.79393939393935" y="522.3333333333334" type="curve" smooth="yes"/>
      <point x="486.67171717171715" y="522.3333333333334"/>
      <point x="538.570707070707" y="436.6010101010101"/>
      <point x="512.2272727272727" y="316.2979797979798" type="curve" smooth="yes"/>
      <point x="478.8090909090909" y="164.13333333333333" type="line" smooth="yes"/>
      <point x="458.06161616161614" y="68.90404040404042"/>
      <point x="494.54848484848486" y="-3.1515151515151514"/>
      <point x="591.1434343434344" y="-3.1515151515151514" type="curve" smooth="yes"/>
      <point x="738.4979797979798" y="-3.1515151515151514"/>
      <point x="854.8757575757576" y="154.9878787878788"/>
      <point x="854.8757575757576" y="353.0323232323232" type="curve" smooth="yes"/>
      <point x="854.8757575757576" y="432.25050505050507"/>
      <point x="836.210101010101" y="491.3939393939394"/>
      <point x="802.3080808080808" y="549.679797979798" type="curve"/>
      <point x="771.00101010101" y="531.2191919191919" type="line"/>
      <point x="799.830303030303" y="482.5828282828283"/>
      <point x="821.130303030303" y="418.6606060606061"/>
      <point x="821.130303030303" y="350.83232323232323" type="curve" smooth="yes"/>
      <point x="821.130303030303" y="179.76262626262627"/>
      <point x="720.2575757575758" y="28.272727272727273"/>
      <point x="596.9909090909091" y="28.272727272727273" type="curve" smooth="yes"/>
      <point x="524.1030303030302" y="28.272727272727273"/>
      <point x="503.4444444444444" y="83.66161616161617"/>
      <point x="520.4969696969697" y="162.34545454545454" type="curve" smooth="yes"/>
      <point x="553.2030303030303" y="313.95353535353536" type="line" smooth="yes"/>
      <point x="583.8181818181819" y="455.4616161616162"/>
      <point x="517.259595959596" y="552.6969696969697"/>
      <point x="367.3232323232323" y="552.6969696969697" type="curve" smooth="yes"/>
      <point x="168.95454545454547" y="552.6969696969697"/>
      <point x="44.43131313131313" y="373.4020202020202"/>
      <point x="44.43131313131313" y="192.42525252525252" type="curve" smooth="yes"/>
      <point x="44.43131313131313" y="68.11919191919192"/>
      <point x="108.54646464646464" y="-4.212121212121212"/>
    </contour>
  </outline>
</glyph>
<glyph name="llla-tamil" format="2">
  <advance width="802.1121212121212"/>
  <unicode hex="0BB4"/>
  <note>
uni0BB4
</note>
  <anchor x="348.21717171717177" y="0.0" name="bottom"/>
  <anchor x="292.2292929292929" y="-278.42727272727274" name="nukta"/>
  <anchor x="490.6151515151516" y="544.5454545454545" name="top"/>
  <anchor x="483.6878787878788" y="544.5454545454545" name="vedic"/>
  <anchor x="779.0585858585858" y="544.5454545454545" name="imatra"/>
  <outline>
    <contour>
      <point x="181.1969696969697" y="-313.23333333333335" type="curve" smooth="yes"/>
      <point x="324.27474747474747" y="-313.23333333333335"/>
      <point x="382.4525252525253" y="-146.25353535353537"/>
      <point x="537.4525252525253" y="-146.25353535353537" type="curve" smooth="yes"/>
      <point x="586.2868686868687" y="-146.25353535353537" type="line"/>
      <point x="592.7717171717171" y="-116.75555555555556" type="line"/>
      <point x="536.8919191919192" y="-116.75555555555556" type="line" smooth="yes"/>
      <point x="446.1727272727273" y="-116.75555555555556"/>
      <point x="370.5" y="-76.56969696969698"/>
      <point x="388.4525252525252" y="6.718181818181819" type="curve" smooth="yes"/>
      <point x="399.2838383838384" y="57.3939393939394" type="line"/>
      <point x="358.25050505050507" y="57.3939393939394" type="line"/>
      <point x="347.20909090909095" y="6.718181818181819" type="line" smooth="yes"/>
      <point x="330.3919191919192" y="-68.4030303030303"/>
      <point x="388.54545454545456" y="-116.68888888888888"/>
      <point x="466.2383838383838" y="-129.30101010101012" type="curve"/>
      <point x="465.2383838383838" y="-134.22323232323234" type="line"/>
      <point x="333.2787878787879" y="-155.12323232323232"/>
      <point x="288.40909090909093" y="-279.5030303030303"/>
      <point x="175.66868686868688" y="-279.5030303030303" type="curve" smooth="yes"/>
      <point x="122.08282828282829" y="-279.5030303030303"/>
      <point x="90.28888888888888" y="-243.03838383838382"/>
      <point x="90.28888888888888" y="-195.22727272727275" type="curve" smooth="yes"/>
      <point x="90.28888888888888" y="-142.91919191919192"/>
      <point x="125.27373737373739" y="-103.6050505050505"/>
      <point x="178.96262626262626" y="-103.6050505050505" type="curve" smooth="yes"/>
      <point x="212.7020202020202" y="-103.6050505050505"/>
      <point x="240.28383838383837" y="-119.17979797979797"/>
      <point x="264.58181818181816" y="-144.74444444444447" type="curve"/>
      <point x="288.0333333333333" y="-121.76767676767676" type="line"/>
      <point x="256.9080808080808" y="-87.60909090909092"/>
      <point x="219.07070707070707" y="-73.47474747474747"/>
      <point x="179.0060606060606" y="-73.47474747474747" type="curve" smooth="yes"/>
      <point x="107.48181818181818" y="-73.47474747474747"/>
      <point x="56.81414141414142" y="-129.34949494949493"/>
      <point x="56.81414141414142" y="-200.7858585858586" type="curve" smooth="yes"/>
      <point x="56.81414141414142" y="-264.22323232323237"/>
      <point x="106.42323232323233" y="-313.23333333333335"/>
    </contour>
    <component base="ma-tamil"/>
  </outline>
</glyph>
<glyph name="va-tamil" format="2">
  <advance width="1014.8131313131313"/>
  <unicode hex="0BB5"/>
  <note>
uni0BB5
</note>
  <anchor x="459.4424242424243" y="0.0" name="bottom"/>
  <anchor x="929.8616161616161" y="544.5454545454545" name="imatra"/>
  <anchor x="459.4424242424243" y="0.0" name="nukta"/>
  <anchor x="555.030303030303" y="544.5454545454545" name="top"/>
  <anchor x="548.2676767676768" y="544.5454545454545" name="vedic"/>
  <outline>
    <contour>
      <point x="199.50404040404038" y="-4.212121212121212" type="curve" smooth="yes"/>
      <point x="283.9282828282828" y="-4.212121212121212"/>
      <point x="351.06666666666666" y="59.03333333333333"/>
      <point x="351.06666666666666" y="160.84444444444446" type="curve" smooth="yes"/>
      <point x="351.06666666666666" y="236.85454545454544"/>
      <point x="304.8383838383838" y="287.24242424242425"/>
      <point x="234.05555555555554" y="287.24242424242425" type="curve" smooth="yes"/>
      <point x="150.64343434343434" y="287.24242424242425"/>
      <point x="94.51717171717172" y="220.5878787878788"/>
      <point x="65.97878787878787" y="145.2232323232323" type="curve"/>
      <point x="78.4828282828283" y="118.56565656565655" type="line"/>
      <point x="110.95555555555556" y="195.36262626262626"/>
      <point x="154.23030303030305" y="253.33333333333334"/>
      <point x="222.81010101010102" y="253.33333333333334" type="curve" smooth="yes"/>
      <point x="280.6383838383839" y="253.33333333333334"/>
      <point x="309.189898989899" y="215.7191919191919"/>
      <point x="309.189898989899" y="156.04545454545453" type="curve" smooth="yes"/>
      <point x="309.189898989899" y="79.30909090909091"/>
      <point x="260.7080808080808" y="26.93939393939394"/>
      <point x="198.66868686868688" y="26.93939393939394" type="curve" smooth="yes"/>
      <point x="125.46161616161616" y="26.93939393939394"/>
      <point x="75.82929292929293" y="86.13232323232323"/>
      <point x="75.82929292929293" y="194.46161616161618" type="curve" smooth="yes"/>
      <point x="75.82929292929293" y="354.5626262626263"/>
      <point x="210.2141414141414" y="522.6222222222223"/>
      <point x="386.17272727272723" y="522.6222222222223" type="curve" smooth="yes"/>
      <point x="510.5252525252526" y="522.6222222222223"/>
      <point x="601.909090909091" y="450.34444444444443"/>
      <point x="601.909090909091" y="313.3070707070707" type="curve" smooth="yes"/>
      <point x="601.909090909091" y="194.65656565656565"/>
      <point x="538.170707070707" y="101.53636363636363"/>
      <point x="462.21111111111117" y="23.85757575757576" type="curve"/>
      <point x="470.36868686868684" y="0.0" type="line"/>
      <point x="847.2313131313131" y="0.0" type="line"/>
      <point x="963.1565656565656" y="544.5454545454545" type="line"/>
      <point x="921.4686868686869" y="544.5454545454545" type="line"/>
      <point x="811.6838383838384" y="29.575757575757578" type="line"/>
      <point x="508.49494949494954" y="29.575757575757578" type="line"/>
      <point x="578.4333333333333" y="99.13232323232323"/>
      <point x="644.2111111111111" y="191.14545454545456"/>
      <point x="644.2111111111111" y="318.0060606060606" type="curve" smooth="yes"/>
      <point x="644.2111111111111" y="472.8080808080808"/>
      <point x="535.5131313131312" y="552.9858585858586"/>
      <point x="390.0838383838384" y="552.9858585858586" type="curve" smooth="yes"/>
      <point x="188.66363636363636" y="552.9858585858586"/>
      <point x="43.08686868686869" y="371.3868686868687"/>
      <point x="43.08686868686869" y="192.42525252525252" type="curve" smooth="yes"/>
      <point x="43.08686868686869" y="68.11919191919192"/>
      <point x="107.2020202020202" y="-4.212121212121212"/>
    </contour>
  </outline>
</glyph>
<glyph name="sha-tamil" format="2">
  <advance width="996.281818181818"/>
  <unicode hex="0BB6"/>
  <note>
uni0BB6
</note>
  <anchor x="454.17979797979797" y="0.0" name="bottom"/>
  <anchor x="832.3909090909092" y="544.5454545454545" name="imatra"/>
  <anchor x="454.17979797979797" y="0.0" name="nukta"/>
  <anchor x="572.1595959595959" y="544.5454545454545" name="top"/>
  <anchor x="577.7898989898989" y="544.5454545454545" name="vedic"/>
  <outline>
    <contour>
      <point x="223.4020202020202" y="-8.151515151515152" type="curve" smooth="yes"/>
      <point x="310.3060606060606" y="-8.151515151515152"/>
      <point x="384.70808080808075" y="34.32727272727273"/>
      <point x="413.45353535353536" y="169.34545454545454" type="curve" smooth="yes"/>
      <point x="487.0323232323233" y="514.969696969697" type="line"/>
      <point x="639.6747474747475" y="514.969696969697" type="line"/>
      <point x="565.5535353535354" y="167.94848484848487" type="line" smooth="yes"/>
      <point x="543.2121212121212" y="63.244444444444454"/>
      <point x="570.8454545454546" y="-8.151515151515152"/>
      <point x="664.5676767676769" y="-8.151515151515152" type="curve" smooth="yes"/>
      <point x="831.9939393939393" y="-8.151515151515152"/>
      <point x="956.3222222222222" y="230.19292929292928"/>
      <point x="956.3222222222222" y="413.9464646464647" type="curve" smooth="yes"/>
      <point x="956.3222222222222" y="503.3848484848485"/>
      <point x="917.5616161616161" y="544.5454545454545"/>
      <point x="835.9252525252525" y="544.5454545454545" type="curve" smooth="yes"/>
      <point x="460.88484848484853" y="544.5454545454545" type="line"/>
      <point x="381.3777777777778" y="172.66767676767677" type="line" smooth="yes"/>
      <point x="356.579797979798" y="56.462626262626266"/>
      <point x="294.6343434343434" y="23.272727272727273"/>
      <point x="227.26262626262627" y="23.272727272727273" type="curve" smooth="yes"/>
      <point x="139.14747474747472" y="23.272727272727273"/>
      <point x="109.48282828282828" y="95.59595959595958"/>
      <point x="129.97676767676768" y="191.6030303030303" type="curve" smooth="yes"/>
      <point x="205.1787878787879" y="544.5454545454545" type="line"/>
      <point x="163.62424242424242" y="544.5454545454545" type="line"/>
      <point x="88.61414141414141" y="192.54343434343437" type="line" smooth="yes"/>
      <point x="64.02323232323232" y="81.88888888888889"/>
      <point x="110.09595959595961" y="-8.151515151515152"/>
    </contour>
    <contour>
      <point x="669.9656565656567" y="23.272727272727273" type="curve" smooth="yes"/>
      <point x="599.0434343434343" y="23.272727272727273"/>
      <point x="588.4050505050506" y="83.52626262626262"/>
      <point x="606.5313131313133" y="165.6070707070707" type="curve" smooth="yes"/>
      <point x="680.7090909090911" y="514.969696969697" type="line"/>
      <point x="827.4616161616162" y="514.969696969697" type="line" smooth="yes"/>
      <point x="892.2141414141413" y="514.969696969697"/>
      <point x="923.0777777777779" y="485.9242424242424"/>
      <point x="923.0777777777779" y="412.8858585858586" type="curve" smooth="yes"/>
      <point x="923.0777777777779" y="255.30505050505047"/>
      <point x="810.230303030303" y="23.272727272727273"/>
    </contour>
  </outline>
</glyph>
<glyph name="sa-tamil" format="2">
  <advance width="1131.8151515151515"/>
  <unicode hex="0BB8"/>
  <note>
uni0BB8
</note>
  <anchor x="523.7292929292929" y="0.0" name="bottom"/>
  <anchor x="523.7292929292929" y="0.0" name="nukta"/>
  <anchor x="629.7323232323232" y="544.5454545454545" name="top"/>
  <anchor x="624.5727272727273" y="544.5454545454545" name="vedic"/>
  <outline>
    <contour>
      <point x="454.6909090909091" y="0.0" type="line"/>
      <point x="495.59090909090907" y="0.0" type="line"/>
      <point x="584.9808080808081" y="418.76161616161613" type="line" smooth="yes"/>
      <point x="598.89898989899" y="483.50707070707074"/>
      <point x="632.8656565656565" y="522.1212121212121"/>
      <point x="687.7454545454547" y="522.1212121212121" type="curve" smooth="yes"/>
      <point x="745.9303030303031" y="522.1212121212121"/>
      <point x="773.9909090909091" y="476.69494949494947"/>
      <point x="760.089898989899" y="412.3222222222222" type="curve" smooth="yes"/>
      <point x="706.9080808080809" y="163.84444444444443" type="line" smooth="yes"/>
      <point x="686.5838383838385" y="68.61515151515152"/>
      <point x="722.6474747474748" y="-3.1515151515151514"/>
      <point x="819.2424242424242" y="-3.1515151515151514" type="curve" smooth="yes"/>
      <point x="966.5969696969697" y="-3.1515151515151514"/>
      <point x="1082.9747474747476" y="154.9878787878788"/>
      <point x="1082.9747474747476" y="353.0323232323232" type="curve" smooth="yes"/>
      <point x="1082.9747474747476" y="432.25050505050507"/>
      <point x="1064.9808080808082" y="491.12525252525256"/>
      <point x="1031.3474747474747" y="549.5454545454545" type="curve"/>
      <point x="999.7717171717172" y="531.3535353535353" type="line"/>
      <point x="1028.466666666667" y="482.5828282828283"/>
      <point x="1049.229292929293" y="418.6606060606061"/>
      <point x="1049.229292929293" y="350.83232323232323" type="curve" smooth="yes"/>
      <point x="1049.229292929293" y="179.76262626262627"/>
      <point x="948.3565656565655" y="28.272727272727273"/>
      <point x="825.089898989899" y="28.272727272727273" type="curve" smooth="yes"/>
      <point x="752.2020202020202" y="28.272727272727273"/>
      <point x="731.5434343434345" y="83.52727272727272"/>
      <point x="748.5959595959597" y="162.34545454545454" type="curve" smooth="yes"/>
      <point x="800.2757575757576" y="405.6444444444444" type="line" smooth="yes"/>
      <point x="818.4262626262627" y="490.5161616161616"/>
      <point x="775.7929292929293" y="552.6969696969697"/>
      <point x="693.3171717171717" y="552.6969696969697" type="curve" smooth="yes"/>
      <point x="618.2424242424242" y="552.6969696969697"/>
      <point x="570.8898989898989" y="495.7909090909091"/>
      <point x="555.7565656565656" y="424.8393939393939" type="curve" smooth="yes"/>
      <point x="543.8464646464647" y="368.5838383838384" type="line"/>
      <point x="532.749494949495" y="368.5838383838384" type="line"/>
    </contour>
    <contour>
      <point x="200.4050505050505" y="-4.212121212121212" type="curve" smooth="yes"/>
      <point x="284.82929292929293" y="-4.212121212121212"/>
      <point x="352.5454545454545" y="59.03333333333333"/>
      <point x="352.5454545454545" y="160.84444444444446" type="curve" smooth="yes"/>
      <point x="352.5454545454545" y="236.85454545454544"/>
      <point x="306.31717171717173" y="287.24242424242425"/>
      <point x="235.5343434343434" y="287.24242424242425" type="curve" smooth="yes"/>
      <point x="152.1222222222222" y="287.24242424242425"/>
      <point x="95.99595959595959" y="220.5878787878788"/>
      <point x="67.45757575757575" y="145.2232323232323" type="curve"/>
      <point x="79.96161616161618" y="118.56565656565655" type="line"/>
      <point x="112.43434343434343" y="195.36262626262626"/>
      <point x="155.70909090909092" y="253.33333333333334"/>
      <point x="224.28888888888892" y="253.33333333333334" type="curve" smooth="yes"/>
      <point x="282.11717171717174" y="253.33333333333334"/>
      <point x="310.66868686868685" y="215.7191919191919"/>
      <point x="310.66868686868685" y="156.04545454545453" type="curve" smooth="yes"/>
      <point x="310.66868686868685" y="79.30909090909091"/>
      <point x="261.6090909090909" y="26.93939393939394"/>
      <point x="199.56969696969696" y="26.93939393939394" type="curve" smooth="yes"/>
      <point x="126.36262626262626" y="26.93939393939394"/>
      <point x="77.3080808080808" y="86.13232323232323"/>
      <point x="77.3080808080808" y="194.46161616161618" type="curve" smooth="yes"/>
      <point x="77.3080808080808" y="354.4090909090909"/>
      <point x="187.1060606060606" y="522.3333333333334"/>
      <point x="362.0858585858586" y="522.3333333333334" type="curve" smooth="yes"/>
      <point x="474.6121212121212" y="522.3333333333334"/>
      <point x="550.1333333333333" y="449.3353535353535"/>
      <point x="521.7767676767677" y="316.3292929292929" type="curve"/>
      <point x="553.8666666666667" y="316.10303030303027" type="line"/>
      <point x="585.5303030303031" y="469.6363636363636"/>
      <point x="497.279797979798" y="552.6969696969697"/>
      <point x="365.6151515151515" y="552.6969696969697" type="curve" smooth="yes"/>
      <point x="166.24848484848485" y="552.6969696969697"/>
      <point x="44.56565656565657" y="371.9050505050505"/>
      <point x="44.56565656565657" y="192.42525252525252" type="curve" smooth="yes"/>
      <point x="44.56565656565657" y="68.11919191919192"/>
      <point x="108.1030303030303" y="-4.212121212121212"/>
    </contour>
  </outline>
</glyph>
<glyph name="aaMatra-tamil" format="2">
  <advance width="621.8565656565657"/>
  <unicode hex="0BBE"/>
  <note>
uni0BBE
</note>
  <anchor x="280.58484848484846" y="0.0" name="bottom"/>
  <anchor x="279.87373737373736" y="0.0" name="nukta"/>
  <anchor x="389.510101010101" y="544.5454545454545" name="top"/>
  <anchor x="389.510101010101" y="544.5454545454545" name="vedic"/>
  <outline>
    <contour>
      <point x="51.73434343434344" y="0.0" type="line"/>
      <point x="84.13636363636365" y="0.0" type="line"/>
      <point x="193.28787878787878" y="514.969696969697" type="line"/>
      <point x="433.1808080808081" y="514.969696969697" type="line"/>
      <point x="323.3959595959596" y="0.0" type="line"/>
      <point x="365.2939393939394" y="0.0" type="line"/>
      <point x="474.7343434343435" y="514.969696969697" type="line"/>
      <point x="648.9696969696969" y="514.969696969697" type="line"/>
      <point x="655.3767676767676" y="544.5454545454545" type="line"/>
      <point x="167.58181818181816" y="544.5454545454545" type="line"/>
    </contour>
  </outline>
</glyph>
<glyph name="iMatra-tamil" format="2">
  <advance width="207.220202020202"/>
  <unicode hex="0BBF"/>
  <note>
uni0BBF
</note>
  <anchor x="-15.27878787878788" y="800.2454545454545" name="top"/>
  <outline>
    <contour>
      <point x="20.475757575757573" y="0.0" type="line"/>
      <point x="54.71818181818181" y="0.0" type="line"/>
      <point x="170.9989898989899" y="545.7242424242424" type="line" smooth="yes"/>
      <point x="203.64343434343436" y="698.760606060606"/>
      <point x="127.44848484848485" y="800.2454545454545"/>
      <point x="-15.27878787878788" y="800.2454545454545" type="curve" smooth="yes"/>
      <point x="-133.1878787878788" y="800.2454545454545"/>
      <point x="-209.42828282828285" y="722.0464646464646"/>
      <point x="-209.42828282828285" y="631.0828282828282" type="curve" smooth="yes"/>
      <point x="-209.42828282828285" y="562.2222222222222"/>
      <point x="-159.16060606060606" y="514.969696969697"/>
      <point x="-102.25959595959597" y="514.969696969697" type="curve" smooth="yes"/>
      <point x="-95.47373737373738" y="514.969696969697" type="line"/>
      <point x="-89.62222222222222" y="544.5454545454545" type="line"/>
      <point x="-93.83434343434342" y="544.5454545454545" type="line" smooth="yes"/>
      <point x="-140.28181818181818" y="544.5454545454545"/>
      <point x="-175.18080808080805" y="578.8828282828282"/>
      <point x="-175.18080808080805" y="628.1646464646465" type="curve" smooth="yes"/>
      <point x="-175.18080808080805" y="698.8898989898989"/>
      <point x="-112.76868686868687" y="757.7313131313131"/>
      <point x="-19.14747474747475" y="757.7313131313131" type="curve" smooth="yes"/>
      <point x="103.62828282828283" y="757.7313131313131"/>
      <point x="163.24141414141414" y="671.9818181818182"/>
      <point x="134.52121212121213" y="536.8030303030303" type="curve" smooth="yes"/>
    </contour>
  </outline>
</glyph>
<glyph name="iiMatra-tamil" format="2">
  <unicode hex="0BC0"/>
  <note>
uni0BC0
</note>
  <anchor x="56.63636363636364" y="544.5454545454545" name="_imatra"/>
  <anchor x="118.17474747474748" y="874.1212121212121" name="top"/>
  <outline>
    <contour>
      <point x="38.329292929292926" y="517.6060606060606" type="curve" smooth="yes"/>
      <point x="51.36363636363636" y="517.6060606060606" type="line"/>
      <point x="56.63636363636364" y="544.5454545454545" type="line"/>
      <point x="45.201010101010105" y="544.5454545454545" type="line" smooth="yes"/>
      <point x="-23.372727272727275" y="544.5454545454545"/>
      <point x="-59.92828282828283" y="589.890909090909"/>
      <point x="-59.92828282828283" y="667.4010101010101" type="curve" smooth="yes"/>
      <point x="-59.92828282828283" y="760.2151515151515"/>
      <point x="7.723232323232323" y="845.3333333333334"/>
      <point x="115.55656565656565" y="845.3333333333334" type="curve" smooth="yes"/>
      <point x="179.78383838383837" y="845.3333333333334"/>
      <point x="229.74242424242425" y="810.6151515151514"/>
      <point x="229.74242424242425" y="746.1626262626262" type="curve" smooth="yes"/>
      <point x="229.74242424242425" y="690.8222222222222"/>
      <point x="194.35656565656566" y="647.3333333333334"/>
      <point x="138.70000000000002" y="647.3333333333334" type="curve" smooth="yes"/>
      <point x="48.47373737373737" y="647.3333333333334"/>
      <point x="48.58282828282829" y="761.8646464646465"/>
      <point x="111.73434343434343" y="854.1515151515151" type="curve"/>
      <point x="87.06868686868687" y="858.1515151515151" type="line"/>
      <point x="6.6434343434343415" y="748.5818181818181"/>
      <point x="20.153535353535354" y="617.7575757575758"/>
      <point x="139.24343434343433" y="617.7575757575758" type="curve" smooth="yes"/>
      <point x="214.17070707070707" y="617.7575757575758"/>
      <point x="268.9414141414141" y="670.5191919191919"/>
      <point x="268.9414141414141" y="747.7505050505051" type="curve" smooth="yes"/>
      <point x="268.9414141414141" y="828.3242424242424"/>
      <point x="204.33434343434345" y="874.1212121212121"/>
      <point x="118.17474747474748" y="874.1212121212121" type="curve" smooth="yes"/>
      <point x="-8.487878787878788" y="874.1212121212121"/>
      <point x="-95.26767676767676" y="775.9060606060606"/>
      <point x="-95.26767676767676" y="665.4181818181818" type="curve" smooth="yes"/>
      <point x="-95.26767676767676" y="575.5898989898989"/>
      <point x="-43.782828282828284" y="517.6060606060606"/>
    </contour>
  </outline>
</glyph>
<glyph name="uuMatra-tamil" format="2">
  <advance width="768.3979797979797"/>
  <unicode hex="0BC2"/>
  <note>
uni0BC2
</note>
  <anchor x="492.4121212121212" y="780.1343434343435" name="top"/>
  <outline>
    <contour>
      <point x="329.8838383838384" y="0.7878787878787878" type="curve" smooth="yes"/>
      <point x="578.7151515151515" y="0.7878787878787878"/>
      <point x="756.4757575757575" y="213.57575757575756"/>
      <point x="756.4757575757575" y="483.840404040404" type="curve" smooth="yes"/>
      <point x="756.4757575757575" y="679.8464646464646"/>
      <point x="647.3252525252525" y="780.0"/>
      <point x="492.54646464646464" y="780.0" type="curve" smooth="yes"/>
      <point x="320.8858585858586" y="780.0"/>
      <point x="235.05656565656565" y="660.7707070707071"/>
      <point x="208.65656565656568" y="535.9050505050506" type="curve" smooth="yes"/>
      <point x="181.56464646464647" y="407.6040404040404" type="line" smooth="yes"/>
      <point x="158.79898989898987" y="300.52222222222224"/>
      <point x="202.5434343434343" y="225.8181818181818"/>
      <point x="301.4121212121212" y="225.8181818181818" type="curve" smooth="yes"/>
      <point x="380.0111111111111" y="225.8181818181818"/>
      <point x="444.7939393939394" y="271.2727272727273"/>
      <point x="466.40707070707066" y="373.12828282828286" type="curve" smooth="yes"/>
      <point x="503.1484848484849" y="544.5454545454545" type="line"/>
      <point x="-163.35656565656566" y="544.5454545454545" type="line"/>
      <point x="-144.83434343434345" y="514.969696969697" type="line"/>
      <point x="455.1878787878788" y="514.969696969697" type="line"/>
      <point x="424.4525252525253" y="373.0777777777777" type="line" smooth="yes"/>
      <point x="408.0343434343434" y="297.7878787878788"/>
      <point x="361.81010101010105" y="257.9909090909091"/>
      <point x="300.1373737373737" y="257.9909090909091" type="curve" smooth="yes"/>
      <point x="224.81414141414143" y="257.9909090909091"/>
      <point x="194.4919191919192" y="316.6545454545455"/>
      <point x="213.3878787878788" y="405.3333333333333" type="curve" smooth="yes"/>
      <point x="240.9030303030303" y="535.9050505050506" type="line" smooth="yes"/>
      <point x="264.16767676767677" y="645.7505050505051"/>
      <point x="341.66565656565655" y="749.8484848484849"/>
      <point x="487.63737373737376" y="749.8484848484849" type="curve" smooth="yes"/>
      <point x="626.9020202020203" y="749.8484848484849"/>
      <point x="715.1141414141414" y="660.6383838383838"/>
      <point x="715.1141414141414" y="485.6575757575757" type="curve" smooth="yes"/>
      <point x="715.1141414141414" y="239.6"/>
      <point x="553.7606060606062" y="31.151515151515152"/>
      <point x="330.3414141414142" y="31.151515151515152" type="curve" smooth="yes"/>
      <point x="215.51414141414145" y="31.151515151515152"/>
      <point x="137.7131313131313" y="71.37474747474748"/>
      <point x="78.14040404040404" y="152.5858585858586" type="curve"/>
      <point x="49.66363636363636" y="131.3838383838384" type="line"/>
      <point x="113.42727272727272" y="47.36666666666667"/>
      <point x="197.01111111111112" y="0.7878787878787878"/>
    </contour>
  </outline>
</glyph>
